<svg xmlns="http://www.w3.org/2000/svg" width="1156" height="602" viewBox="0 0 1156 602" fill="none"><path d="M96.371 351.777C38.5683 329.619 6.51093 294.778 1.40486 256.423C-3.66153 218.062 18.2163 176.135 68.232 139.796C110.627 108.995 166.594 87.1034 225.814 75.5053C281.826 64.5259 340.695 62.7578 393.694 71.3693C449.665 36.7956 521.5 14.2494 594.594 5.68767C671.739 -3.37336 750.298 3.03056 813.262 27.2C846.083 39.7989 871.582 56.077 889.531 74.7C906.317 92.0898 916.413 111.531 919.739 131.9C931.768 133.502 943.539 135.588 954.987 138.214C969.856 141.602 983.997 145.814 997.202 150.883C1043.07 168.49 1072.85 194.116 1085.85 223.156C1098.22 250.849 1095.35 281.678 1076.67 311.649C1124.77 335.64 1150.58 369.423 1153.22 405.901C1155.96 444.33 1133.06 485.741 1083.38 521.832C1033.71 557.923 960.093 584.395 886.778 594.027C813.404 603.666 738.035 598.119 678.028 575.085C489.385 498.359 287.918 427.042 96.3816 351.781L96.371 351.777ZM38.9048 251.491C43.3184 284.623 71.0332 314.721 120.972 333.891C315.153 406.723 512.02 481.854 702.646 557.175C754.786 577.189 820.303 582.031 884.066 573.649C947.78 565.278 1009.82 543.695 1054.95 510.908C1100.08 478.12 1118.13 443.522 1115.73 410.184C1113.33 376.728 1088.51 345.871 1042.21 324.92C1036.43 322.589 1034.27 318.134 1037.43 313.704C1057.08 285.906 1060.89 256.97 1049.35 231.253C1038.16 206.188 1012.38 184.058 972.561 168.774C960.866 164.284 948.653 160.608 936.084 157.756C923.095 154.773 909.513 152.564 895.557 151.122C888.571 150.413 883.469 147.319 883.103 143.04C881.302 122.991 872.149 103.81 855.803 86.8441C840.077 70.5257 817.614 56.2207 788.621 45.091C733.195 23.8152 664.077 18.1431 596.313 26.1141C528.459 34.0807 461.927 55.6782 411.73 88.9016C406.161 93.0187 396.582 95.0549 388.654 93.4834C340.046 83.8898 284.934 84.8412 232.827 95.0611C181.751 105.063 133.435 124.005 96.673 150.714C53.4407 182.124 34.531 218.353 38.8942 251.486L38.9048 251.491Z" fill="url(#paint0_linear_1485_5829)"></path><rect x="0.311408" y="2.36538" width="152" height="152" rx="17.5" transform="matrix(0.93358 0.358368 -0.809017 0.587785 601.2 206.842)" fill="url(#paint1_linear_1485_5829)" stroke="#E63946" stroke-width="5"></rect><path d="M644.613 262.043C645.117 261.677 645.37 261.236 645.315 260.819C645.26 260.402 644.902 260.042 644.32 259.818C643.737 259.595 642.979 259.526 642.21 259.627C641.442 259.729 640.726 259.991 640.222 260.358C639.682 260.749 639.017 261.084 638.269 261.341C637.522 261.598 636.71 261.771 635.888 261.849C635.715 261.865 635.545 261.855 635.395 261.822C635.244 261.789 635.118 261.733 635.029 261.66C634.363 261.097 633.521 260.612 632.533 260.223C631.55 259.829 630.411 259.555 629.175 259.413C629.019 259.387 628.883 259.34 628.778 259.275C628.673 259.21 628.602 259.13 628.57 259.04C628.428 258.601 628.464 258.135 628.676 257.672C628.889 257.209 629.272 256.761 629.801 256.358C630.305 255.991 630.558 255.551 630.503 255.134C630.448 254.716 630.09 254.356 629.508 254.133C628.926 253.909 628.167 253.841 627.398 253.942C626.63 254.043 625.915 254.306 625.41 254.672C623.546 256.041 622.552 257.666 622.62 259.235C622.617 259.356 622.537 259.48 622.393 259.584C622.249 259.689 622.051 259.767 621.834 259.806C619.879 260.256 618.086 260.965 616.629 261.864C616.526 261.921 616.445 261.988 616.391 262.061C616.338 262.133 616.315 262.209 616.323 262.282C616.327 262.354 616.358 262.422 616.414 262.482C616.47 262.542 616.549 262.593 616.647 262.632L632.922 268.879C633.039 268.92 633.174 268.945 633.319 268.952C633.463 268.959 633.614 268.948 633.761 268.92C633.892 268.896 634.018 268.859 634.13 268.811C634.243 268.762 634.341 268.703 634.419 268.637C635.598 267.626 636.314 266.499 636.491 265.376C636.507 265.256 636.593 265.136 636.734 265.033C636.876 264.93 637.066 264.85 637.277 264.805C640.111 264.377 642.728 263.392 644.613 262.043Z" fill="#E63946"></path><path d="M599.738 269.464C599.155 269.24 598.397 269.171 597.628 269.273C596.86 269.374 596.144 269.637 595.64 270.003C595.135 270.37 594.883 270.81 594.938 271.227C594.992 271.645 595.35 272.005 595.933 272.228L600.704 274.06C600.836 274.11 600.935 274.182 600.99 274.267C601.045 274.353 601.055 274.45 601.018 274.546C600.536 275.724 600.626 276.9 601.279 277.946C601.932 278.993 603.123 279.87 604.723 280.485C606.323 281.099 608.272 281.426 610.358 281.431C612.445 281.436 614.59 281.119 616.562 280.513C616.724 280.462 616.902 280.436 617.074 280.437C617.247 280.439 617.406 280.468 617.536 280.521L622.278 282.341C622.86 282.565 623.619 282.633 624.387 282.532C625.156 282.431 625.871 282.168 626.376 281.802C626.88 281.435 627.133 280.995 627.078 280.577C627.023 280.16 626.665 279.8 626.083 279.577L622.424 278.172C622.23 278.097 622.11 277.977 622.092 277.838C622.074 277.699 622.158 277.553 622.326 277.43L624.913 275.55C625.082 275.428 625.32 275.341 625.576 275.307C625.832 275.273 626.085 275.296 626.279 275.371L629.938 276.775C630.521 276.999 631.28 277.067 632.048 276.966C632.817 276.865 633.532 276.602 634.036 276.236C634.541 275.869 634.793 275.429 634.739 275.011C634.684 274.594 634.326 274.234 633.743 274.011L630.084 272.606C629.89 272.532 629.771 272.412 629.753 272.273C629.734 272.133 629.819 271.987 629.987 271.864L630.621 271.404C630.789 271.282 630.873 271.135 630.855 270.996C630.837 270.857 630.717 270.737 630.523 270.662L614.424 264.482C614.229 264.407 613.976 264.385 613.72 264.418C613.464 264.452 613.226 264.54 613.058 264.662L612.423 265.123C612.255 265.245 612.017 265.332 611.761 265.366C611.504 265.4 611.252 265.377 611.057 265.302L607.398 263.898C606.816 263.674 606.057 263.606 605.289 263.707C604.52 263.808 603.805 264.071 603.3 264.437C602.796 264.804 602.543 265.244 602.598 265.662C602.653 266.079 603.011 266.439 603.593 266.662L607.252 268.067C607.447 268.141 607.566 268.261 607.584 268.4C607.602 268.54 607.518 268.686 607.35 268.809L604.813 270.652C604.645 270.774 604.407 270.861 604.151 270.895C603.894 270.929 603.642 270.906 603.447 270.831L599.738 269.464Z" fill="#E63946"></path><path d="M588.83 256.065C583.725 259.776 580.335 264.037 579.03 268.382C577.726 272.728 578.556 276.992 581.43 280.71C584.305 284.428 589.113 287.457 595.332 289.468C601.551 291.479 608.942 292.394 616.699 292.114C617.187 292.06 617.664 292.109 618.033 292.25C618.402 292.392 618.637 292.616 618.69 292.878L619.947 303.276C620.061 304.111 620.782 304.831 621.951 305.277C623.12 305.723 624.641 305.859 626.18 305.654C627.72 305.45 629.151 304.921 630.159 304.186C631.167 303.45 631.67 302.568 631.556 301.732L630.269 291.324C630.242 291.077 630.374 290.818 630.644 290.592C630.914 290.366 631.305 290.187 631.746 290.088C638.212 288.569 644.193 286.273 649.206 283.384C654.22 280.495 658.125 277.094 660.607 273.457C663.089 269.82 664.078 266.047 663.495 262.444C662.911 258.841 660.771 255.509 657.248 252.716C653.725 249.923 648.916 247.747 643.211 246.365C637.506 244.982 631.064 244.432 624.405 244.758C617.746 245.084 611.057 246.277 604.877 248.241C598.697 250.206 593.2 252.886 588.83 256.065ZM643.859 251.839C649.07 253.839 652.824 256.767 654.648 260.253C656.472 263.738 656.283 267.625 654.105 271.421C651.928 275.218 647.859 278.753 642.414 281.58C636.969 284.408 630.392 286.4 623.515 287.305C616.637 288.211 609.769 287.988 603.778 286.667C597.786 285.345 592.941 282.983 589.855 279.88C586.769 276.777 585.581 273.071 586.44 269.232C587.3 265.393 590.169 261.593 594.684 258.313C600.739 253.914 609.321 250.76 618.544 249.546C627.766 248.332 636.872 249.157 643.859 251.839Z" fill="#E63946"></path><path d="M556.626 294.555L552.269 292.883C552.678 292.497 552.95 292.12 553.083 291.75C553.223 291.376 553.236 291.017 553.121 290.674C553.007 290.33 552.769 290.009 552.409 289.711C552.055 289.416 551.587 289.156 551.003 288.932C549.949 288.528 548.804 288.34 547.567 288.369C546.337 288.395 545.075 288.638 543.782 289.098C542.495 289.555 541.24 290.228 540.016 291.117C538.757 292.031 537.916 292.882 537.49 293.67C537.072 294.46 537.036 295.163 537.381 295.781C537.727 296.399 538.414 296.905 539.441 297.299C540.018 297.521 540.618 297.678 541.241 297.77C541.87 297.865 542.504 297.894 543.141 297.858C543.784 297.818 544.416 297.713 545.035 297.542C545.662 297.374 546.26 297.138 546.831 296.834L551.17 298.519C550.247 299.064 549.184 299.524 547.98 299.897C546.789 300.27 545.52 300.526 544.172 300.665C542.836 300.804 541.476 300.798 540.09 300.649C538.717 300.498 537.377 300.172 536.071 299.671C534.254 298.973 532.986 298.091 532.266 297.024C531.553 295.959 531.457 294.777 531.979 293.478C532.507 292.181 533.73 290.835 535.649 289.441C537.574 288.043 539.63 287.013 541.815 286.353C544.001 285.692 546.163 285.38 548.302 285.417C550.447 285.449 552.414 285.809 554.205 286.496C555.385 286.949 556.335 287.473 557.056 288.069C557.783 288.667 558.262 289.317 558.493 290.018C558.729 290.715 558.697 291.445 558.394 292.21C558.099 292.977 557.509 293.758 556.626 294.555ZM569.573 292.663L561.086 304.297L561.275 304.369L579.619 296.519L584.393 298.352L559.72 308.481L554.17 306.35L564.789 290.827L569.573 292.663ZM569.193 312.117L586.844 299.293L600.57 304.561L597.493 306.797L588.074 303.181L583.868 306.237L592.58 309.582L589.504 311.817L580.791 308.473L576.576 311.535L586.035 315.166L582.958 317.401L569.193 312.117ZM588.515 319.783C587.858 319.531 587.496 319.169 587.427 318.696C587.371 318.221 587.628 317.777 588.196 317.364C588.76 316.955 589.474 316.693 590.341 316.579C591.214 316.468 591.978 316.538 592.635 316.79C593.271 317.034 593.627 317.394 593.702 317.87C593.777 318.345 593.534 318.787 592.97 319.197C592.591 319.472 592.131 319.681 591.589 319.824C591.06 319.966 590.522 320.037 589.974 320.037C589.432 320.033 588.946 319.949 588.515 319.783ZM596.857 322.985C596.201 322.733 595.838 322.371 595.769 321.898C595.713 321.423 595.97 320.979 596.538 320.566C597.102 320.157 597.816 319.895 598.683 319.781C599.556 319.67 600.32 319.74 600.977 319.992C601.613 320.236 601.969 320.596 602.044 321.072C602.12 321.547 601.876 321.99 601.312 322.399C600.933 322.674 600.473 322.884 599.931 323.027C599.402 323.168 598.864 323.239 598.316 323.239C597.774 323.235 597.288 323.151 596.857 322.985ZM605.199 326.188C604.543 325.936 604.18 325.573 604.112 325.1C604.055 324.626 604.312 324.182 604.881 323.768C605.444 323.359 606.158 323.098 607.025 322.984C607.898 322.872 608.662 322.942 609.319 323.194C609.955 323.439 610.311 323.799 610.386 324.274C610.462 324.75 610.218 325.192 609.655 325.601C609.275 325.876 608.815 326.086 608.273 326.229C607.744 326.37 607.206 326.441 606.658 326.441C606.116 326.438 605.63 326.353 605.199 326.188Z" fill="white"></path><rect x="0.311408" y="2.36538" width="142" height="80" rx="17.5" transform="matrix(0.93358 0.358368 -0.809017 0.587785 870.188 216.67)" fill="url(#paint3_linear_1485_5829)" stroke="#535B61" stroke-width="5"></rect><path d="M854.647 255.21L866.852 246.343L870.412 247.71L858.208 256.577L854.647 255.21ZM853.945 249.878L857.031 247.636L871.114 253.042L868.029 255.284L853.945 249.878ZM889.161 251.844L894.472 253.883L888.222 264.652L888.46 264.744L905.929 258.281L911.24 260.32L893.589 273.144L889.412 271.54L900.901 263.193L900.732 263.128L884.058 269.39L881.213 268.298L887.388 257.958L887.218 257.893L875.687 266.272L871.509 264.668L889.161 251.844ZM903.701 277.313C902.157 276.72 901.105 276 900.547 275.154C900.001 274.307 899.934 273.394 900.347 272.417C900.765 271.436 901.652 270.452 903.008 269.467C904.376 268.474 905.876 267.722 907.509 267.213C909.147 266.7 910.811 266.452 912.501 266.469C914.203 266.484 915.826 266.788 917.371 267.381C918.916 267.975 919.961 268.695 920.507 269.542C921.066 270.388 921.135 271.302 920.717 272.284C920.304 273.261 919.414 274.246 918.047 275.24C916.691 276.225 915.193 276.974 913.555 277.487C911.922 277.996 910.255 278.243 908.553 278.228C906.863 278.211 905.246 277.906 903.701 277.313ZM906.566 275.254C907.268 275.524 908.028 275.624 908.843 275.554C909.664 275.48 910.496 275.27 911.338 274.923C912.187 274.579 912.996 274.127 913.766 273.568C914.536 273.008 915.1 272.462 915.458 271.93C915.822 271.4 915.945 270.917 915.824 270.482C915.704 270.047 915.292 269.694 914.59 269.424C913.88 269.152 913.108 269.05 912.274 269.119C911.446 269.19 910.607 269.398 909.759 269.742C908.917 270.089 908.111 270.542 907.341 271.102C906.571 271.661 906.004 272.206 905.639 272.736C905.281 273.268 905.165 273.753 905.292 274.191C905.432 274.627 905.856 274.982 906.566 275.254ZM914.234 281.069L927.472 271.451L931.58 273.027L929.27 274.706L929.429 274.767C930.53 274.277 931.618 274.005 932.693 273.952C933.775 273.895 934.744 274.031 935.599 274.359C935.811 274.441 936.028 274.537 936.251 274.648C936.473 274.759 936.657 274.864 936.802 274.965L933.544 277.332C933.397 277.218 933.168 277.079 932.857 276.915C932.546 276.751 932.244 276.613 931.952 276.501C931.329 276.261 930.654 276.133 929.928 276.116C929.214 276.097 928.508 276.183 927.809 276.375C927.117 276.568 926.501 276.861 925.961 277.254L918.471 282.695L914.234 281.069ZM931.686 288.055C930.115 287.452 929.038 286.733 928.456 285.897C927.886 285.059 927.805 284.154 928.212 283.18C928.624 282.203 929.529 281.207 930.925 280.193C932.287 279.204 933.787 278.452 935.426 277.939C937.064 277.426 938.724 277.173 940.406 277.181C942.095 277.191 943.688 277.484 945.187 278.059C946.195 278.446 946.992 278.908 947.579 279.446C948.179 279.983 948.524 280.578 948.617 281.232C948.716 281.889 948.526 282.595 948.046 283.348C947.571 284.098 946.771 284.882 945.645 285.7L944.637 286.432L931.737 281.481L934.012 279.828L942.924 283.248C943.452 282.864 943.788 282.473 943.931 282.075C944.073 281.677 944.024 281.304 943.783 280.956C943.555 280.607 943.132 280.314 942.516 280.077C941.872 279.83 941.173 279.705 940.417 279.702C939.674 279.698 938.947 279.798 938.238 280.004C937.534 280.206 936.917 280.496 936.388 280.874L934.225 282.445C933.57 282.921 933.143 283.386 932.944 283.839C932.753 284.295 932.786 284.716 933.045 285.103C933.303 285.489 933.787 285.818 934.497 286.091C934.968 286.271 935.456 286.395 935.962 286.462C936.468 286.529 936.976 286.532 937.484 286.472C937.992 286.412 938.486 286.289 938.965 286.102L942.66 287.769C941.645 288.286 940.524 288.647 939.299 288.853C938.085 289.057 936.825 289.096 935.518 288.971C934.224 288.844 932.946 288.539 931.686 288.055Z" fill="white"></path><path d="M682.674 307.617L756.894 336.107C766.759 340.343 791.343 345.288 810.759 331.181C830.175 317.075 855.255 298.853 865.368 291.506" stroke="#E63946" stroke-width="4"></path><path d="M683.608 307.975L730.287 325.894C738.648 328.804 751.001 337.797 733.526 350.494C716.051 363.19 706.289 370.282 703.592 372.242C698.095 377.618 693.356 390.771 718.376 400.375C743.396 409.979 756.808 415.128 760.387 416.502" stroke="#E63946" stroke-width="4"></path><path d="M544.014 324.909L523.384 339.898C515.574 346.782 493.139 357.933 465.878 347.469C438.617 337.004 381.7 315.156 356.649 305.54" stroke="#E63946" stroke-width="4"></path><path d="M670.22 233.215L683.164 223.81C689.158 219.455 693.958 207.986 665.204 196.948C636.45 185.91 623.66 181.001 620.859 179.925C612.404 176.911 599.907 167.676 617.558 154.852C635.209 142.028 627.756 147.443 631.531 144.7" stroke="#E63946" stroke-width="4"></path><rect x="0.227231" y="1.81015" width="150.969" height="150.969" rx="14" transform="matrix(0.939812 0.341692 -0.826197 0.563382 677.314 36.0066)" fill="url(#paint4_linear_1485_5829)" stroke="#34A853" stroke-width="4"></rect><rect x="0.227231" y="1.81015" width="150.969" height="150.969" rx="14" transform="matrix(0.939812 0.341692 -0.826197 0.563382 819.314 375.713)" fill="url(#paint5_linear_1485_5829)" stroke="#11C3DB" stroke-width="4"></rect><path d="M714.933 97.1566L717.804 98.2017L733.207 96.3104L736.674 94.3892C735.637 90.2207 732.507 86.4482 727.582 83.4281C722.656 80.4081 716.096 78.2401 708.522 77.1291C700.948 76.0181 692.61 76.0007 684.295 77.0785C675.981 78.1563 667.964 80.2938 661.003 83.289C662.244 83.3984 663.308 83.7299 664.026 84.2315L682.774 88.5823C682.774 88.5823 684.823 88.0653 685.178 88.2733C692.082 87.2578 699.016 87.6141 704.558 89.2695C710.1 90.9248 713.832 93.7538 714.99 97.1775L714.933 97.1566Z" fill="#EA4335"></path><path d="M732.107 109.164C736.337 104.357 737.969 99.2458 736.802 94.4569L715.184 97.1113C715.852 99.1464 715.587 101.317 714.411 103.459C713.234 105.601 711.175 107.658 708.39 109.476L706.592 110.689C707.934 111.178 709.03 111.819 709.817 112.576C710.604 113.333 711.067 114.191 711.179 115.102C711.29 116.012 711.049 116.956 710.469 117.881C709.888 118.806 708.98 119.694 707.796 120.492C706.611 121.291 705.174 121.986 703.566 122.537C701.958 123.088 700.211 123.485 698.425 123.704C696.638 123.923 694.847 123.961 693.154 123.816C691.46 123.67 689.898 123.343 688.555 122.855L668.111 115.414L664.249 115.902L653.432 123.198L653.672 125.153L674.116 132.594C679.786 134.699 686.94 135.659 694.521 135.333C702.102 135.007 709.707 133.412 716.211 130.784C722.715 128.156 727.773 124.635 730.635 120.741C733.498 116.848 734.014 112.788 732.107 109.164Z" fill="#4285F4"></path><path d="M633.297 117.635L653.741 125.076L668.18 115.337L647.736 107.896C646.28 107.365 645.117 106.655 644.326 105.813L640.669 105.297L625.209 107.168L621.958 108.615C623.5 112.373 627.484 115.542 633.297 117.635Z" fill="#34A853"></path><path d="M680.137 86.0407C674.568 84.0442 667.623 83.1309 660.27 83.4283C652.918 83.7257 645.526 85.219 639.126 87.6996C632.727 90.1802 627.64 93.5242 624.576 97.2646C621.511 101.005 620.623 104.955 622.034 108.563L644.355 105.822C643.449 104.868 643.044 103.772 643.175 102.626C643.306 101.48 643.969 100.319 645.107 99.2426C646.246 98.1665 647.825 97.2072 649.71 96.4471C651.596 95.687 653.73 95.1487 655.931 94.8784C658.132 94.6082 660.334 94.6141 662.347 94.8955C664.36 95.177 666.125 95.7257 667.489 96.4944C668.854 97.2632 669.778 98.2292 670.183 99.3094C670.587 100.39 670.459 101.552 669.811 102.697L692.132 99.9559C692.513 97.1136 691.629 94.3785 689.548 91.9645C687.467 89.5505 684.246 87.523 680.137 86.0407Z" fill="#FBBC05"></path><path d="M851.589 410.858L880.506 421.383L772.018 463.385C770.904 463.816 769.616 464.075 768.336 464.125C767.056 464.174 765.848 464.012 764.884 463.661L742.379 455.47C741.648 455.204 741.081 454.839 740.725 454.404C740.369 453.968 740.234 453.476 740.332 452.968C740.429 452.459 740.756 451.949 741.286 451.48C741.815 451.01 742.532 450.595 743.376 450.268L844.453 411.134C845.568 410.702 846.856 410.443 848.137 410.394C849.417 410.344 850.624 410.507 851.589 410.858Z" fill="url(#paint6_linear_1485_5829)"></path><path d="M840.968 461.655L795.113 444.965C794.687 444.809 794.158 444.734 793.594 444.748C793.03 444.762 792.457 444.866 791.951 445.045C791.445 445.224 791.028 445.47 790.755 445.752C790.482 446.034 790.366 446.338 790.422 446.624L795.624 473.715C795.775 474.503 796.512 475.179 797.686 475.606L823.651 485.056L840.968 461.655Z" fill="#0078D4"></path><path d="M851.584 410.859C850.612 410.502 849.389 410.339 848.093 410.395C846.798 410.45 845.498 410.721 844.384 411.168L743.472 450.236C742.61 450.559 741.874 450.974 741.328 451.445C740.782 451.917 740.441 452.432 740.335 452.946C740.228 453.46 740.359 453.958 740.716 454.398C741.073 454.839 741.646 455.208 742.386 455.476L765.472 463.878C766.467 464.1 767.605 464.167 768.77 464.072C769.934 463.978 771.084 463.725 772.1 463.34L792.147 455.601L795.67 473.881C795.895 474.594 796.604 475.202 797.678 475.601L823.547 485.016L840.805 461.593L807.724 449.559L880.605 421.422L851.584 410.859Z" fill="url(#paint7_linear_1485_5829)"></path><path d="M885.753 426.166C886.25 425.51 886.363 424.825 886.076 424.206C885.789 423.586 885.117 423.065 884.153 422.714L851.926 410.984C852.889 411.335 853.562 411.857 853.848 412.476C854.135 413.095 854.022 413.78 853.525 414.436L808.382 473.93C808.004 474.427 807.418 474.891 806.672 475.282C805.926 475.672 805.042 475.98 804.091 476.178C803.141 476.376 802.153 476.46 801.208 476.422C800.263 476.383 799.389 476.225 798.658 475.959L830.887 487.689C831.618 487.955 832.492 488.113 833.437 488.152C834.381 488.19 835.37 488.106 836.32 487.908C837.27 487.709 838.154 487.402 838.9 487.011C839.646 486.62 840.232 486.157 840.609 485.66L885.753 426.166Z" fill="url(#paint8_linear_1485_5829)"></path><rect x="0.227231" y="1.81015" width="169.24" height="169.24" rx="14" transform="matrix(0.939812 0.341692 -0.826197 0.563382 280.408 188.713)" fill="url(#paint9_linear_1485_5829)" stroke="#FFD700" stroke-width="4"></rect><path fill-rule="evenodd" clip-rule="evenodd" d="M348.588 262.686C349.413 262.986 350.243 263.322 350.969 263.69C351.733 264.071 352.388 264.447 353.044 264.824C353.629 265.209 354.177 265.58 354.655 265.961C355.132 266.341 355.459 266.667 355.636 266.938C355.898 267.309 356.009 267.625 355.937 267.909C355.898 268.171 355.648 268.459 355.186 268.774L353.636 269.831C352.944 270.303 352.281 270.442 351.718 270.237C351.418 270.128 351.063 269.86 350.689 269.449C349.409 268.087 347.437 266.922 344.773 265.953C342.636 265.176 340.651 264.765 338.861 264.77C337.072 264.774 335.516 265.208 334.164 266.13C333.241 266.759 332.824 267.435 332.948 268.135C333.072 268.835 333.834 269.767 335.261 270.872L339.103 273.82C341.046 275.319 341.941 276.748 341.751 278.093C341.562 279.437 340.575 280.699 338.86 281.868C337.442 282.835 335.819 283.589 334.06 284.121C332.264 284.64 330.374 284.988 328.42 285.105C326.433 285.244 324.451 285.145 322.409 284.85C320.26 284.552 318.266 284.068 316.354 283.372C314.403 282.663 312.651 281.819 311.171 280.867C309.691 279.916 308.657 279.091 308.177 278.399C307.873 277.979 307.79 277.604 307.937 277.347C308.083 277.09 308.338 276.838 308.635 276.636L310.317 275.489C311.009 275.017 311.64 274.901 312.202 275.106C312.427 275.187 312.619 275.292 312.778 275.419C312.937 275.546 313.142 275.758 313.385 275.985C314.166 276.785 315.159 277.56 316.358 278.272C317.594 278.997 318.925 279.619 320.425 280.164C322.788 281.023 324.989 281.444 326.99 281.413C328.991 281.382 330.721 280.908 332.073 279.986C332.996 279.357 333.417 278.717 333.368 278.044C333.32 277.372 332.605 276.525 331.295 275.497L327.34 272.508C325.36 270.996 324.456 269.495 324.701 268.033C324.915 266.594 325.893 265.26 327.608 264.091C328.993 263.147 330.55 262.437 332.281 261.963C334.011 261.489 335.835 261.187 337.685 261.101C339.569 260.993 341.405 261.075 343.3 261.35C345.197 261.626 346.937 262.086 348.588 262.686ZM271.178 234.611C275.641 236.234 278.014 238.027 278.334 240.005C278.617 241.969 276.963 244.195 273.335 246.668L262.652 253.953L262.727 253.981C261.507 254.813 260.668 255.542 260.205 256.132C259.78 256.736 259.364 257.412 259.032 258.188C258.956 258.436 258.767 258.643 258.536 258.8C258.206 259.025 257.651 259.168 256.834 259.215L253.085 259.301C252.55 259.313 252.113 259.258 251.813 259.149C251.438 259.013 251.229 258.763 251.151 258.425C251.12 257.896 251.196 257.373 251.349 256.877C251.534 256.358 251.786 255.794 252.132 255.127C246.173 256.132 240.98 255.83 236.554 254.221C233.403 253.075 231.681 251.622 231.426 249.875C231.171 248.127 232.344 246.347 234.982 244.549C237.785 242.637 241.185 241.495 245.188 241.158C249.19 240.82 253.086 241.34 256.95 242.745C258.225 243.208 259.439 243.753 260.662 244.37C261.885 244.987 263.046 245.685 264.25 246.433L266.657 244.792C269.163 243.083 270.31 241.673 270.17 240.553C269.991 239.42 268.46 238.346 265.572 237.296C264.26 236.819 262.778 236.418 261.094 236.116C259.409 235.813 257.695 235.57 255.921 235.407C255.09 235.347 254.508 235.273 254.179 235.222C253.851 235.172 253.63 235.126 253.48 235.071C252.956 234.88 253.023 234.56 253.715 234.088L255.331 232.986C255.858 232.626 256.329 232.384 256.748 232.294C257.166 232.205 257.735 232.171 258.491 232.204C260.397 232.277 262.467 232.512 264.7 232.911C266.967 233.287 269.115 233.861 271.178 234.611ZM291.505 242.828C292.217 243.087 292.606 243.332 292.638 243.585C292.74 243.829 292.503 244.226 292.101 244.735L276.574 261.911L304.255 249.153C305.102 248.772 305.755 248.561 306.253 248.535C306.751 248.51 307.408 248.61 308.084 248.856L311.084 249.947C311.796 250.206 312.185 250.451 312.254 250.717C312.357 250.961 312.158 251.372 311.681 251.854L295.515 269.073L324.096 256.367C324.981 255.999 325.673 255.803 326.133 255.763C326.631 255.737 327.251 255.825 327.926 256.07L331.414 257.338C332.014 257.556 332.087 257.859 331.527 258.241C331.362 258.354 331.159 258.453 330.924 258.574C330.689 258.695 330.35 258.848 329.837 259.041L295.308 273.135C294.424 273.503 293.733 273.7 293.236 273.726C292.738 273.751 292.118 273.664 291.48 273.432L288.254 272.26C287.542 272 287.153 271.755 287.084 271.489C287.015 271.222 287.181 270.835 287.69 270.331L303.145 253.714L276.132 266.094C275.285 266.476 274.632 266.687 274.101 266.735C273.57 266.783 272.946 266.659 272.271 266.414L269.045 265.241C268.37 264.996 268.018 264.765 267.949 264.498C267.847 264.254 268.046 263.844 268.448 263.335L285.123 242.749C285.557 242.218 285.873 241.884 286.104 241.727C286.632 241.367 287.229 241.274 287.829 241.492L291.505 242.828ZM254.414 245.925C251.901 245.011 249.634 244.636 247.506 244.793C245.378 244.95 243.524 245.586 241.876 246.71C240.326 247.767 239.622 248.717 239.768 249.598C239.844 250.487 240.761 251.234 242.487 251.862C243.724 252.312 245.197 252.641 246.943 252.862C248.689 253.083 250.615 253.024 252.617 252.718C253.843 252.509 254.986 252.201 256.003 251.743C257.019 251.285 258.126 250.688 259.247 249.923L260.632 248.979C259.775 248.426 258.81 247.868 257.741 247.342C256.673 246.816 255.577 246.348 254.414 245.925Z" fill="white"></path><path fill-rule="evenodd" clip-rule="evenodd" d="M212.384 255.604C212.145 254.552 214.447 254.08 215.11 255.079C222.902 266.392 237.606 276.875 257.898 284.253C271.589 289.23 289.136 292.99 308.121 294.515C311.008 294.703 310.759 296.715 307.415 296.878C287.062 297.855 264.879 294.237 249.463 288.632C227.858 280.777 215.415 268.91 212.384 255.604ZM304.864 288.575C316.268 288.171 326.605 293.239 326.505 294.72C326.37 296.223 314.456 302.543 302.975 303.47C301.204 303.619 300.624 302.995 302.062 302.484C306.827 300.804 317.519 297.003 317.692 295.239C317.897 293.452 308.123 290.863 303.68 289.696C302.348 289.349 303.084 288.652 304.864 288.575Z" fill="#FF9900"></path><rect x="0.311408" y="2.36538" width="89.6822" height="64.9695" rx="9.5" transform="matrix(0.93358 0.358368 -0.809017 0.587785 709.852 226.863)" fill="url(#paint10_linear_1485_5829)" stroke="#C19E35" stroke-width="5"></rect><path d="M708.441 277.456C708.136 276.651 707.705 275.878 707.199 275.132C706.69 274.385 706.108 273.665 705.488 272.962C704.869 272.258 704.212 271.571 703.552 270.887C704.367 270.683 705.716 269.957 706.707 268.784C706.832 268.637 706.952 268.485 707.064 268.324C707.176 268.164 707.28 267.998 707.38 267.826C707.478 267.655 707.568 267.476 707.648 267.292C707.729 267.108 707.804 266.921 707.866 266.726C708.119 265.951 708.212 265.096 708.156 264.217C707.024 264.671 706.08 265.142 705.307 265.621C704.925 265.861 704.583 266.103 704.281 266.344C704.131 266.464 703.989 266.584 703.857 266.705C703.728 266.825 703.607 266.944 703.494 267.063C703.383 267.182 703.279 267.3 703.185 267.417C703.138 267.476 703.092 267.534 703.05 267.592C703.007 267.649 702.968 267.707 702.929 267.765C702.777 267.993 702.652 268.217 702.558 268.432C702.465 268.647 702.401 268.853 702.357 269.05C702.313 269.246 702.296 269.431 702.295 269.603C701.868 269.167 701.455 268.725 701.05 268.282L700.753 267.948L700.605 267.781L700.462 267.611L700.176 267.274L699.903 266.932C700.272 266.858 700.778 266.669 701.325 266.375C701.462 266.302 701.6 266.223 701.742 266.136C701.883 266.05 702.026 265.958 702.17 265.86C702.456 265.663 702.744 265.443 703.018 265.201C703.296 264.96 703.571 264.697 703.822 264.416C703.885 264.346 703.948 264.276 704.014 264.203C704.077 264.131 704.139 264.058 704.2 263.984C704.322 263.836 704.431 263.683 704.55 263.528C704.667 263.372 704.772 263.214 704.874 263.053C704.984 262.892 705.084 262.729 705.175 262.563C705.195 262.522 705.223 262.48 705.248 262.439C705.273 262.398 705.297 262.356 705.32 262.314C705.367 262.231 705.41 262.147 705.451 262.063L705.466 262.031L705.484 262C705.494 261.979 705.507 261.958 705.519 261.936C705.541 261.894 705.563 261.852 705.585 261.809C705.629 261.725 705.665 261.638 705.703 261.554C704.574 261.825 703.606 262.13 702.773 262.468C702.566 262.552 702.363 262.639 702.178 262.726C701.991 262.814 701.815 262.903 701.647 262.993C701.309 263.174 701.004 263.362 700.734 263.551C700.21 263.929 699.803 264.32 699.537 264.691C699.255 265.064 699.113 265.416 699.034 265.73L698.801 265.357C698.762 265.294 698.72 265.233 698.687 265.17L698.582 264.98L698.477 264.79C698.442 264.727 698.406 264.664 698.376 264.601L698.191 264.216L698.144 264.12L698.105 264.022L698.026 263.826C697.975 263.696 697.917 263.567 697.878 263.435L697.75 263.038C697.713 262.905 697.682 262.772 697.647 262.638C697.978 262.623 698.473 262.519 699.05 262.33C699.34 262.236 699.653 262.121 699.976 261.986C700.3 261.851 700.626 261.699 700.973 261.528C701.317 261.356 701.654 261.169 702.004 260.964C702.09 260.913 702.178 260.861 702.262 260.808C702.347 260.755 702.431 260.702 702.518 260.647C702.692 260.536 702.863 260.422 703.028 260.306C703.709 259.836 704.358 259.307 704.978 258.705C704.449 258.74 703.948 258.788 703.471 258.852C702.998 258.914 702.552 258.991 702.132 259.079C701.285 259.257 700.559 259.485 699.93 259.746C699.622 259.876 699.337 260.013 699.076 260.155C698.944 260.227 698.828 260.298 698.713 260.371C698.6 260.444 698.491 260.518 698.388 260.592C698.337 260.629 698.286 260.666 698.237 260.702C698.191 260.74 698.145 260.776 698.103 260.813C698.015 260.887 697.934 260.96 697.859 261.033C697.821 261.069 697.784 261.106 697.75 261.142C697.714 261.178 697.68 261.214 697.652 261.25C697.59 261.32 697.536 261.389 697.485 261.458C697.417 260.222 697.667 258.947 698.204 257.68C698.46 257.731 698.902 257.732 699.461 257.668C699.6 257.652 699.748 257.632 699.901 257.608C700.055 257.584 700.216 257.556 700.384 257.523C700.717 257.458 701.072 257.378 701.437 257.28C701.806 257.183 702.195 257.068 702.582 256.936C702.778 256.871 702.981 256.801 703.179 256.726C703.28 256.689 703.379 256.65 703.477 256.611C703.578 256.571 703.682 256.532 703.783 256.491C704.593 256.159 705.418 255.76 706.25 255.282C705.8 255.229 705.363 255.195 704.941 255.178C704.523 255.161 704.117 255.162 703.729 255.178C703.534 255.186 703.342 255.198 703.155 255.214C703.061 255.221 702.968 255.23 702.877 255.24C702.785 255.25 702.697 255.261 702.607 255.272C702.252 255.318 701.912 255.378 701.589 255.448C701.426 255.483 701.273 255.521 701.122 255.562C700.971 255.603 700.826 255.646 700.683 255.691C700.542 255.735 700.403 255.782 700.273 255.831C700.143 255.879 700.018 255.93 699.898 255.981C699.412 256.187 699.026 256.411 698.716 256.625C699.358 255.464 700.238 254.318 701.331 253.223C701.493 253.306 701.825 253.374 702.281 253.402C702.508 253.417 702.767 253.422 703.049 253.414C703.333 253.407 703.646 253.39 703.975 253.358C704.14 253.341 704.309 253.322 704.482 253.3C704.657 253.277 704.838 253.252 705.02 253.222C705.203 253.192 705.389 253.159 705.577 253.121C705.768 253.084 705.963 253.044 706.159 252.999C706.945 252.82 707.772 252.578 708.644 252.264C707.988 252.053 707.345 251.913 706.721 251.836C706.564 251.817 706.41 251.801 706.256 251.79C706.103 251.779 705.954 251.771 705.805 251.767C705.507 251.76 705.216 251.766 704.932 251.784C704.79 251.791 704.654 251.805 704.519 251.819C704.385 251.835 704.252 251.852 704.121 251.871C703.992 251.891 703.864 251.914 703.741 251.937C703.617 251.961 703.501 251.989 703.384 252.016C703.152 252.073 702.935 252.136 702.733 252.202C702.534 252.269 702.352 252.34 702.188 252.41C703.398 251.334 704.821 250.316 706.432 249.398C706.506 249.493 706.715 249.602 707.044 249.698C707.374 249.794 707.82 249.877 708.353 249.921C708.42 249.926 708.487 249.932 708.557 249.935C708.627 249.94 708.698 249.944 708.771 249.948C708.917 249.954 709.066 249.959 709.221 249.961C709.377 249.962 709.533 249.96 709.698 249.955C709.865 249.953 710.035 249.945 710.208 249.935C710.383 249.925 710.558 249.909 710.744 249.894C710.929 249.878 711.118 249.857 711.309 249.832C711.405 249.82 711.502 249.806 711.601 249.794C711.702 249.78 711.801 249.765 711.902 249.749C712.003 249.733 712.103 249.715 712.209 249.697C712.314 249.68 712.418 249.662 712.526 249.641C712.315 249.502 712.102 249.379 711.88 249.272C711.661 249.165 711.434 249.072 711.208 248.997C710.981 248.921 710.752 248.86 710.522 248.81C710.406 248.786 710.29 248.765 710.175 248.747C710.117 248.738 710.059 248.729 710.001 248.722C709.945 248.715 709.887 248.709 709.83 248.703C709.604 248.68 709.378 248.669 709.157 248.666C709.048 248.665 708.937 248.666 708.83 248.67C708.725 248.675 708.621 248.681 708.517 248.689C708.314 248.706 708.117 248.729 707.93 248.757C707.746 248.786 707.576 248.823 707.419 248.861C708.854 248.109 710.424 247.442 712.067 246.856C712.075 246.946 712.182 247.068 712.392 247.195C712.602 247.322 712.914 247.453 713.317 247.562C713.417 247.589 713.525 247.614 713.635 247.637C713.747 247.661 713.865 247.685 713.991 247.706C714.115 247.727 714.244 247.745 714.378 247.762C714.511 247.778 714.651 247.79 714.8 247.803C714.946 247.816 715.098 247.825 715.256 247.83C715.334 247.833 715.415 247.835 715.494 247.836C715.575 247.838 715.659 247.84 715.744 247.84C715.912 247.841 716.089 247.838 716.268 247.831C716.449 247.825 716.637 247.818 716.83 247.803C716.591 247.511 716.306 247.276 715.989 247.09C715.831 246.996 715.667 246.919 715.498 246.851C715.329 246.783 715.156 246.727 714.978 246.68C714.89 246.657 714.801 246.636 714.713 246.618C714.626 246.6 714.537 246.585 714.449 246.573C714.273 246.548 714.099 246.53 713.928 246.519C713.844 246.515 713.757 246.51 713.676 246.51C713.596 246.509 713.515 246.51 713.437 246.513C713.281 246.518 713.132 246.527 712.995 246.542L713.611 246.344L714.233 246.156L714.389 246.109L714.547 246.065L714.862 245.975L715.177 245.886L715.496 245.802L715.815 245.719L715.974 245.677C716.027 245.663 716.08 245.651 716.135 245.637L716.778 245.481C717.208 245.383 717.64 245.283 718.077 245.196C718.037 245.267 718.066 245.384 718.177 245.519C718.289 245.653 718.483 245.803 718.764 245.945C718.903 246.018 719.067 246.088 719.253 246.152C719.346 246.185 719.444 246.215 719.547 246.243C719.651 246.272 719.762 246.303 719.877 246.329C719.992 246.356 720.114 246.381 720.242 246.403C720.305 246.414 720.372 246.423 720.438 246.434C720.504 246.445 720.573 246.456 720.642 246.465C720.782 246.484 720.929 246.5 721.082 246.512C721.158 246.518 721.236 246.525 721.316 246.531C721.396 246.537 721.477 246.542 721.56 246.546C721.46 246.261 721.301 246.021 721.101 245.824C720.901 245.63 720.66 245.478 720.399 245.362C720.334 245.332 720.268 245.306 720.202 245.28C720.135 245.256 720.068 245.234 720 245.214C719.864 245.175 719.726 245.142 719.592 245.117C719.32 245.065 719.059 245.047 718.832 245.046L719.138 244.988L719.292 244.958L719.446 244.932L720.062 244.826C720.269 244.792 720.474 244.762 720.681 244.73C720.784 244.714 720.887 244.697 720.99 244.683L721.299 244.641L721.608 244.598L721.764 244.577C721.816 244.571 721.868 244.564 721.919 244.558L722.54 244.485C722.645 244.471 722.747 244.462 722.851 244.451L723.161 244.42L723.472 244.388L723.783 244.362C723.645 244.456 723.674 244.76 724.027 245.072C724.203 245.226 724.455 245.392 724.801 245.532C724.845 245.549 724.889 245.566 724.935 245.584C724.981 245.601 725.028 245.619 725.078 245.636C725.177 245.669 725.281 245.702 725.392 245.733C725.615 245.791 725.861 245.851 726.137 245.897C726.143 245.628 726.083 245.399 725.971 245.204C725.915 245.107 725.85 245.016 725.771 244.938C725.695 244.86 725.607 244.79 725.514 244.726C725.142 244.472 724.667 244.356 724.306 244.319C725.317 244.245 726.326 244.204 727.325 244.196C727.33 244.228 727.366 244.266 727.431 244.307C727.465 244.328 727.504 244.348 727.552 244.37C727.598 244.39 727.651 244.414 727.712 244.435C727.953 244.523 728.298 244.601 728.732 244.659C728.84 244.672 728.956 244.684 729.075 244.692C729.196 244.703 729.32 244.712 729.45 244.717C729.581 244.722 729.719 244.724 729.862 244.724C730.003 244.726 730.152 244.723 730.306 244.718C730.926 244.691 731.633 244.625 732.471 244.476C731.953 244.164 731.36 243.958 730.774 243.851C730.626 243.823 730.482 243.8 730.338 243.781C730.194 243.764 730.051 243.753 729.911 243.745C729.772 243.736 729.635 243.731 729.502 243.73C729.368 243.73 729.238 243.734 729.114 243.74C728.616 243.762 728.187 243.84 727.882 243.921C727.729 243.96 727.605 244.006 727.512 244.047C727.421 244.089 727.363 244.127 727.341 244.16C726.336 244.16 725.32 244.193 724.299 244.262C724.672 244.183 725.192 244.001 725.706 243.715C725.835 243.642 725.963 243.562 726.086 243.475C726.211 243.386 726.331 243.295 726.447 243.191C726.677 242.986 726.884 242.748 727.038 242.473C726.652 242.537 726.308 242.608 726.001 242.693C725.847 242.736 725.702 242.779 725.569 242.823C725.502 242.846 725.435 242.868 725.372 242.89C725.309 242.914 725.248 242.938 725.19 242.962C724.719 243.155 724.388 243.352 724.162 243.543C723.936 243.732 723.813 243.904 723.763 244.037C723.713 244.17 723.732 244.264 723.797 244.298L723.482 244.321L723.167 244.349L722.854 244.378C722.749 244.389 722.644 244.396 722.54 244.409L721.911 244.478C721.807 244.489 721.702 244.502 721.597 244.516L721.282 244.556L720.967 244.596C720.861 244.61 720.758 244.626 720.654 244.641C720.444 244.672 720.235 244.701 720.026 244.734L719.4 244.836C719.347 244.845 719.296 244.852 719.243 244.861L719.086 244.89L718.774 244.945C718.98 244.868 719.212 244.755 719.453 244.623C719.573 244.556 719.695 244.48 719.815 244.398C719.876 244.357 719.936 244.313 719.994 244.267C720.054 244.224 720.113 244.178 720.171 244.129C720.404 243.939 720.621 243.717 720.8 243.465C720.98 243.216 721.119 242.936 721.185 242.625C721.08 242.654 720.975 242.684 720.874 242.713C720.823 242.729 720.774 242.743 720.726 242.758C720.679 242.773 720.631 242.79 720.582 242.806C720.392 242.869 720.217 242.934 720.052 242.998C719.969 243.03 719.891 243.063 719.814 243.096C719.737 243.128 719.665 243.163 719.594 243.197C719.451 243.264 719.322 243.33 719.202 243.397C719.082 243.465 718.972 243.528 718.872 243.596C718.772 243.663 718.682 243.729 718.6 243.793C718.438 243.923 718.31 244.047 718.21 244.164C718.013 244.401 717.932 244.609 717.919 244.768C717.906 244.927 717.961 245.038 718.044 245.081C717.599 245.166 717.161 245.263 716.72 245.36L716.063 245.514C715.954 245.539 715.845 245.567 715.735 245.594L715.409 245.676C715.301 245.704 715.192 245.731 715.083 245.759L714.761 245.847C714.546 245.906 714.33 245.961 714.118 246.025C713.905 246.087 713.692 246.149 713.478 246.212L712.846 246.409C712.949 246.348 713.054 246.278 713.161 246.201C713.269 246.123 713.376 246.035 713.484 245.944C713.593 245.853 713.699 245.752 713.8 245.645C713.852 245.591 713.901 245.535 713.949 245.477C713.996 245.42 714.045 245.361 714.089 245.302C714.18 245.181 714.263 245.053 714.334 244.918C714.406 244.783 714.466 244.64 714.515 244.494C714.61 244.2 714.647 243.879 714.591 243.535C714.363 243.631 714.147 243.725 713.95 243.82C713.753 243.917 713.571 244.013 713.403 244.108C713.319 244.156 713.238 244.201 713.161 244.249C713.084 244.296 713.012 244.344 712.942 244.391C712.803 244.486 712.676 244.578 712.562 244.668C712.446 244.757 712.348 244.848 712.257 244.935C712.168 245.023 712.089 245.108 712.02 245.191C711.952 245.273 711.893 245.352 711.844 245.431C711.795 245.509 711.755 245.584 711.724 245.656C711.596 245.945 711.593 246.183 711.65 246.362C711.708 246.542 711.823 246.66 711.941 246.706C711.093 246.998 710.265 247.313 709.461 247.649L709.161 247.776L709.01 247.84C708.96 247.861 708.91 247.883 708.862 247.905L708.274 248.169C707.888 248.351 707.503 248.532 707.132 248.725C707.218 248.639 707.303 248.544 707.386 248.44C707.472 248.338 707.554 248.227 707.63 248.108C707.78 247.868 707.917 247.606 708.003 247.313C708.046 247.165 708.081 247.016 708.099 246.859C708.118 246.702 708.12 246.539 708.103 246.371C708.085 246.203 708.05 246.033 707.991 245.858C707.93 245.684 707.846 245.505 707.73 245.324C707.614 245.394 707.501 245.464 707.395 245.534C707.288 245.603 707.188 245.674 707.092 245.742C706.996 245.812 706.903 245.879 706.815 245.947C706.726 246.014 706.643 246.079 706.566 246.147C706.412 246.281 706.272 246.41 706.149 246.535C706.117 246.567 706.088 246.598 706.059 246.629C706.03 246.66 706.004 246.692 705.978 246.722C705.924 246.784 705.876 246.844 705.83 246.903C705.739 247.022 705.662 247.136 705.596 247.246C705.534 247.357 705.484 247.464 705.445 247.567C705.366 247.771 705.329 247.955 705.331 248.124C705.331 248.46 705.457 248.719 705.621 248.905C705.787 249.091 705.992 249.203 706.161 249.238C704.481 250.169 702.987 251.208 701.715 252.312C701.761 252.203 701.798 252.085 701.825 251.959C701.857 251.834 701.881 251.702 701.891 251.561C701.898 251.491 701.899 251.419 701.898 251.346C701.9 251.272 701.897 251.199 701.893 251.123C701.882 250.971 701.853 250.813 701.813 250.652C701.774 250.491 701.718 250.325 701.638 250.156C701.599 250.072 701.555 249.987 701.504 249.9C701.456 249.815 701.403 249.729 701.34 249.643C701.097 249.299 700.752 248.949 700.264 248.613C699.478 249.407 699.104 250.106 698.967 250.684C698.934 250.829 698.91 250.965 698.905 251.095C698.902 251.226 698.909 251.349 698.926 251.465C698.934 251.523 698.946 251.578 698.959 251.633C698.973 251.687 698.989 251.739 699.009 251.791C699.047 251.893 699.093 251.989 699.146 252.077C699.252 252.254 699.38 252.405 699.528 252.533C699.675 252.66 699.833 252.764 699.992 252.846C700.309 253.01 700.625 253.089 700.855 253.096C699.692 254.222 698.75 255.404 698.055 256.609C698.044 256.547 698.034 256.483 698.021 256.417C698.007 256.351 697.987 256.284 697.965 256.215C697.943 256.145 697.915 256.073 697.885 256.001C697.859 255.929 697.826 255.855 697.788 255.779C697.716 255.628 697.62 255.473 697.517 255.314C697.413 255.155 697.281 254.993 697.136 254.829C696.992 254.666 696.824 254.5 696.629 254.335C696.58 254.293 696.53 254.252 696.477 254.211C696.426 254.17 696.373 254.129 696.32 254.089C696.211 254.007 696.097 253.926 695.972 253.846C695.724 253.686 695.446 253.528 695.134 253.377C694.824 253.226 694.481 253.082 694.094 252.95C693.62 253.956 693.585 254.783 693.773 255.432C693.796 255.514 693.818 255.592 693.852 255.667C693.883 255.743 693.917 255.817 693.953 255.888C694.027 256.029 694.106 256.159 694.199 256.281C694.294 256.403 694.395 256.513 694.502 256.616C694.556 256.667 694.611 256.716 694.667 256.762C694.695 256.786 694.723 256.808 694.751 256.831C694.781 256.854 694.81 256.875 694.841 256.896C695.321 257.234 695.845 257.436 696.333 257.548C696.817 257.66 697.245 257.681 697.527 257.644C696.928 258.962 696.632 260.295 696.67 261.595C696.239 261.128 695.524 260.569 694.452 260.042C694.184 259.91 693.896 259.78 693.574 259.656C693.251 259.533 692.911 259.414 692.536 259.303C692.162 259.193 691.757 259.091 691.317 259.002C690.883 258.914 690.413 258.838 689.905 258.781C689.912 258.85 689.917 258.919 689.924 258.986C689.932 259.052 689.945 259.12 689.957 259.185C689.98 259.316 690.01 259.442 690.043 259.565C690.075 259.688 690.12 259.806 690.163 259.921C690.208 260.036 690.251 260.147 690.307 260.254C690.361 260.36 690.42 260.464 690.481 260.563C690.541 260.662 690.599 260.758 690.672 260.85C690.811 261.032 690.954 261.202 691.113 261.356C691.273 261.51 691.441 261.65 691.611 261.777C691.695 261.841 691.788 261.902 691.878 261.958C691.968 262.016 692.059 262.07 692.151 262.121C692.243 262.172 692.335 262.221 692.426 262.266C692.518 262.311 692.616 262.353 692.71 262.394C692.899 262.473 693.089 262.542 693.277 262.601C693.371 262.631 693.463 262.658 693.556 262.684C693.651 262.709 693.744 262.731 693.837 262.752C694.025 262.794 694.206 262.826 694.385 262.852C694.742 262.904 695.077 262.928 695.383 262.931C696.002 262.936 696.502 262.864 696.799 262.769C696.831 262.911 696.858 263.053 696.893 263.194L697.016 263.613C697.053 263.753 697.109 263.89 697.159 264.028L697.236 264.234C697.25 264.269 697.261 264.303 697.276 264.337L697.322 264.438L697.503 264.844C697.566 264.979 697.639 265.111 697.708 265.244L697.813 265.444L697.927 265.64L698.043 265.837L698.101 265.934L698.131 265.983L698.161 266.032C697.402 265.646 696.255 265.243 694.725 264.943C694.628 264.925 694.531 264.907 694.434 264.888C694.338 264.87 694.237 264.853 694.136 264.836C693.934 264.802 693.722 264.77 693.506 264.741C693.289 264.711 693.066 264.685 692.834 264.663C692.718 264.652 692.602 264.641 692.485 264.629C692.368 264.619 692.249 264.608 692.128 264.599C691.16 264.527 690.073 264.513 688.87 264.595C688.972 264.733 689.081 264.864 689.188 264.991C689.244 265.055 689.298 265.118 689.353 265.178C689.409 265.239 689.461 265.299 689.521 265.356C689.639 265.469 689.76 265.578 689.88 265.683C689.94 265.735 690.001 265.786 690.062 265.837C690.122 265.887 690.182 265.937 690.247 265.982C690.503 266.168 690.759 266.336 691.017 266.489C691.283 266.636 691.55 266.767 691.814 266.886C691.88 266.915 691.947 266.944 692.012 266.972C692.079 266.999 692.148 267.024 692.215 267.05C692.349 267.1 692.483 267.147 692.616 267.191C692.748 267.234 692.881 267.275 693.013 267.313C693.143 267.351 693.275 267.386 693.407 267.416C693.668 267.477 693.927 267.527 694.18 267.569C694.305 267.59 694.432 267.608 694.554 267.624C694.616 267.632 694.677 267.64 694.738 267.647C694.799 267.653 694.861 267.659 694.921 267.665C695.407 267.708 695.865 267.72 696.288 267.71C696.5 267.704 696.702 267.693 696.897 267.678C697.092 267.661 697.277 267.641 697.452 267.617C698.151 267.519 698.679 267.368 698.976 267.222L699.248 267.582L699.533 267.937L699.676 268.113L699.824 268.289L700.121 268.64C700.525 269.104 700.938 269.564 701.362 270.019C700.403 269.672 698.998 269.365 697.189 269.264C696.962 269.251 696.729 269.243 696.489 269.236C696.25 269.231 696.006 269.228 695.753 269.229C695.249 269.232 694.72 269.252 694.167 269.292C693.062 269.369 691.853 269.523 690.551 269.796C690.88 270.017 691.207 270.225 691.542 270.4C691.708 270.49 691.874 270.575 692.04 270.657C692.206 270.736 692.372 270.81 692.538 270.881C692.703 270.952 692.868 271.019 693.034 271.083C693.198 271.145 693.363 271.202 693.526 271.256C693.689 271.31 693.851 271.362 694.013 271.41C694.176 271.458 694.336 271.499 694.495 271.539C694.815 271.619 695.129 271.69 695.44 271.745C695.75 271.801 696.054 271.846 696.352 271.882C696.652 271.919 696.942 271.943 697.229 271.962C697.514 271.98 697.792 271.99 698.063 271.992C700.224 272.01 701.887 271.603 702.526 271.258C703.18 271.943 703.829 272.627 704.436 273.323C705.043 274.018 705.61 274.725 706.102 275.452C706.591 276.18 707.002 276.928 707.289 277.7C707.578 278.471 707.744 279.267 707.754 280.08L708.947 279.953C708.931 279.096 708.752 278.26 708.447 277.457L708.441 277.456Z" fill="#D4AF37"></path><path d="M749.911 274.411C749.547 274.302 749.183 274.212 748.822 274.137C748.643 274.1 748.462 274.067 748.286 274.037C748.198 274.022 748.109 274.008 748.02 273.996C747.932 273.983 747.843 273.97 747.755 273.958C747.402 273.911 747.058 273.876 746.721 273.853C746.555 273.843 746.388 273.831 746.223 273.824C746.059 273.817 745.897 273.811 745.74 273.809C745.581 273.806 745.427 273.806 745.276 273.806C745.121 273.806 744.972 273.808 744.826 273.812C744.244 273.831 743.708 273.869 743.252 273.927C745.181 273.211 746.994 272.382 748.645 271.46C748.74 271.574 748.988 271.707 749.388 271.812C749.588 271.866 749.825 271.912 750.102 271.944C750.379 271.976 750.689 271.992 751.041 271.99C751.218 271.988 751.404 271.981 751.599 271.969C751.795 271.956 751.997 271.934 752.209 271.907C752.421 271.879 752.645 271.845 752.877 271.802C753.107 271.759 753.346 271.705 753.595 271.644C754.586 271.396 755.717 270.995 756.894 270.361C756.15 270.222 755.422 270.156 754.735 270.139C754.565 270.134 754.395 270.133 754.23 270.135C754.061 270.135 753.896 270.139 753.734 270.145C753.41 270.157 753.097 270.177 752.797 270.206C752.649 270.22 752.499 270.235 752.354 270.252C752.209 270.269 752.068 270.287 751.93 270.307C751.792 270.327 751.659 270.348 751.528 270.37C751.399 270.393 751.269 270.414 751.144 270.439C750.896 270.486 750.665 270.538 750.449 270.591C750.231 270.644 750.029 270.697 749.844 270.753C751.419 269.78 752.812 268.719 753.96 267.597C754.084 267.669 754.355 267.735 754.744 267.758C755.131 267.781 755.638 267.761 756.243 267.655C756.318 267.641 756.397 267.627 756.475 267.612C756.552 267.595 756.631 267.577 756.71 267.558C756.87 267.52 757.036 267.475 757.206 267.424C757.377 267.372 757.554 267.313 757.733 267.247C757.91 267.18 758.091 267.106 758.274 267.024C758.457 266.942 758.65 266.851 758.833 266.751C759.018 266.651 759.207 266.542 759.4 266.423C759.496 266.364 759.587 266.302 759.68 266.237C759.773 266.173 759.867 266.106 759.96 266.037C760.052 265.968 760.149 265.897 760.239 265.823C760.329 265.748 760.419 265.671 760.51 265.591C760.153 265.589 759.811 265.601 759.483 265.625C759.153 265.648 758.841 265.682 758.536 265.724C758.232 265.766 757.942 265.817 757.669 265.873C757.53 265.901 757.399 265.931 757.268 265.962C757.204 265.978 757.14 265.992 757.077 266.009C757.012 266.025 756.949 266.041 756.889 266.057C756.64 266.123 756.408 266.191 756.191 266.263C756.082 266.3 755.978 266.336 755.876 266.372C755.773 266.408 755.674 266.445 755.578 266.482C755.388 266.556 755.212 266.631 755.055 266.704C754.895 266.777 754.748 266.849 754.618 266.918C755.519 265.942 756.215 264.928 756.743 263.906C756.869 263.948 757.123 263.968 757.465 263.939C757.806 263.91 758.234 263.832 758.713 263.678C758.832 263.64 758.956 263.596 759.08 263.548C759.205 263.499 759.329 263.445 759.454 263.385C759.58 263.325 759.708 263.259 759.837 263.187C759.966 263.115 760.099 263.036 760.222 262.952C760.348 262.867 760.474 262.775 760.6 262.677C760.663 262.628 760.724 262.577 760.787 262.524C760.848 262.472 760.907 262.416 760.965 262.361C761.083 262.248 761.198 262.128 761.311 262C761.421 261.872 761.521 261.737 761.622 261.593C760.993 261.669 760.433 261.785 759.938 261.921C759.692 261.989 759.454 262.064 759.235 262.139C759.016 262.216 758.812 262.296 758.624 262.378C758.53 262.418 758.44 262.459 758.353 262.501C758.264 262.542 758.18 262.584 758.098 262.625C757.936 262.708 757.787 262.792 757.655 262.873C757.587 262.914 757.527 262.955 757.465 262.995C757.403 263.035 757.347 263.074 757.292 263.112C757.185 263.19 757.09 263.264 757.01 263.335L757.167 262.96L757.304 262.584L757.338 262.49L757.367 262.397L757.425 262.209L757.483 262.021L757.531 261.833L757.579 261.645L757.602 261.551C757.61 261.519 757.615 261.489 757.621 261.457L757.693 261.083C757.728 260.834 757.768 260.585 757.782 260.338C757.893 260.364 758.112 260.354 758.394 260.297C758.676 260.24 759.026 260.133 759.389 259.961C759.569 259.874 759.751 259.772 759.932 259.65C760.023 259.589 760.113 259.523 760.202 259.453C760.291 259.383 760.374 259.307 760.455 259.227C760.537 259.146 760.616 259.061 760.693 258.968C760.732 258.922 760.769 258.876 760.806 258.827C760.84 258.78 760.874 258.73 760.907 258.679C760.971 258.577 761.033 258.469 761.089 258.356C761.118 258.298 761.142 258.241 761.164 258.181C761.187 258.122 761.207 258.061 761.227 257.999C760.692 258.128 760.236 258.282 759.844 258.447C759.449 258.612 759.119 258.788 758.846 258.962C758.778 259.005 758.713 259.048 758.653 259.092C758.591 259.135 758.531 259.179 758.475 259.221C758.365 259.306 758.265 259.39 758.181 259.471C758.014 259.632 757.884 259.782 757.804 259.911L757.808 259.738L757.81 259.652L757.807 259.565L757.796 259.222C757.79 259.108 757.777 258.994 757.767 258.88C757.762 258.823 757.758 258.766 757.751 258.709L757.726 258.54L757.701 258.371L757.688 258.286C757.684 258.258 757.678 258.23 757.672 258.203L757.602 257.867C757.592 257.811 757.574 257.756 757.561 257.701L757.515 257.535L757.469 257.369L757.415 257.205C757.583 257.244 758.129 257.123 758.664 256.781C758.936 256.608 759.187 256.381 759.387 256.086C759.413 256.049 759.437 256.011 759.458 255.972C759.479 255.934 759.5 255.894 759.518 255.853C759.555 255.772 759.589 255.686 759.617 255.597C759.677 255.417 759.698 255.223 759.693 255.011C759.25 255.172 758.888 255.347 758.592 255.525C758.442 255.614 758.313 255.703 758.195 255.792C758.075 255.881 757.972 255.969 757.88 256.056C757.523 256.399 757.351 256.716 757.321 256.928C757.128 256.398 756.876 255.879 756.567 255.378C756.618 255.355 756.67 255.313 756.717 255.252C756.74 255.222 756.762 255.189 756.78 255.151C756.799 255.113 756.815 255.071 756.827 255.026C756.875 254.847 756.881 254.609 756.766 254.353C756.737 254.288 756.704 254.222 756.664 254.156C756.62 254.089 756.568 254.023 756.51 253.956C756.451 253.888 756.385 253.821 756.311 253.753C756.233 253.687 756.146 253.622 756.053 253.557C755.678 253.297 755.128 253.064 754.409 252.901C754.4 253.369 754.498 253.746 754.645 254.067C754.682 254.146 754.726 254.221 754.771 254.292C754.813 254.365 754.861 254.432 754.912 254.497C754.963 254.562 755.017 254.621 755.074 254.678C755.127 254.737 755.184 254.79 755.242 254.84C755.482 255.039 755.729 255.19 755.963 255.281C756.082 255.326 756.186 255.361 756.279 255.38C756.372 255.4 756.451 255.404 756.511 255.395C756.808 255.903 757.046 256.425 757.226 256.96C757.052 256.79 756.7 256.584 756.125 256.473C755.983 256.445 755.827 256.423 755.662 256.407C755.496 256.391 755.311 256.386 755.119 256.387C754.732 256.391 754.296 256.431 753.809 256.519C753.978 256.644 754.163 256.75 754.339 256.844C754.429 256.89 754.519 256.933 754.612 256.972C754.658 256.991 754.704 257.01 754.752 257.029C754.798 257.046 754.842 257.063 754.886 257.08C755.248 257.212 755.626 257.287 755.96 257.327C756.297 257.366 756.604 257.367 756.842 257.343C757.08 257.32 757.247 257.274 757.306 257.225L757.356 257.391L757.394 257.558L757.433 257.726C757.445 257.781 757.461 257.837 757.469 257.893L757.529 258.231C757.54 258.287 757.546 258.344 757.553 258.401L757.572 258.571L757.591 258.741C757.597 258.798 757.599 258.856 757.602 258.912C757.608 259.026 757.619 259.14 757.62 259.256L757.62 259.601C757.619 259.63 757.621 259.658 757.619 259.687L757.614 259.774L757.604 259.947C757.535 259.834 757.427 259.707 757.25 259.585C757.164 259.525 757.064 259.464 756.95 259.408C756.894 259.379 756.833 259.351 756.769 259.325C756.704 259.299 756.635 259.273 756.563 259.249C756.27 259.152 755.92 259.076 755.505 259.034C755.085 258.993 754.603 258.987 754.05 259.026C754.084 259.066 754.117 259.106 754.153 259.145C754.188 259.183 754.225 259.22 754.259 259.258C754.33 259.332 754.404 259.401 754.482 259.466C754.521 259.498 754.561 259.53 754.602 259.559C754.641 259.59 754.679 259.62 754.719 259.648C754.798 259.706 754.881 259.759 754.966 259.809C755.05 259.859 755.139 259.905 755.223 259.949C755.309 259.992 755.394 260.032 755.482 260.069C755.657 260.142 755.835 260.201 756.009 260.249C756.354 260.345 756.685 260.395 756.961 260.408C757.237 260.422 757.455 260.398 757.566 260.355C757.543 260.603 757.497 260.852 757.454 261.101L757.371 261.476C757.358 261.538 757.34 261.6 757.323 261.663L757.271 261.851C757.253 261.913 757.237 261.976 757.217 262.038L757.154 262.225C757.11 262.351 757.075 262.475 757.023 262.6C756.973 262.725 756.925 262.85 756.876 262.974L756.707 263.348C756.692 263.274 756.666 263.196 756.627 263.116C756.588 263.035 756.541 262.952 756.47 262.868C756.4 262.784 756.317 262.7 756.217 262.62C756.167 262.579 756.113 262.539 756.055 262.5C755.996 262.46 755.93 262.421 755.862 262.384C755.724 262.308 755.569 262.236 755.393 262.172C755.219 262.106 755.027 262.047 754.806 261.996C754.371 261.893 753.853 261.82 753.246 261.79C753.28 261.892 753.324 261.99 753.371 262.083C753.414 262.177 753.463 262.267 753.518 262.351C753.545 262.394 753.574 262.435 753.603 262.477C753.63 262.518 753.659 262.558 753.687 262.596C753.747 262.674 753.811 262.748 753.879 262.818C753.95 262.889 754.015 262.954 754.086 263.018C754.157 263.081 754.232 263.141 754.309 263.196C754.386 263.252 754.467 263.305 754.545 263.354C754.622 263.402 754.702 263.448 754.782 263.49C755.104 263.658 755.439 263.774 755.735 263.838C756.028 263.903 756.281 263.916 756.438 263.889C756.162 264.398 755.842 264.903 755.476 265.403L755.336 265.59L755.266 265.683C755.243 265.715 755.219 265.745 755.194 265.776L754.893 266.147C754.68 266.392 754.47 266.636 754.236 266.877C754.258 266.787 754.273 266.689 754.272 266.588C754.269 266.485 754.253 266.378 754.22 266.269C754.162 266.052 754.02 265.823 753.801 265.606C753.692 265.497 753.553 265.39 753.395 265.288C753.235 265.186 753.054 265.087 752.846 264.995C752.639 264.904 752.401 264.817 752.136 264.739C751.872 264.659 751.581 264.588 751.261 264.525C751.258 264.585 751.256 264.645 751.257 264.703C751.258 264.762 751.255 264.819 751.259 264.875C751.261 264.931 751.266 264.987 751.272 265.041C751.278 265.096 751.286 265.15 751.293 265.202C751.308 265.306 751.328 265.408 751.357 265.506C751.373 265.556 751.387 265.603 751.401 265.651C751.415 265.698 751.433 265.744 751.449 265.79C751.485 265.88 751.526 265.969 751.573 266.055C751.615 266.139 751.662 266.22 751.714 266.298C751.815 266.453 751.939 266.596 752.061 266.722C752.308 266.977 752.598 267.175 752.874 267.308C753.15 267.441 753.412 267.508 753.602 267.512C752.432 268.618 751.022 269.659 749.436 270.609C749.516 270.505 749.59 270.392 749.654 270.272C749.715 270.15 749.762 270.02 749.797 269.886C749.813 269.818 749.826 269.75 749.835 269.68C749.841 269.61 749.843 269.538 749.841 269.466C749.834 269.321 749.812 269.175 749.758 269.026C749.704 268.876 749.626 268.726 749.521 268.577C749.469 268.502 749.41 268.428 749.343 268.353C749.275 268.279 749.2 268.204 749.115 268.131C748.783 267.837 748.331 267.553 747.737 267.284C747.439 267.824 747.258 268.319 747.18 268.774C747.16 268.886 747.149 268.998 747.141 269.106C747.132 269.212 747.13 269.317 747.133 269.419C747.134 269.47 747.139 269.52 747.143 269.569C747.149 269.619 747.155 269.667 747.161 269.714C747.173 269.809 747.192 269.9 747.216 269.988C747.262 270.163 747.33 270.327 747.406 270.471C747.483 270.615 747.572 270.742 747.671 270.851C747.867 271.069 748.095 271.21 748.294 271.26C746.636 272.162 744.818 272.967 742.894 273.657C742.969 273.604 743.043 273.545 743.115 273.484C743.188 273.424 743.258 273.361 743.329 273.295C743.397 273.229 743.466 273.162 743.53 273.089C743.594 273.017 743.655 272.943 743.711 272.866C743.825 272.712 743.929 272.552 744.007 272.379C744.085 272.207 744.145 272.03 744.176 271.844C744.207 271.658 744.212 271.467 744.187 271.271C744.182 271.223 744.173 271.173 744.164 271.124C744.152 271.075 744.141 271.024 744.125 270.975C744.097 270.874 744.06 270.772 744.014 270.671C743.923 270.468 743.801 270.261 743.64 270.053C743.477 269.844 743.279 269.631 743.042 269.418C742.431 269.991 741.964 270.534 741.615 271.047C741.571 271.112 741.531 271.177 741.491 271.239C741.45 271.301 741.412 271.364 741.377 271.426C741.303 271.55 741.241 271.674 741.183 271.793C741.125 271.911 741.074 272.028 741.031 272.143C741.009 272.2 740.989 272.258 740.971 272.313C740.955 272.369 740.937 272.425 740.921 272.478C740.797 272.908 740.785 273.295 740.847 273.592C740.91 273.89 741.054 274.108 741.227 274.212C739.078 274.885 736.822 275.411 734.539 275.761C734.973 275.582 735.426 275.34 735.841 275.048C736.049 274.899 736.248 274.74 736.429 274.567C736.61 274.391 736.776 274.204 736.918 274.008C737.061 273.808 737.181 273.596 737.274 273.376C737.367 273.157 737.43 272.923 737.463 272.68C737.496 272.438 737.497 272.187 737.465 271.926C737.431 271.664 737.363 271.392 737.262 271.111C736.358 271.615 735.601 272.109 734.958 272.601C734.796 272.722 734.645 272.843 734.499 272.967C734.427 273.029 734.354 273.087 734.286 273.148C734.217 273.208 734.148 273.268 734.084 273.328C734.018 273.387 733.955 273.448 733.894 273.507C733.832 273.567 733.772 273.624 733.715 273.682C733.598 273.798 733.489 273.913 733.387 274.026C733.337 274.082 733.288 274.139 733.241 274.195C733.195 274.25 733.15 274.304 733.107 274.358C733.02 274.466 732.943 274.571 732.872 274.673C732.732 274.877 732.622 275.07 732.546 275.246C732.39 275.592 732.366 275.869 732.451 276.032C732.195 276.057 731.94 276.084 731.685 276.106L730.916 276.165C730.66 276.187 730.405 276.198 730.149 276.213L729.765 276.234C729.702 276.237 729.637 276.242 729.574 276.243L729.382 276.25L728.618 276.276C728.364 276.283 728.111 276.284 727.855 276.289L727.474 276.295L727.095 276.294L726.716 276.294L726.526 276.294L726.431 276.294L726.336 276.292C727.421 276.039 728.731 275.553 729.79 274.778C729.855 274.731 729.922 274.681 729.985 274.63C730.049 274.579 730.114 274.527 730.176 274.474C730.299 274.367 730.418 274.258 730.533 274.143C730.647 274.029 730.757 273.912 730.859 273.79C730.885 273.759 730.911 273.729 730.936 273.698C730.961 273.666 730.985 273.634 731.009 273.602C731.056 273.538 731.103 273.473 731.148 273.407C731.508 272.88 731.766 272.29 731.906 271.628C731.764 271.673 731.617 271.719 731.479 271.767C731.408 271.791 731.337 271.816 731.268 271.84C731.198 271.864 731.129 271.891 731.058 271.913C730.916 271.96 730.777 272.009 730.64 272.059C730.572 272.084 730.503 272.109 730.437 272.135C730.369 272.161 730.303 272.186 730.233 272.21C729.96 272.309 729.694 272.411 729.436 272.517C729.173 272.617 728.919 272.722 728.674 272.829C728.612 272.856 728.551 272.884 728.49 272.91C728.428 272.937 728.368 272.963 728.308 272.989C728.189 273.042 728.07 273.095 727.955 273.149C727.839 273.204 727.726 273.258 727.615 273.312C727.504 273.368 727.394 273.422 727.289 273.476C727.074 273.584 726.869 273.692 726.675 273.802C726.578 273.856 726.484 273.911 726.389 273.966C726.297 274.022 726.207 274.076 726.119 274.13C725.769 274.345 725.462 274.558 725.197 274.764C725.064 274.866 724.943 274.968 724.834 275.065C724.725 275.163 724.624 275.257 724.536 275.349C724.185 275.714 724.012 276.024 724.007 276.225L723.291 276.193L722.578 276.152L722.222 276.132L721.867 276.109L721.155 276.062C720.211 275.994 719.267 275.92 718.326 275.839C719.565 275.638 721.121 275.216 722.587 274.47C722.77 274.376 722.951 274.279 723.132 274.176C723.311 274.073 723.488 273.963 723.662 273.849C724.01 273.622 724.347 273.374 724.668 273.104C725.307 272.561 725.875 271.932 726.353 271.21C724.731 271.456 723.203 271.771 721.875 272.143C721.54 272.235 721.224 272.333 720.914 272.432C720.604 272.531 720.31 272.632 720.029 272.736C719.75 272.841 719.48 272.946 719.226 273.054C718.973 273.161 718.733 273.269 718.508 273.378C716.699 274.249 715.832 275.159 715.752 275.614C714.316 275.494 712.874 275.377 711.416 275.283C709.958 275.189 708.482 275.117 706.981 275.094C705.481 275.07 703.957 275.093 702.416 275.187C700.875 275.282 699.319 275.449 697.775 275.705L697.914 276.344C699.374 276.099 700.853 275.937 702.328 275.844C703.804 275.751 705.275 275.726 706.731 275.747C708.19 275.768 709.636 275.835 711.074 275.925C712.512 276.016 713.944 276.129 715.377 276.246C714.968 276.695 714.775 277.653 715.489 278.723C715.58 278.856 715.685 278.991 715.807 279.128C715.927 279.264 716.065 279.401 716.223 279.539C716.38 279.676 716.557 279.813 716.753 279.949C716.949 280.086 717.173 280.221 717.414 280.354C717.654 280.488 717.927 280.619 718.222 280.748C718.371 280.813 718.522 280.877 718.683 280.939C718.846 281.001 719.019 281.061 719.195 281.122C719.373 281.182 719.554 281.242 719.749 281.3C719.944 281.357 720.148 281.412 720.358 281.468C720.774 281.58 721.244 281.679 721.736 281.775C721.825 281.05 721.734 280.406 721.539 279.835C721.444 279.547 721.321 279.278 721.175 279.028C721.103 278.903 721.024 278.781 720.943 278.664C720.863 278.547 720.776 278.434 720.688 278.324C720.599 278.215 720.505 278.11 720.407 278.009C720.359 277.959 720.309 277.909 720.258 277.861C720.207 277.812 720.158 277.764 720.108 277.717C719.904 277.53 719.688 277.36 719.463 277.206C719.242 277.05 719.015 276.909 718.786 276.785C718.555 276.66 718.326 276.549 718.099 276.453C719.028 276.523 719.964 276.585 720.905 276.643L721.613 276.683L721.966 276.702L722.321 276.718L723.034 276.751L723.75 276.776C723.588 276.979 723.488 277.295 723.538 277.676C723.552 277.771 723.573 277.871 723.606 277.973C723.64 278.075 723.685 278.18 723.744 278.287C723.859 278.503 724.027 278.727 724.258 278.955C724.492 279.181 724.798 279.407 725.18 279.631C725.274 279.687 725.381 279.74 725.489 279.794C725.598 279.848 725.712 279.902 725.832 279.954C726.074 280.058 726.332 280.164 726.626 280.258C726.919 280.354 727.236 280.446 727.584 280.532C727.935 280.613 728.316 280.69 728.724 280.759C728.826 280.778 728.933 280.791 729.041 280.807C729.149 280.822 729.258 280.836 729.37 280.85C729.594 280.878 729.825 280.904 730.064 280.928C730.094 280.931 730.124 280.934 730.154 280.936C730.184 280.939 730.215 280.941 730.245 280.944C730.307 280.949 730.369 280.952 730.432 280.958C730.558 280.967 730.685 280.975 730.814 280.982C731.075 280.997 731.338 281.011 731.616 281.019C731.397 280.4 731.044 279.866 730.623 279.407C730.52 279.292 730.408 279.184 730.297 279.076C730.186 278.968 730.072 278.865 729.956 278.765C729.722 278.567 729.477 278.386 729.227 278.22C728.234 277.546 727.17 277.094 726.247 276.824L727.013 276.817C727.142 276.816 727.268 276.816 727.396 276.813L727.783 276.804L728.169 276.794C728.298 276.791 728.426 276.788 728.554 276.782L729.328 276.748L729.521 276.74L729.715 276.727L730.104 276.702C730.363 276.686 730.621 276.672 730.882 276.647L731.661 276.58C731.921 276.555 732.182 276.525 732.442 276.497C732.374 276.683 732.408 276.957 732.619 277.266C732.726 277.418 732.875 277.579 733.082 277.74C733.288 277.9 733.553 278.064 733.886 278.212C734.217 278.361 734.621 278.506 735.102 278.621C735.223 278.65 735.348 278.679 735.479 278.706C735.609 278.733 735.746 278.759 735.886 278.781C736.167 278.827 736.47 278.866 736.797 278.898C737.121 278.927 737.469 278.947 737.838 278.96C737.93 278.964 738.024 278.965 738.119 278.966C738.214 278.966 738.31 278.967 738.407 278.967C738.603 278.966 738.805 278.963 739.012 278.958C739.219 278.952 739.43 278.94 739.649 278.927C739.758 278.921 739.87 278.913 739.981 278.905C740.093 278.897 740.207 278.889 740.32 278.877C740.548 278.856 740.782 278.831 741.023 278.803C741.143 278.788 741.265 278.775 741.388 278.759C741.51 278.742 741.634 278.724 741.759 278.705C741.505 278.471 741.228 278.262 740.94 278.073C740.651 277.882 740.347 277.712 740.04 277.559C739.424 277.258 738.779 277.014 738.15 276.829C737.834 276.733 737.521 276.65 737.214 276.581C737.062 276.547 736.909 276.51 736.759 276.48C736.609 276.448 736.46 276.42 736.314 276.395C736.242 276.382 736.17 276.37 736.098 276.358C736.027 276.345 735.955 276.334 735.885 276.323C735.743 276.3 735.605 276.281 735.47 276.264C735.403 276.255 735.337 276.247 735.27 276.24C735.204 276.234 735.139 276.227 735.073 276.219C734.944 276.204 734.818 276.192 734.696 276.183C737.018 275.8 739.296 275.244 741.459 274.545C741.494 274.7 741.673 274.909 742.031 275.115C742.12 275.167 742.221 275.219 742.334 275.268C742.446 275.318 742.57 275.366 742.707 275.411C742.979 275.503 743.301 275.586 743.681 275.652C744.059 275.715 744.489 275.759 744.984 275.778C745.23 275.785 745.488 275.784 745.765 275.777C745.903 275.773 746.045 275.767 746.19 275.759C746.335 275.751 746.484 275.738 746.636 275.724C747.855 275.616 749.322 275.342 750.971 274.799C750.617 274.649 750.258 274.522 749.895 274.414L749.911 274.411Z" fill="#D4AF37"></path><defs><linearGradient id="paint0_linear_1485_5829" x1="1322.5" y1="203" x2="329.412" y2="1276.92" gradientUnits="userSpaceOnUse"><stop stop-color="#0D0D0D"></stop><stop offset="1" stop-color="#E63946"></stop></linearGradient><linearGradient id="paint1_linear_1485_5829" x1="78.5" y1="-1.33685e-06" x2="123.357" y2="392.233" gradientUnits="userSpaceOnUse"><stop stop-color="#0D0D0D"></stop><stop offset="1" stop-color="#E63946"></stop></linearGradient><linearGradient id="paint2_linear_1485_5829" x1="78.5" y1="-1.33685e-06" x2="123.357" y2="392.233" gradientUnits="userSpaceOnUse"><stop stop-color="#0D0D0D"></stop><stop offset="1" stop-color="#E63946"></stop></linearGradient><linearGradient id="paint3_linear_1485_5829" x1="73.5" y1="-7.23771e-07" x2="87.6645" y2="214.196" gradientUnits="userSpaceOnUse"><stop stop-color="#0D0D0D"></stop><stop offset="1" stop-color="#535B61"></stop></linearGradient><linearGradient id="paint4_linear_1485_5829" x1="120.234" y1="58.0178" x2="19.0848" y2="202.299" gradientUnits="userSpaceOnUse"><stop offset="0.153846" stop-color="#0D0D0D"></stop><stop offset="1" stop-color="#34A853" stop-opacity="0.1"></stop></linearGradient><linearGradient id="paint5_linear_1485_5829" x1="120.234" y1="58.0178" x2="19.0848" y2="202.299" gradientUnits="userSpaceOnUse"><stop offset="0.153846" stop-color="#0D0D0D"></stop><stop offset="1" stop-color="#11C3DB" stop-opacity="0.1"></stop></linearGradient><linearGradient id="paint6_linear_1485_5829" x1="856.108" y1="418.754" x2="792.993" y2="497.047" gradientUnits="userSpaceOnUse"><stop stop-color="#114A8B"></stop><stop offset="1" stop-color="#0669BC"></stop></linearGradient><linearGradient id="paint7_linear_1485_5829" x1="829.008" y1="446.774" x2="822.734" y2="442.02" gradientUnits="userSpaceOnUse"><stop stop-opacity="0.3"></stop><stop offset="0.071" stop-opacity="0.2"></stop><stop offset="0.321" stop-opacity="0.1"></stop><stop offset="0.623" stop-opacity="0.05"></stop><stop offset="1" stop-opacity="0"></stop></linearGradient><linearGradient id="paint8_linear_1485_5829" x1="863.944" y1="419.24" x2="856.74" y2="487.442" gradientUnits="userSpaceOnUse"><stop stop-color="#3CCBF4"></stop><stop offset="1" stop-color="#2892DF"></stop></linearGradient><linearGradient id="paint9_linear_1485_5829" x1="134.41" y1="64.8582" x2="21.3349" y2="226.15" gradientUnits="userSpaceOnUse"><stop offset="0.153846" stop-color="#0D0D0D"></stop><stop offset="1" stop-color="#FFD700" stop-opacity="0.1"></stop></linearGradient><linearGradient id="paint10_linear_1485_5829" x1="47.3411" y1="-9.54592e-07" x2="4.42029e-06" y2="147.829" gradientUnits="userSpaceOnUse"><stop offset="0.158654" stop-color="#0D0D0D"></stop><stop offset="1" stop-color="#E63946"></stop></linearGradient></defs></svg>