<svg xmlns="http://www.w3.org/2000/svg" xmlns:xlink="http://www.w3.org/1999/xlink" id="Layer_1" viewBox="0 0 773.59 481.88"><defs><style> .st0 { fill: none; } .st1 { fill: #d4af37; } .st2 { clip-path: url(#clippath); } .st3 { fill: #e63946; } </style><clipPath id="clippath"><polygon class="st0" points="379.2 -84.45 928.82 126.53 347.72 548.72 -201.9 337.74 379.2 -84.45"></polygon></clipPath></defs><g class="st2"><g><path class="st3" d="M452.18,231.43l-3.83-1.47,42.81-31.11c4.19-3.05,3.67-7.03-1.17-8.89l-75.83-29.11c-4.84-1.86-12.18-.89-16.38,2.16l-42.81,31.1-5.36-2.06c-1.27-.49-3.18-.24-4.29.56l-6.97,5.06c-3.85,2.8-3.35,6.45,1.07,8.15l91.08,34.96c4.44,1.7,11.17.81,15-1.97l6.96-5.06c1.1-.8.96-1.84-.31-2.33ZM402.37,164.76c2-1.46,5.51-1.91,7.8-1.03l75.83,29.11c2.31.89,2.55,2.79.56,4.24l-42.81,31.11-3.21-1.24,38.23-27.78c2.26-1.64,1.97-3.78-.63-4.78l-68.36-26.24c-2.6-1-6.55-.48-8.8,1.16l-38.23,27.78-3.22-1.23,42.81-31.1h.03ZM365.53,198.16l38.24-27.78c.93-.68,2.57-.9,3.66-.48l68.36,26.24c1.07.41,1.2,1.3.26,1.99l-38.24,27.78-72.26-27.74h-.01ZM410.84,219.98l-1.42,1.03c-.76.55-2.07.72-2.94.39l-23.16-8.89c-.87-.33-.97-1.05-.21-1.6l1.42-1.03,26.33,10.11h-.02ZM440.93,237.05c-1.65,1.19-4.53,1.57-6.43.85l-91.08-34.96c-1.9-.73-2.1-2.3-.46-3.49l4.98-3.61,33.83,12.99-1.42,1.03c-2.07,1.5-1.81,3.47.58,4.39l23.16,8.89c2.39.92,6.02.44,8.09-1.07l1.42-1.03,32.3,12.4-4.98,3.62Z"></path><path class="st3" d="M581.84,87.81c-3.49-1.34-8.78-.64-11.8,1.55-3.02,2.2-2.63,5.07.84,6.41,3.48,1.33,8.78.64,11.8-1.55,3.02-2.2,2.65-5.07-.84-6.41ZM573.27,94.04c-1.98-.76-2.18-2.38-.48-3.62,1.7-1.23,4.7-1.63,6.66-.88,1.96.75,2.19,2.37.48,3.62-1.71,1.24-4.68,1.63-6.66.88ZM606.51,66.74l-38.14-14.64c-16.89-6.48-42.52-3.11-57.15,7.52-14.63,10.63-12.8,24.55,4.09,31.03l38.14,14.64c16.89,6.48,42.52,3.11,57.15-7.52,14.63-10.63,12.8-24.55-4.09-31.03ZM557.43,102.41l-38.14-14.64c-9.78-3.75-13.61-10.44-11.11-17.19.12,6.08,4.81,11.67,13.73,15.1l38.72,14.86c8.53,3.27,19.54,3.98,30.17,2.42-11.14,3.05-23.88,3.09-33.38-.55ZM563.01,98.81l-38.72-14.86c-11.74-4.51-15.46-13.12-10.08-21.27.52-.43,1.04-.85,1.61-1.27,12.43-9.03,34.23-11.9,48.58-6.39l38.14,14.64c14.35,5.51,15.9,17.35,3.47,26.38-.78.57-1.61,1.12-2.47,1.64-12.89,4.88-29.13,5.52-40.52,1.15h0ZM589.49,82.26c3.49,1.34,8.78.64,11.8-1.55s2.65-5.07-.84-6.41c-3.49-1.34-8.78-.64-11.8,1.55-3.03,2.2-2.63,5.07.84,6.41ZM598.06,76.03c1.96.75,2.19,2.37.48,3.62-1.71,1.24-4.68,1.63-6.66.88s-2.17-2.38-.48-3.62c1.7-1.23,4.7-1.63,6.66-.88ZM581.26,83.34c3.02-2.2,2.65-5.07-.84-6.41-3.49-1.34-8.78-.64-11.8,1.55-3.03,2.2-2.65,5.07.84,6.41,3.49,1.34,8.78.64,11.8-1.55ZM571.84,83.16c-1.98-.76-2.19-2.37-.48-3.62,1.71-1.24,4.7-1.63,6.66-.88,1.96.75,2.19,2.37.48,3.62-1.71,1.24-4.68,1.63-6.66.88ZM558.1,67.46l-3.69-1.42,3.2-2.32c2.85-2.07,2.49-4.79-.8-6.05-3.29-1.26-8.29-.6-11.15,1.47l-3.2,2.32-3.69-1.42c-3.29-1.26-8.29-.6-11.14,1.47-2.85,2.07-2.49,4.79.8,6.05l3.69,1.42-3.2,2.32c-2.85,2.07-2.5,4.79.8,6.05,3.29,1.26,8.29.61,11.15-1.47l3.2-2.32,3.69,1.42c3.29,1.26,8.29.6,11.14-1.47,2.85-2.07,2.49-4.79-.8-6.05ZM550.14,73.24l-5.07-1.95c-.77-.29-1.91-.14-2.57.34l-4.39,3.19c-1.54,1.12-4.23,1.47-6,.79-1.78-.68-1.97-2.14-.43-3.26l4.39-3.19c.66-.48.58-1.1-.18-1.4l-5.08-1.95c-1.78-.68-1.97-2.14-.43-3.26s4.22-1.47,6-.79l5.08,1.95c.77.29,1.91.14,2.57-.34l4.39-3.19c1.54-1.12,4.23-1.47,6-.79,1.78.68,1.97,2.14.43,3.26l-4.39,3.19c-.66.48-.58,1.1.18,1.4l5.07,1.95c1.77.68,1.97,2.14.43,3.26-1.54,1.12-4.23,1.47-6,.79ZM601.88,85.18c-3.49-1.34-8.78-.64-11.8,1.55-3.03,2.2-2.65,5.07.84,6.41,3.49,1.34,8.78.64,11.8-1.55,3.02-2.2,2.65-5.07-.84-6.41ZM593.31,91.4c-1.98-.76-2.19-2.37-.48-3.62,1.71-1.24,4.7-1.63,6.66-.88,1.96.75,2.19,2.37.48,3.61-1.71,1.24-4.68,1.63-6.66.88Z"></path><path class="st3" d="M607.08,45.29l-7.06.93c-1.69.22-2.95,1.14-2.81,2.04.06.45.46.82,1.04,1.05.58.22,1.38.31,2.21.2l7.06-.93c1.69-.22,2.95-1.14,2.81-2.04-.12-.91-1.58-1.47-3.24-1.25ZM636,44.34c.58.22,1.38.31,2.21.2l7.06-.93c1.69-.22,2.95-1.14,2.81-2.04-.12-.92-1.58-1.47-3.24-1.24l-7.06.93c-1.69.22-2.95,1.14-2.81,2.04.06.45.46.82,1.04,1.05ZM624.07,32.35c-.12-.92-1.57-1.47-3.24-1.25-1.67.23-2.95,1.14-2.81,2.04l.51,3.83c.06.45.46.82,1.04,1.05.58.22,1.38.31,2.21.2,1.69-.22,2.95-1.14,2.81-2.04l-.51-3.83ZM614.64,41.14c1.1-.8.96-1.84-.31-2.33l-4.59-1.76c-1.27-.49-3.19-.24-4.29.56-1.1.8-.96,1.84.31,2.33l4.59,1.76c1.27.49,3.19.24,4.29-.56ZM614.44,50.63c-1.27-.49-3.19-.24-4.29.57l-5.31,3.85c-1.1.8-.96,1.84.31,2.33,1.27.49,3.18.24,4.29-.57l5.31-3.85c1.1-.8.96-1.84-.31-2.33ZM626.77,52.86c-.12-.92-1.58-1.47-3.25-1.25-1.69.22-2.95,1.14-2.81,2.04l.5,3.83c.06.45.46.82,1.04,1.05.58.22,1.38.31,2.21.2,1.69-.22,2.95-1.14,2.81-2.04l-.5-3.83ZM643.43,49.98l-4.59-1.76c-1.27-.49-3.18-.24-4.29.57-1.1.8-.96,1.84.31,2.33l4.59,1.76c1.27.49,3.18.24,4.29-.56,1.1-.8.97-1.84-.31-2.33ZM638.32,33.28c-1.27-.49-3.18-.24-4.29.56l-3.98,2.89c-1.1.8-.96,1.84.31,2.33,1.27.49,3.19.24,4.29-.56l3.98-2.89c1.1-.8.96-1.84-.31-2.33Z"></path><path class="st3" d="M460.58,23.75l-.58-4.39c-.12-.92-1.58-1.47-3.25-1.25-1.69.22-2.95,1.14-2.81,2.04l.58,4.39c.12.92,1.58,1.47,3.25,1.25,1.69-.22,2.95-1.14,2.81-2.04ZM451.53,16.11c-.12-.92-1.58-1.47-3.25-1.25l-8.09,1.06c-1.69.22-2.95,1.14-2.81,2.04.12.92,1.58,1.47,3.25,1.25l8.09-1.07c1.69-.22,2.95-1.14,2.81-2.04ZM458.87,10.78l-.58-4.39c-.12-.92-1.58-1.47-3.24-1.25-1.69.22-2.95,1.14-2.81,2.04l.58,4.39c.12.92,1.57,1.47,3.25,1.25,1.69-.22,2.95-1.14,2.81-2.04ZM475.42,12.96c-.12-.92-1.58-1.47-3.25-1.25l-8.09,1.06c-1.69.22-2.95,1.14-2.81,2.04.12.92,1.58,1.47,3.24,1.25l8.09-1.07c1.69-.22,2.95-1.14,2.81-2.04Z"></path><path class="st3" d="M332.26,70.35c1.27.49,3.18.24,4.29-.57l5.31-3.85c1.1-.8.96-1.84-.31-2.33-1.27-.49-3.19-.24-4.29.57l-5.31,3.85c-1.1.8-.96,1.84.31,2.33,1.27.49-1.27-.49,0,0Z"></path><path class="st3" d="M330.34,55.75c-1.1.8-.96,1.84.31,2.33l6.12,2.35c1.27.49,3.18.24,4.29-.56,1.1-.8.97-1.84-.31-2.33l-6.12-2.35c-1.27-.49-3.18-.24-4.29.56-1.1.8,1.1-.8,0,0Z"></path><path class="st3" d="M352.24,58.38l5.31-3.86c1.1-.8.96-1.84-.31-2.33s-3.18-.24-4.29.56l-5.31,3.86c-1.1.8-.97,1.84.31,2.33,1.27.49,3.19.24,4.29-.56Z"></path><path class="st3" d="M359.15,66.81c1.1-.8.96-1.84-.31-2.33l-6.12-2.35c-1.27-.49-3.19-.24-4.29.57-1.1.8-.96,1.84.31,2.33l6.12,2.35c1.27.49,3.19.24,4.29-.57Z"></path><path class="st3" d="M585.44,287.6l5.31-3.85c1.1-.8.97-1.84-.31-2.33s-3.18-.24-4.29.57l-5.31,3.85c-1.1.8-.96,1.84.31,2.33,1.27.49,3.18.24,4.29-.57ZM589.95,277.68c1.1-.8.96-1.84-.31-2.33l-6.12-2.35c-1.27-.49-3.18-.24-4.29.56-1.1.8-.96,1.84.31,2.33l6.12,2.35c1.27.49,3.18.24,4.29-.56ZM601.12,276.21l5.31-3.86c1.1-.8.96-1.84-.31-2.33-1.27-.49-3.19-.24-4.29.56l-5.31,3.86c-1.1.8-.96,1.84.31,2.33,1.27.49,3.18.24,4.29-.56ZM608.05,284.63c1.1-.8.96-1.84-.31-2.33l-6.12-2.35c-1.27-.49-3.18-.23-4.29.57-1.1.8-.96,1.84.31,2.33l6.12,2.35c1.27.49,3.19.23,4.29-.57Z"></path><path class="st3" d="M142.43,407.16l-39.81-15.28c-1.27-.49-1.41-1.53-.31-2.33,1.1-.8,3.02-1.05,4.29-.56l39.81,15.28c1.27.49,1.41,1.53.31,2.33-1.1.8-3.02,1.05-4.29.57Z"></path><path class="st3" d="M289.81,378.29c-1.27-.49-1.41-1.53-.31-2.33l140.8-102.3c6.86-4.98,5.99-11.51-1.91-14.54l-110.61-42.46c-7.92-3.04-19.92-1.46-26.78,3.52l-128.86,93.62c-1.1.8-3.01,1.05-4.29.56s-1.41-1.53-.31-2.33l128.86-93.62c9.05-6.57,24.91-8.66,35.35-4.65l110.61,42.46c10.44,4.01,11.58,12.62,2.53,19.19l-140.8,102.3c-1.1.8-3.02,1.05-4.29.57Z"></path><path class="st3" d="M284.4,370.32c-1.27-.49-1.41-1.53-.31-2.33l132.19-96.04c3.56-2.58,3.11-5.97-.99-7.54l-104.55-40.13c-4.1-1.58-10.33-.76-13.89,1.83l-130.87,95.08c-1.1.8-3.02,1.05-4.29.56-1.27-.49-1.41-1.53-.31-2.33l130.87-95.08c5.75-4.17,15.82-5.51,22.46-2.96l104.55,40.13c6.63,2.54,7.36,8.01,1.6,12.2l-132.19,96.04c-1.1.8-3.01,1.05-4.29.56Z"></path><path class="st3" d="M151.52,398.86l-39.81-15.28c-1.27-.49-1.41-1.53-.31-2.33,1.1-.8,3.02-1.05,4.29-.57l39.81,15.28c1.27.49,1.41,1.53.31,2.33-1.1.8-3.02,1.05-4.29.56Z"></path><path class="st3" d="M301.65,357.79l-29.85-11.46,26.26-19.08,1.96,6.16c.12.39.5.69,1,.89.66.25,1.57.32,2.51.15,1.66-.3,2.78-1.27,2.49-2.15l-11.56-36.48c-.23-.77-1.46-1.24-2.92-1.12l-69.27,5.45c-1.68.13-3.07.99-3.11,1.92-.04.93,1.28,1.57,2.96,1.43l14.23-1.12-27.32,19.85-29.85-11.46c-1.27-.49-3.19-.24-4.29.56-1.1.8-.96,1.84.31,2.33l62.77,24.1c1.27.49,3.18.24,4.29-.56,1.1-.8.96-1.84-.31-2.33l-8.42-3.23,21.23-15.42,12.25,4.7-17.91,13.01c-1.1.8-.96,1.84.31,2.33,1.27.49,3.19.24,4.29-.56l19.9-14.46c1.1-.8.96-1.84-.31-2.33l-16.84-6.46c-1.27-.49-3.18-.24-4.29.56l-23.22,16.87-15.31-5.88,30.59-22.23,44.66-3.51,7.86,24.85-29.53,21.46-2.3-.88c-1.27-.49-3.18-.24-4.29.56-1.1.8-.96,1.84.31,2.33l36.74,14.11c1.27.49,3.18.24,4.29-.57,1.1-.8.96-1.84-.31-2.33v.02Z"></path><path class="st3" d="M170.49,344.27l-6.12-2.35c-1.27-.49-3.19-.24-4.29.56-1.1.8-.96,1.84.31,2.33l6.12,2.35c1.27.49,3.19.24,4.29-.56,1.1-.8.96-1.84-.31-2.33ZM186.31,342.98l35.21,13.52c1.27.49,3.19.24,4.29-.57,1.1-.8.96-1.84-.31-2.33l-35.21-13.52c-1.27-.49-3.19-.24-4.29.56-1.1.8-.96,1.84.31,2.33ZM159.88,351.98l-6.12-2.35c-1.27-.49-3.18-.24-4.29.56-1.1.8-.96,1.84.31,2.33l6.12,2.35c1.27.49,3.18.24,4.29-.56,1.1-.8.96-1.84-.31-2.33ZM149.27,359.7l-6.12-2.35c-1.27-.49-3.19-.24-4.29.56-1.1.8-.96,1.84.31,2.33l6.12,2.35c1.27.49,3.19.23,4.29-.57,1.1-.8.96-1.84-.31-2.33ZM193.67,376.74l-35.21-13.52c-1.27-.49-3.18-.24-4.29.56-1.1.8-.96,1.84.31,2.33l35.21,13.52c1.27.49,3.19.24,4.29-.56,1.1-.8.96-1.84-.31-2.33ZM214.89,361.32l-35.21-13.52c-1.27-.49-3.18-.23-4.29.57-1.1.8-.96,1.84.31,2.33l35.21,13.52c1.27.49,3.18.24,4.29-.56,1.1-.8.96-1.84-.31-2.33ZM181.11,336.56l-6.12-2.35c-1.27-.49-3.18-.23-4.29.57-1.1.8-.96,1.84.31,2.33l6.12,2.35c1.27.49,3.18.24,4.29-.57,1.1-.8.96-1.84-.31-2.33ZM165.09,358.4l18.37,7.05c1.27.49,3.19.23,4.29-.57,1.1-.8.96-1.84-.31-2.33l-18.37-7.05c-1.27-.49-3.19-.24-4.29.56-1.1.8-.96,1.84.31,2.33Z"></path><path class="st3" d="M205.23,280.94c-.6-.8-2.36-1.07-3.93-.6l-56.11,17.13c-11.22,3.51-21.34,8.41-29.26,14.17l-52.56,38.19c-13.96,10.14-32,18.52-52.25,24.26l-10.09,3.15c-1.56.49-2.31,1.53-1.7,2.32.19.23.48.43.83.57.83.32,2.04.34,3.11,0l9.97-3.11c21.13-5.99,40.06-14.78,54.72-25.43l52.56-38.19c7.28-5.29,16.6-9.8,26.89-13.03l56.06-17.12c1.57-.48,2.35-1.52,1.74-2.32ZM120.05,361.37c-.56.4-.83.89-.73,1.34,1.43,7.09-2.71,14.75-11.36,21.04l-12.47,9.06c-1.1.8-.96,1.84.31,2.33,1.27.49,3.18.24,4.29-.56l12.47-9.06c9.46-6.87,14.13-15.21,12.93-23l32.84-23.86c13.72-9.97,12-23.02-3.83-29.09-1.9-.73-4.79-.35-6.43.85l-47.3,34.36c-1.1.8-.96,1.84.31,2.33,1.27.49,3.19.24,4.29-.56l46.27-33.62c12.24,5.29,13.28,15.85,2.08,23.99l-33.7,24.48.03-.02ZM135.82,400.95c-.68-.78-2.47-.99-4-.49-9.63,3.23-19.07,4.89-27.29,4.83h-1.15c-10.29-.09-21.92,2.11-33.56,6.33l-37.54,13.2c-1.51.54-2.18,1.58-1.45,2.36.19.2.44.36.76.48.89.34,2.15.34,3.28-.05l37.58-13.21c10.36-3.76,20.97-5.78,29.85-5.72l1.15.02c9.41.06,20.07-1.8,30.82-5.39,1.53-.52,2.22-1.56,1.57-2.35h-.01Z"></path><path class="st3" d="M317.17,473.19c.42-7.19,3.96-14.63,10.27-21.47l11.56-12.58c6.75-7.35,10.57-15.33,11.02-23.05l1.47-25.5c.15-2.64-1.57-4.98-4.82-6.6-3.27-1.62-7.69-2.3-12.47-1.94-4.39.33-8.58,1.51-11.94,3.36l.24-4.06c.32-5.45-7.44-9.28-17.29-8.54-4.39.33-8.59,1.52-11.94,3.36l.07-1.43c.15-2.64-1.57-4.98-4.82-6.6s-7.69-2.3-12.47-1.94c-4.95.37-9.5,1.82-12.84,3.85l1.62-28.09c.16-2.67-1.58-5.04-4.89-6.68-3.33-1.65-7.81-2.33-12.63-1.98-4.85.36-9.45,1.75-12.99,3.9-3.52,2.15-5.55,4.81-5.69,7.48l-3.14,57.82c-.2,2.93-3.87,5.06-7.24,6.08-4.28,1.29-8.7,1.17-11.81-.35l-21.67-10.47c-9.86-4.86-30.55-3.27-38.25,1.4-2.93,1.79-4.63,4-4.75,6.22-.13,2.2,1.29,4.15,3.98,5.51l25.89,15.7c4.55,2.76,7.47,6.3,8.46,10.23l.6,2.42c1.53,6.18,6.58,11.48,14.65,15.33,8.92,4.28,13.81,10.79,13.39,17.9l-.43,7.35c-.03.53.39.96,1.05,1.21.51.19,1.17.29,1.89.22,1.67-.13,3.08-.98,3.14-1.91l.43-7.35c.46-8-5.03-15.35-15.08-20.17-7.14-3.42-11.64-8.12-13-13.61l-.6-2.42c-1.12-4.51-4.47-8.57-9.7-11.74l-25.97-15.74s-.12-.06-.17-.1c-1.65-.81-2.5-1.99-2.43-3.32.07-1.33,1.09-2.64,2.84-3.71,6.35-3.87,23.61-3.74,29.68-.76l21.69,10.48c4.78,2.31,11.82,2.52,18.36.55,6.61-1.98,10.89-5.6,11.17-9.44l3.14-57.84c.1-1.77,1.44-3.54,3.78-4.97,2.34-1.43,5.4-2.35,8.61-2.59,3.21-.24,6.19.23,8.4,1.31,2.21,1.08,3.36,2.66,3.26,4.43l-3.52,60.49s.02.04,0,.06l-.04.34c-.04.54.36.99,1.04,1.25.49.19,1.13.29,1.83.23,1.67-.11,3.1-.95,3.2-1.88l2.37-25.96c.11-1.74,1.43-3.47,3.72-4.86,2.3-1.4,5.29-2.3,8.45-2.53,3.15-.23,6.06.22,8.22,1.29,2.16,1.07,3.28,2.61,3.19,4.35l-1.51,25.86-.48,8.29c-.03.53.39.96,1.06,1.22.51.19,1.17.29,1.89.23,1.67-.12,3.08-.98,3.14-1.9l1.46-25.32c.1-1.74,1.43-3.47,3.72-4.86,2.3-1.4,5.29-2.3,8.45-2.53,6.49-.48,11.62,2.05,11.43,5.64l-.67,11.45-1.27,21.7c-.05.92,1.27,1.58,2.94,1.45,1.67-.12,3.08-.98,3.14-1.9l.95-16.12.33-5.58c.1-1.74,1.42-3.46,3.72-4.86,2.3-1.4,5.29-2.3,8.45-2.53,3.15-.23,6.08.23,8.22,1.28,2.16,1.07,3.28,2.62,3.19,4.35l-1.47,25.5c-.42,7.19-3.96,14.63-10.27,21.47l-11.56,12.58c-6.75,7.35-10.57,15.33-11.02,23.05-.03.53.39.96,1.06,1.22.51.19,1.17.29,1.89.22,1.67-.12,3.08-.98,3.14-1.9v.06Z"></path><path class="st3" d="M316.55,278.96c-2.01-.77-4.58-1.01-7.22-.68-1.05.13-1.83.7-1.73,1.26.09.57,1,.92,2.04.78,1.62-.2,3.21-.05,4.45.42,1.24.48,2.01,1.23,2.14,2.11.04.28.3.51.66.65.37.14.86.2,1.38.13,1.05-.13,1.83-.7,1.73-1.26-.22-1.43-1.45-2.64-3.46-3.41ZM340.48,279.8c-.67-4.38-4.45-8.11-10.65-10.49-6.2-2.38-14.08-3.13-22.18-2.11-1.05.13-1.83.7-1.73,1.26.09.57,1,.92,2.04.78,7.08-.89,13.99-.23,19.42,1.85,5.43,2.09,8.74,5.34,9.33,9.18.04.28.3.51.66.65.37.14.86.2,1.38.13,1.05-.13,1.83-.7,1.73-1.26ZM322.9,274.35c-4.02-1.54-9.12-2.03-14.37-1.37-1.05.13-1.83.7-1.73,1.26.04.28.3.51.66.65.37.14.86.2,1.38.13,4.24-.53,8.36-.14,11.61,1.11,3.25,1.25,5.23,3.2,5.58,5.49.09.57,1,.92,2.04.78,1.04-.13,1.83-.69,1.73-1.26-.43-2.84-2.89-5.25-6.9-6.79Z"></path><path class="st3" d="M173.4,201.02l-85.66-32.88c-4.67-1.79-11.76-.86-15.8,2.08l-49.02,35.62c-4.05,2.94-3.54,6.79,1.13,8.58l34.4,13.21-1.72,1.25c-.74.54-1.51.76-1.72.77l-7.7.29-6.28-2.41c-1.27-.49-3.19-.24-4.29.56-1.1.8-.96,1.84.31,2.33l39.81,15.28c1.27.49,3.18.24,4.29-.56,1.1-.8.96-1.84-.31-2.33l-6.28-2.41-1.86-3.97c-.04-.1.07-.55.86-1.1l1.73-1.25,34.42,13.21c4.67,1.79,11.76.86,15.8-2.08l49.02-35.62c4.05-2.94,3.54-6.79-1.13-8.58v.02ZM55.21,232.94c2.18-.24,4.46-1.1,6.14-2.34l1.7-1.23,7.65,2.94-1.71,1.24c-1.7,1.23-2.54,2.65-2.3,3.8l-11.48-4.41ZM120.9,243.44c-1.84,1.34-5.09,1.78-7.23.95l-85.66-32.88c-2.13-.82-2.37-2.58-.52-3.93l4.6-3.34,93.39,35.85-4.6,3.35h.02ZM129.48,237.21l-93.39-35.85,34.49-25.06,93.39,35.85-34.49,25.06ZM167.95,209.25l-93.39-35.85,1.95-1.42c1.84-1.34,5.09-1.77,7.23-.95l85.66,32.88c2.13.82,2.38,2.58.52,3.93l-1.95,1.42h-.02Z"></path><path class="st3" d="M374.34,113.96l-12.21,1.87-1.53-6.67c-.2-.89-1.71-1.41-3.39-1.14-1.66.27-2.83,1.21-2.64,2.11l1.9,8.27c.1.42.48.76,1.01.96.61.24,1.44.32,2.32.18l15.19-2.32c1.67-.26,2.88-1.19,2.69-2.09-.19-.9-1.69-1.43-3.35-1.17h.01ZM400.02,108.25c-.91-5.14-5.55-9.36-13.08-11.92-13.4-4.54-34.62-1.71-46.33,6.17-8.02,5.41-11.21,12.23-8.49,18.22.7,1.55-.16,3.4-2.31,4.96l-5.71,4.15c-5.85,4.25-5.12,9.82,1.63,12.41,6.75,2.59,17.01,1.24,22.86-3.01l5.8-4.21c2.1-1.52,5.09-2.49,8.03-2.62,11.08-.45,22.05-3.87,29.32-9.15,6.25-4.54,9.18-9.87,8.27-15ZM343.99,137.48c-3.66,2.66-10.06,3.5-14.29,1.88-4.23-1.62-4.68-5.1-1.02-7.76l.56-.4,15.31,5.88-.56.4ZM362.98,129.04c-4.89.2-9.82,1.78-13.19,4.23l-1.26.92-15.31-5.88,1.17-.85c3.42-2.49,4.77-5.49,3.62-8.04-2.24-4.95.38-10.56,7.01-15.02,9.48-6.38,27.31-8.76,38.14-5.08.38.13.76.26,1.13.4,5.54,2.13,8.97,5.45,9.67,9.41.75,4.24-1.67,8.62-6.82,12.36-5.98,4.35-15.02,7.17-24.16,7.54Z"></path><path class="st3" d="M450.88,327.88c1.16.74,2.46,1.37,3.87,1.91,3.87,1.49,8.62,2.24,13.8,2.16,14.62-.24,28.18-7.11,30.21-15.34,2.03-8.22-8.2-14.73-22.83-14.49-7.08.11-14.13,1.76-19.82,4.66-5.71,2.89-9.4,6.69-10.38,10.67-.99,3.98.84,7.69,5.15,10.42ZM475.1,305.5c4.09-.07,7.75.56,10.67,1.68,5.13,1.97,7.97,5.48,6.98,9.53-1.58,6.36-12.04,11.67-23.35,11.85-5.47.08-10.31-1.03-13.66-3.15-3.33-2.12-4.76-4.98-3.98-8.06,1.58-6.36,12.05-11.68,23.35-11.85h-.02ZM556.72,293.64l-68.17-26.17c-6.95-2.67-17.5-1.28-23.52,3.1l-73.33,53.27c-1.1.8-.96,1.84.31,2.33l88.8,34.09c1.27.49,3.18.24,4.29-.56l73.33-53.28c6.02-4.38,5.27-10.1-1.68-12.77h-.02ZM482.47,356.47l-84.2-32.32,5.31-3.86,84.2,32.32-5.31,3.86ZM491.75,349.72l-84.2-32.32,45.11-32.77,84.2,32.32-45.11,32.77ZM540.84,314.06l-84.2-32.32,12.96-9.42c3.83-2.79,10.54-3.66,14.95-1.97l68.17,26.17c4.42,1.7,4.89,5.34,1.07,8.12l-12.96,9.42h.02ZM481.8,279.61l-7.65-2.94c-1.27-.49-3.19-.24-4.29.57-1.1.8-.96,1.84.31,2.33l7.65,2.94c1.27.49,3.19.24,4.29-.57,1.1-.8.96-1.84-.31-2.33ZM546.1,304.29l-7.66-2.94c-1.27-.49-3.19-.23-4.29.57-1.1.8-.96,1.84.31,2.33l7.65,2.94c1.27.49,3.19.24,4.29-.56,1.1-.8.96-1.84-.31-2.33ZM527.73,297.24l-35.21-13.52c-1.27-.49-3.18-.24-4.29.56-1.1.8-.96,1.84.31,2.33l35.21,13.52c1.27.49,3.18.24,4.29-.56,1.1-.8.96-1.84-.31-2.33Z"></path><path class="st3" d="M141.59,300.77l-102.58-39.38c-1.27-.49-1.41-1.53-.31-2.33,1.1-.8,3.01-1.05,4.29-.56l102.58,39.38c1.27.49,1.41,1.53.31,2.33-1.1.8-3.02,1.05-4.29.57Z"></path><path class="st3" d="M430.86,411.81l-122.48-47.01c-1.27-.49-1.41-1.53-.31-2.33,1.1-.8,3.01-1.05,4.29-.56l122.48,47.01c1.27.49,1.41,1.53.31,2.33-1.1.8-3.02,1.05-4.29.56Z"></path><path class="st3" d="M415.34,340.62c-11.18-4.29-45.59,14.08-51.12,18.1-7.75,5.63-7.24,12.91.84,16.75l-6.65,4.83c-1.1.8-.96,1.84.31,2.33,1.27.49,3.19.24,4.29-.56l6.85-4.97c9.25,2.15,21.39.08,28.68-5.21,5.53-4.02,28.01-26.98,16.83-31.27h-.01ZM373.91,374.14l16.96-12.32c1.1-.8.96-1.84-.31-2.33-1.27-.49-3.18-.23-4.29.57l-17.21,12.5c-5.57-2.86-5.8-8.04-.24-12.08,3.29-2.39,12.74-7.45,22.28-11.48,13.01-5.49,18.86-6.03,20.27-5.49,1.41.54,2.22,3.65-3.62,11.88-4.31,6.04-10.51,12.35-13.8,14.74-5.08,3.69-13.38,5.23-20.01,4.02h-.03Z"></path><path class="st3" d="M142.28,258.84c-9.81-3.77-25.81-.29-33.56,5.34-7.75,5.63-7.26,12.76.58,16.63l-3.49,2.54c-1.1.8-.96,1.84.31,2.33,1.27.49,3.19.24,4.29-.56l3.62-2.63c9.28,2.28,21.64.22,29.01-5.13,7.75-5.63,9.08-14.74-.73-18.51h-.02ZM118.05,279.53l12.23-8.89c1.1-.8.96-1.84-.31-2.33-1.27-.49-3.19-.23-4.29.57l-12.39,9c-5.32-2.88-5.47-7.98,0-11.95,5.74-4.17,17.91-6.93,24.99-4.21,7.07,2.71,5.87,9.68.12,13.85-5.17,3.76-13.68,5.3-20.37,3.95h.02Z"></path><path class="st3" d="M447.85,372.6c-9.81-3.77-25.81-.29-33.56,5.34-7.75,5.63-7.25,12.3-.11,16.25l-6.78,4.93c-1.1.8-.96,1.84.31,2.33,1.27.49,3.19.24,4.29-.56l6.7-4.87c9.37,2.64,22.29.62,29.89-4.91,7.6-5.52,9.08-14.74-.73-18.51ZM422.71,393.09l11.83-8.6c1.1-.8.96-1.84-.31-2.33-1.27-.49-3.18-.24-4.29.56l-11.76,8.54c-4.65-2.93-4.55-7.76.67-11.56,5.74-4.17,17.91-6.93,24.98-4.21s5.87,9.68.12,13.85c-5.41,3.93-14.47,5.43-21.28,3.75h.01Z"></path><path class="st3" d="M703.7,209.91l-.71-5.37c-.12-.92-1.58-1.47-3.24-1.25-1.67.21-2.95,1.14-2.81,2.04l.71,5.37c.06.45.46.82,1.04,1.05.58.22,1.38.31,2.21.2,1.67-.21,2.95-1.14,2.81-2.04ZM684.73,214.61l-7.66-2.94c-1.27-.49-3.19-.23-4.29.57-1.1.8-.96,1.84.31,2.33l7.65,2.94c1.27.49,3.19.24,4.29-.56,1.1-.8.96-1.84-.31-2.33ZM717.5,213.75c1.27.49,3.19.24,4.29-.57l6.63-4.82c1.1-.8.97-1.84-.31-2.33-1.27-.49-3.18-.23-4.29.57l-6.63,4.82c-1.1.8-.96,1.84.31,2.33ZM734.32,233.65l-7.65-2.94c-1.27-.49-3.18-.24-4.29.56-1.1.8-.97,1.84.31,2.33l7.65,2.94c1.27.49,3.18.24,4.29-.57,1.1-.8.96-1.84-.31-2.33ZM741.66,219.26c-.12-.92-1.57-1.47-3.25-1.25l-9.89,1.3c-1.69.22-2.95,1.14-2.81,2.04.06.45.46.82,1.04,1.05.58.22,1.38.31,2.21.2l9.89-1.3c1.69-.22,2.95-1.14,2.81-2.04ZM716.24,216.63c-3.68-1.78-8.83-2.48-14.14-1.92-5.32.57-10.36,2.33-13.84,4.85-1.1.8-.96,1.84.31,2.33,1.27.49,3.18.24,4.29-.57,2.35-1.71,5.78-2.91,9.38-3.29,3.66-.38,7.06.09,9.59,1.31,3.85,1.86,4.58,5.32,1.77,8.22-.55.57-1.22,1.11-1.98,1.6-1.19.77-1.17,1.82,0,2.36.06.02.11.04.15.06,1.19.46,3.01.26,4.14-.47,1.11-.72,2.08-1.51,2.92-2.34,4.25-4.35,3.19-9.34-2.59-12.15v.02Z"></path><path class="st3" d="M754.28,251.63l-88.8-34.09c-1.27-.49-3.18-.24-4.29.56l-45.11,32.77c-1.1.8-.97,1.84.31,2.33l88.8,34.09c1.27.49,3.19.24,4.29-.56l45.11-32.77c1.1-.8.96-1.84-.31-2.33ZM692.89,232.49l24.5,9.4-16.53,12.01c-1.46-.07-3.01.13-4.4.58l-18.31-7.03c-.47-.18-1.05-.26-1.63-.24.57-.94.49-1.9-.15-2.71l16.53-12.01ZM663.8,221.32l24.49,9.4-16.53,12.01c-1.46-.08-3.01.13-4.4.58l-22.14-8.5,18.57-13.49ZM662.43,249.52l-15.26,11.09-24.49-9.4,18.57-13.49,22.14,8.5c-.43.94-.24,1.89.55,2.66-.56.14-1.1.36-1.51.66ZM667.91,248.09c-1.15-.44-1.41-1.32-.74-2.1.2-.1.39-.2.57-.33.17-.13.3-.25.42-.39.98-.48,2.3-.65,3.37-.44.14.1.3.19.5.27.2.08.41.13.63.17.85.58.82,1.49-.17,2.22-1.17.85-3.22,1.12-4.57.6ZM676.26,271.77l-24.5-9.4,15.26-11.09c.41-.3.64-.64.72-.96,1.81.18,3.78-.08,5.49-.72.15.3.47.56.94.75l18.31,7.03c-.38.84-.27,1.68.32,2.39l-16.53,12.01ZM697.63,259.42c-.14-.1-.3-.19-.5-.27-.2-.08-.41-.13-.63-.17-.7-.48-.8-1.19-.24-1.83.21-.1.39-.2.57-.33.17-.13.3-.25.41-.39.98-.48,2.3-.65,3.37-.44.14.1.3.19.5.26.2.08.41.13.63.17.7.48.8,1.19.24,1.83-.21.1-.4.2-.57.33-.17.12-.3.25-.41.39-.98.48-2.3.65-3.37.44ZM706.88,283.53l-26.03-9.99,16.53-12.01c1.46.08,3.01-.13,4.4-.58l23.67,9.08-18.57,13.49ZM729.43,267.14l-23.67-9.08c.38-.84.27-1.68-.32-2.39l16.53-12.01,26.03,9.99-18.57,13.49Z"></path><path class="st3" d="M495.74,41.81c-.83-.32-1.41-.81-1.65-1.42-.45-1.22.64-2.54,2.73-3.31l26.45-9.66-5.53-2.12c-1.29-.49-1.92-1.36-1.71-2.31.21-.95,1.25-1.85,2.78-2.41l33.38-12.19c1.84-.68,4.05-.73,5.61-.13l25.35,9.73c1.41.54,2.05,1.52,1.63,2.57-.4,1.04-1.77,1.97-3.56,2.42l-35.14,8.78,6.15,2.36c1.68.65,2.22,1.84,1.38,3.05s-2.82,2.07-5.03,2.19l-49.84,2.82c-1.16.06-2.21-.08-3.02-.39h.01ZM522.84,22.84l5.53,2.12c1.29.49,1.92,1.36,1.71,2.31-.21.95-1.25,1.85-2.78,2.41l-24.49,8.94,43.27-2.45-5.33-2.04c-1.41-.54-2.05-1.52-1.63-2.57.4-1.04,1.78-1.97,3.56-2.42l35.13-8.78-23.48-9.01-31.47,11.49h-.01Z"></path><path class="st3" d="M231.11,164.24l-7.65-2.94c-1.27-.49-3.18-.24-4.29.56-1.1.8-.96,1.84.31,2.33l7.65,2.94c1.27.49,3.18.24,4.29-.56,1.1-.8.96-1.84-.31-2.33ZM263.55,151.65l-125.43-48.15c-5.94-2.28-14.97-1.09-20.12,2.65l-38.38,27.89c-5.15,3.74-4.5,8.64,1.44,10.92l125.43,48.15c5.94,2.28,14.97,1.09,20.12-2.65l38.38-27.89c5.15-3.74,4.5-8.64-1.44-10.92ZM199.83,186.12l-105.64-40.55.26-.19c4.98-3.61,13.69-4.76,19.43-2.56l84.8,32.55c5.74,2.2,6.36,6.94,1.39,10.55l-.27.19h.02ZM247.18,170.41l-8.42-3.23c-1.27-.49-3.18-.24-4.29.56-1.1.8-.96,1.84.31,2.33l8.42,3.23-21.17,15.38c-2.96,2.15-8.13,2.83-11.54,1.52l-6.06-2.33.27-.19c7.18-5.21,6.26-12.03-2-15.21l-84.8-32.55c-8.28-3.18-20.84-1.52-28.01,3.69l-.27.19-4.53-1.74c-3.4-1.3-3.78-4.12-.83-6.27l21.17-15.38,91.09,34.97c1.27.49,3.18.24,4.29-.56s.96-1.84-.31-2.33l-91.09-34.97,13.21-9.6c2.96-2.15,8.13-2.83,11.55-1.52l125.43,48.15c3.41,1.31,3.78,4.12.83,6.27l-13.21,9.6h-.03ZM215.8,158.36l-7.65-2.94c-1.27-.49-3.18-.24-4.29.56-1.1.8-.96,1.84.31,2.33l7.65,2.94c1.27.49,3.19.24,4.29-.56,1.1-.8.96-1.84-.31-2.33Z"></path><path class="st3" d="M566.72,248.67c-3.08,2.24-2.69,5.17.86,6.53s8.95.65,12.03-1.58c3.08-2.24,2.71-5.18-.85-6.54-3.55-1.36-8.95-.65-12.04,1.59ZM576.37,248.82c2.04.78,2.26,2.46.49,3.74-1.77,1.28-4.85,1.69-6.89.91-2.04-.78-2.26-2.46-.49-3.74,1.76-1.28,4.85-1.69,6.89-.91ZM590.37,243.22l4.59,1.76c1.27.49,3.18.23,4.29-.57,1.1-.8.97-1.84-.31-2.33l-4.59-1.76c-1.27-.49-3.18-.24-4.29.56-1.1.8-.97,1.84.31,2.33ZM597,238.4l4.59,1.76c1.27.49,3.19.24,4.29-.56,1.1-.8.96-1.84-.31-2.33l-4.59-1.76c-1.27-.49-3.19-.24-4.29.57-1.1.8-.96,1.84.31,2.33ZM604.96,232.62l4.59,1.76c1.27.49,3.18.23,4.29-.57,1.1-.8.97-1.84-.31-2.33l-4.59-1.76c-1.27-.49-3.18-.24-4.29.56-1.1.8-.96,1.84.31,2.33ZM584.76,233.7l4.59,1.76c1.27.49,3.18.24,4.29-.56,1.1-.8.96-1.84-.31-2.33l-4.59-1.76c-1.27-.49-3.19-.24-4.29.56-1.1.8-.96,1.84.31,2.33ZM491.96,228.87l56.65,21.74c.77.29,1.91.14,2.57-.34l39.8-28.92c.66-.48.58-1.1-.18-1.4l-56.65-21.74c-.77-.29-1.91-.14-2.57.34l-39.8,28.92c-.66.48-.58,1.1.18,1.4ZM526.53,205.28s.07.05.13.08l4.18,1.6c.32.12.34.38.08.57l-21.84,15.87c-.28.2-.75.26-1.06.14l-4.18-1.6s-.13-.02-.18-.04l22.87-16.62ZM501.33,223.6s.07.05.13.08l4.18,1.6c1.84.7,4.61.34,6.2-.82l21.84-15.87c1.59-1.16,1.38-2.67-.44-3.37l-4.18-1.6s-.13-.02-.18-.04l4.27-3.1,53.89,20.69-37.41,27.18-53.89-20.69,5.6-4.07ZM632.93,224.2l-97.98-37.61c-1.27-.49-3.18-.24-4.29.56l-57.05,41.45c-1.1.8-.96,1.84.31,2.33l97.98,37.61c1.27.49,3.19.24,4.29-.56l57.05-41.45c1.1-.8.96-1.84-.31-2.33ZM573.58,264.77l-93.39-35.85,53.07-38.56,93.39,35.85-53.07,38.56ZM578.12,238.52l4.59,1.76c1.27.49,3.18.24,4.29-.56,1.1-.8.96-1.84-.31-2.33l-4.59-1.76c-1.27-.49-3.19-.23-4.29.57-1.1.8-.97,1.84.31,2.33ZM592.72,227.92l4.59,1.76c1.27.49,3.18.24,4.29-.56,1.1-.8.96-1.84-.31-2.33l-4.59-1.76c-1.27-.49-3.18-.23-4.29.57-1.1.8-.97,1.84.31,2.33Z"></path><path class="st3" d="M493.55,46.95l-43.4-16.66c-4.5-1.73-11.33-.83-15.23,2.01l-60.17,43.71c-3.9,2.83-3.41,6.54,1.09,8.27l43.4,16.66c4.5,1.73,11.33.83,15.23-2.01l60.17-43.71c3.9-2.83,3.41-6.54-1.09-8.27ZM429.89,97.16c-1.7,1.23-4.68,1.63-6.66.88l-43.4-16.66c-1.96-.75-2.19-2.37-.48-3.62l60.17-43.71c1.7-1.23,4.68-1.63,6.66-.88l43.4,16.66c1.96.75,2.19,2.37.48,3.62l-60.17,43.71ZM408.31,70.34l-4.59-1.76c-.77-.29-1.91-.14-2.57.34-.66.48-.58,1.1.18,1.4l4.59,1.76c.77.29,1.91.14,2.57-.34.66-.48.58-1.1-.18-1.4ZM426.96,70.89c-4.99-1.92-12.59-.91-16.92,2.23-4.32,3.14-3.78,7.27,1.21,9.19,4.99,1.92,12.59.91,16.92-2.23,4.33-3.14,3.78-7.27-1.21-9.18ZM413.64,80.57c-3.48-1.33-3.85-4.21-.84-6.39,3.01-2.19,8.3-2.88,11.77-1.55,3.47,1.33,3.85,4.21.84,6.39-3.01,2.19-8.3,2.88-11.77,1.55ZM438.93,82.1l-4.59-1.76c-.77-.29-1.91-.14-2.57.34-.66.48-.58,1.1.18,1.4l4.59,1.76c.77.29,1.91.14,2.57-.34.66-.48.58-1.1-.18-1.4ZM482.5,50.21l-34.77-13.35c-2.57-.99-6.47-.47-8.69,1.14l-18.19,13.22c-2.23,1.62-1.94,3.74.62,4.72l34.77,13.35c2.57.99,6.47.47,8.69-1.14l18.19-13.22c2.23-1.62,1.94-3.74-.62-4.72ZM462.16,67.09c-.92.66-2.5.87-3.54.47l-34.77-13.35c-1.06-.41-1.16-1.27-.25-1.92l18.19-13.22c.92-.67,2.5-.87,3.54-.47l34.77,13.35c1.06.41,1.16,1.27.25,1.92l-18.19,13.22Z"></path><path class="st3" d="M636.43,299.01c-1.73-.66-4.36-.32-5.86.77-1.5,1.09-1.31,2.52.42,3.18,1.73.66,4.36.32,5.86-.77,1.5-1.09,1.31-2.52-.42-3.18ZM649.48,315.03l15.83-11.5c2.49-1.81,2.2-4.2-.7-5.31l-35.47-13.62c-2.88-1.11-7.25-.53-9.76,1.29l-16.44,11.94c-4.11-.06-8.52,1.09-11.45,3.22l-33.23,24.15c-2.93,2.13-3.64,4.7-2.27,6.75l-17.76,12.91c-2.49,1.81-2.18,4.19.7,5.29l35.47,13.62c2.88,1.11,7.27.54,9.76-1.28l17.15-12.46c4.66.58,10.14-.57,13.59-3.08l33.23-24.15c3.45-2.51,3.82-5.62,1.35-7.78ZM623.97,287.66c.3-.22.85-.29,1.18-.16l35.47,13.62c.35.14.39.43.09.65l-15.36,11.16-36.74-14.11,15.36-11.16ZM579.56,360.73c-.3.22-.83.28-1.19.15l-35.47-13.62c-.35-.14-.38-.42-.08-.64l16.7-12.14,36.74,14.1-16.7,12.14ZM610.31,345.19c-2.17,1.58-5.98,2.08-8.49,1.12l-38.35-14.72c-2.51-.96-2.78-3.03-.61-4.61l1.5-1.09,47.46,18.22-1.5,1.09h-.02ZM614.2,342.36l-47.46-18.22,25.47-18.51,47.46,18.22-25.47,18.51ZM642.06,322.12l-47.46-18.22,1.49-1.08c2.18-1.58,5.98-2.08,8.49-1.12l38.35,14.72c2.51.96,2.78,3.03.61,4.61l-1.49,1.08h.02ZM622.73,327.67l.15.06-8.09,5.88c-.66.48-.58,1.1.18,1.4.76.29,1.91.14,2.57-.34l9.29-6.75c.66-.48.58-1.1-.18-1.4l-1.53-.59c-.77-.29-1.91-.14-2.57.34-.66.48-.58,1.1.18,1.4ZM589.05,314.74l.15.06-8.09,5.88c-.66.48-.58,1.1.18,1.4.77.29,1.91.14,2.57-.34l9.29-6.75c.66-.48.58-1.1-.18-1.4l-1.53-.59c-.77-.29-1.91-.14-2.57.34-.66.48-.58,1.1.18,1.4ZM596.7,317.68l.15.06-8.09,5.88c-.66.48-.58,1.1.18,1.4.77.29,1.91.14,2.57-.34l9.29-6.75c.66-.48.58-1.1-.18-1.4l-1.53-.59c-.77-.29-1.91-.14-2.57.34-.66.48-.58,1.1.18,1.4ZM595.07,327.36c.77.29,1.91.14,2.57-.34l2.65-1.93c.66-.48.58-1.1-.18-1.4-.77-.29-1.91-.14-2.57.34l-2.65,1.93c-.66.48-.58,1.1.18,1.4ZM601.7,322.54c.77.29,1.91.14,2.57-.34l2.65-1.93c.66-.48.58-1.1-.18-1.4-.77-.29-1.91-.14-2.57.34l-2.65,1.93c-.66.48-.58,1.1.18,1.4ZM601.19,329.71l6.12,2.35c.77.29,1.91.14,2.57-.34l9.29-6.75c.66-.48.58-1.1-.18-1.4l-6.12-2.35c-.77-.29-1.91-.14-2.57.34l-9.29,6.75c-.66.48-.58,1.1.18,1.4ZM611.86,323.49l3.37,1.29-6.9,5.01-3.37-1.29,6.9-5.01Z"></path><path class="st3" d="M264.7,94.78l-24.5-9.4c-.76-.29-1.91-.14-2.57.34-.66.48-.58,1.1.18,1.4l24.5,9.4c.77.29,1.91.14,2.57-.34.66-.48.58-1.1-.18-1.4ZM301.23,95.4l15.35-15.37c3.43-3.44,2.29-7.34-2.73-9.27l-47.26-18.14c-5.02-1.93-12.39-1.3-17.54,1.49l-22.94,12.45c-5.15-1.83-12.76-.79-17.14,2.39l-21.76,15.81c-1.1.8-.96,1.84.31,2.33l88.8,34.09c1.27.49,3.19.24,4.29-.57l21.76-15.81c4.43-3.22,3.91-7.41-1.12-9.42h0ZM252.91,56.35c2.85-1.54,6.93-1.89,9.7-.83l47.26,18.14c2.77,1.06,3.4,3.22,1.5,5.13l-14.8,14.81-65.8-25.26,22.11-12h.02ZM208.52,74.38l16.99,6.52-5.57,4.05-16.99-6.52,5.57-4.05ZM287.15,110.75l-15.46-5.94,5.57-4.05,15.46,5.93-5.57,4.05ZM295.11,104.97l-16.84-6.46c-.77-.29-1.91-.14-2.57.34l-7.96,5.78c-.66.48-.58,1.1.18,1.4l16.84,6.46-6.77,4.92-84.2-32.32,6.77-4.92,18.37,7.05c.77.29,1.91.14,2.57-.34l7.96-5.78c.66-.48.58-1.1-.18-1.4l-18.37-7.05,2.65-1.93c2.27-1.65,6.24-2.17,8.86-1.17l74.7,28.67c2.62,1,2.9,3.16.63,4.81l-2.65,1.93h.01ZM253.47,97.82l-16.84-6.46c-.77-.29-1.91-.14-2.57.34-.66.48-.58,1.1.18,1.4l16.84,6.46c.76.29,1.91.14,2.57-.34.66-.48.58-1.1-.18-1.4Z"></path><path class="st3" d="M188.2,105.05l-2.59-.99c-4.78-1.83-5.28-5.77-1.15-8.77l10.42-7.57c1.1-.8,3.01-1.05,4.29-.56,1.27.49,1.41,1.53.31,2.33l-10.41,7.57c-1.94,1.41-1.69,3.25.54,4.11l2.59.99c2.23.86,5.65.42,7.59-.99l10.41-7.57c1.1-.8,3.02-1.05,4.29-.56,1.27.49,1.41,1.53.31,2.33l-10.41,7.57c-4.14,3.01-11.39,3.95-16.16,2.12Z"></path><path class="st3" d="M247.9,127.97l-2.59-.99c-4.78-1.83-5.28-5.77-1.15-8.77l10.42-7.57c1.1-.8,3.02-1.05,4.29-.56,1.27.49,1.41,1.53.31,2.33l-10.41,7.57c-1.94,1.41-1.69,3.25.54,4.11l2.59.99c2.23.86,5.65.42,7.59-.99l10.41-7.57c1.1-.8,3.02-1.05,4.29-.57,1.27.49,1.41,1.53.31,2.33l-10.41,7.57c-4.14,3.01-11.39,3.95-16.16,2.12Z"></path><path class="st3" d="M421.91,29.37c.18-.59-.2-1.15-1.01-1.46L355.32,2.73c-4.72-1.81-11.86-.87-15.95,2.1l-19.79,14.38c-1.1.8-.96,1.84.31,2.33l17.61,6.76-5.86,4.26c-3.72-.29-7.95.67-10.67,2.65-1.09.79-1.76,1.65-2.14,2.52l-23.55,3.1c-1.69.22-2.95,1.14-2.81,2.04.06.45.46.82,1.04,1.05.58.22,1.38.31,2.21.2l23.52-3.1c.58.77,1.47,1.45,2.76,1.94,4.22,1.62,10.63.78,14.29-1.88,3.2-2.32,3.24-5.28.38-7.07l5.44-3.95,35.98,13.81c1.27.49,3.18.24,4.29-.56l11.28-8.19,4.01,1.54c.84.32,2.04.32,3.07.01l19.29-5.85c.99-.3,1.72-.86,1.9-1.45h.01ZM331.68,39.32c-1.46,1.06-4.03,1.4-5.72.75-1.68-.65-1.87-2.04-.41-3.1,1.46-1.06,4.03-1.4,5.71-.75,1.68.65,1.87,2.04.41,3.1ZM379.75,40.1l-53.58-20.57,9.29-6.75,53.58,20.57-9.29,6.75ZM400.24,33.23l-60.81-23.34,4.54-3.3c1.88-1.37,5.2-1.81,7.37-.97l61.76,23.71-12.86,3.9Z"></path><path class="st3" d="M604.58,188.28l-69.61-26.72c-8.91-3.42-11.11-10.44-5.12-16.34,3.71-3.65,9.79-6.43,16.7-7.66,6.8-1.2,13.69-.77,18.94,1.18,13.87-6.36,32.52-7.49,45.29-2.59,10.15,3.9,14.74,10.8,12.27,18.23,8.58,2.42,10.55,8.52,5.38,13.59l2.4.92c7.29,2.8,9.39,8.38,5,13.26-2.99,3.33-8.2,5.93-14.3,7.11-6.09,1.18-12.28.83-16.95-.97v-.02ZM561.7,141.7c-3.92-1.5-9.12-1.85-14.27-.94-5.21.92-9.63,2.95-12.43,5.72-4.45,4.38-2.76,9.61,3.93,12.17l69.61,26.72c3.28,1.26,7.6,1.5,11.86.68,4.27-.82,7.92-2.64,10.03-5.01,3.04-3.4,1.52-7.31-3.62-9.29l-4.52-1.73c-1.27-.49-1.41-1.53-.31-2.33,5.31-3.86,3.9-9.11-3.81-10.6-1.25-.24-1.9-.96-1.55-1.74,2.91-6.63-.88-12.89-9.87-16.34-11.25-4.32-27.96-3.04-39.72,3.03-1.24.65-2.99.73-4.07.21-.4-.2-.84-.38-1.28-.55h.01Z"></path><path class="st3" d="M701.02,173.88l36.62-26.6c1.1-.8.97-1.84-.31-2.33-1.27-.49-3.18-.24-4.29.56l-37.04,26.91c-3.72-.29-7.95.68-10.67,2.65-3.66,2.66-3.2,6.14,1.02,7.76,4.22,1.62,10.63.78,14.29-1.88,3.2-2.32,3.24-5.28.38-7.07ZM690.33,179.94c-1.68-.65-1.87-2.04-.41-3.1,1.46-1.06,4.03-1.4,5.72-.75,1.68.65,1.87,2.04.41,3.1-1.46,1.06-4.03,1.4-5.72.75ZM723.86,175.14l-7.66-2.94c-1.27-.49-3.19-.23-4.29.57-1.1.8-.96,1.84.31,2.33l7.65,2.94c1.27.49,3.18.23,4.29-.57,1.1-.8.96-1.84-.31-2.33ZM751.72,154.89l-7.65-2.94c-1.27-.49-3.19-.24-4.29.57-1.1.8-.96,1.84.31,2.33l7.66,2.94c1.27.49,3.19.24,4.29-.56s.96-1.84-.31-2.33ZM766.51,144.37l-24.89-9.56c-6.22-2.39-15.67-1.14-21.06,2.77l-53.41,38.81c-5.39,3.91-4.71,9.05,1.51,11.44l24.89,9.56c6.22,2.39,15.67,1.14,21.06-2.77l53.41-38.81c5.39-3.91,4.71-9.05-1.51-11.43ZM710.01,192.85c-3.2,2.32-8.8,3.06-12.49,1.64l-24.89-9.55c-3.69-1.42-4.09-4.46-.89-6.78l53.41-38.81c3.2-2.32,8.8-3.06,12.49-1.64l24.89,9.56c3.69,1.42,4.09,4.46.89,6.78l-53.41,38.81ZM742.43,161.64l-7.65-2.94c-1.27-.49-3.19-.24-4.29.56-1.1.8-.96,1.84.31,2.33l7.65,2.94c1.27.49,3.19.24,4.29-.56,1.1-.8.96-1.84-.31-2.33ZM733.15,168.39l-7.66-2.94c-1.27-.49-3.19-.24-4.29.56s-.96,1.84.31,2.33l7.65,2.94c1.27.49,3.19.24,4.29-.56,1.1-.8.96-1.84-.31-2.33Z"></path><path class="st3" d="M289.13,184.56l-4.42,3.21c-.54.4-.47.92.15,1.16.63.24,1.6.11,2.14-.28l4.42-3.21c3.08.67,7.06-.03,9.46-1.77,2.75-2,2.4-4.6-.77-5.82-3.17-1.22-7.97-.58-10.72,1.41-2.4,1.74-2.44,3.97-.28,5.3ZM298.14,179.29c1.9.73,2.11,2.3.46,3.49-1.64,1.2-4.53,1.58-6.43.85-1.9-.73-2.11-2.3-.46-3.49,1.65-1.2,4.53-1.58,6.43-.85ZM326.03,178.58l-3.83-1.47,5.03-3.65c6.95-5.05,6.08-11.66-1.94-14.74-8.02-3.08-20.2-1.48-27.15,3.57l-5.03,3.65-3.83-1.47c-1.27-.49-3.18-.24-4.29.56l-27.86,20.24c-1.1.8-.96,1.84.31,2.33l36.74,14.1c1.27.49,3.18.24,4.29-.56l27.86-20.24c1.1-.8.96-1.84-.31-2.33ZM302.73,164.05c4.75-3.45,13.09-4.55,18.58-2.45,5.48,2.1,6.08,6.63,1.33,10.09l-5.03,3.65-19.9-7.64,5.03-3.65ZM295.87,197.94l-32.15-12.34,23.88-17.35,32.15,12.34-23.88,17.35Z"></path><path class="st3" d="M559.53,372.81l-47.83-18.36c-1.27-.49-3.18-.24-4.29.56-28.71,20.86-29.02,36.15-24.24,45.31.16.31.49.56.94.73.44.17.99.26,1.6.25,17.97-.42,45.42-5.31,74.12-26.16,1.1-.8.96-1.84-.31-2.33ZM488.52,397.85c-4.44-9.9.5-21.41,14.29-33.7l41.99,16.12c-17.88,10.73-37.1,16.75-56.3,17.58h.02ZM547.45,378.63l-42.52-16.32c1.61-1.36,3.29-2.71,5.1-4.08l43.19,16.58c-1.9,1.33-3.83,2.6-5.78,3.82ZM500.93,378.91l1.39,6.01c.1.42.48.76,1.01.96.61.24,1.44.32,2.32.18l22.07-3.37c1.67-.26,2.88-1.19,2.69-2.09-.19-.9-1.68-1.43-3.35-1.17l-19.08,2.91-1.02-4.41c-.2-.89-1.71-1.41-3.39-1.14-1.66.27-2.83,1.21-2.64,2.11Z"></path><path class="st3" d="M499.05,142.58c.89-3.21-.79-6.23-4.85-8.71-4.25-2.6-13.19-5.02-21.52-5.92-.01-.2-.05-.4-.09-.6,2.84-.62,5.82-1.05,8.96-1.49,4.54-.65,9.22-1.31,14.12-2.62,9.59-2.58,15.29-6.45,15.62-10.61.41-5.07-7.22-9.21-20.41-11.06-10.17-1.43-18.81-1-25.65,1.28-5.28,1.76-9.23,4.6-11.45,8.23-2.42,3.95-2.27,9.22-1.03,13.04-.26.12-.55.25-.81.38-1.32-.88-2.58-1.83-3.85-2.83-2.42-1.9-4.9-3.85-8.52-5.54-7.09-3.27-15.07-3.82-21.93-1.49-8.36,2.85-12.78,9.18-11.81,16.95.73,5.86,3.91,9.9,9.42,12.01.14.05.26.1.4.15,4.44,1.6,10.25,1.89,16.81.83,7.52-1.21,16.86-4.84,22.94-8.06.31.03.62.06.94.08-.98,1.54-2.3,3.08-3.69,4.68-2.08,2.41-4.25,4.91-5.55,7.77-2.37,5.21-.75,9.23,4.44,11.22.4.15.79.29,1.23.41,7.5,2.2,19.04.19,30.84-5.35,9.1-4.28,14.31-8.56,15.46-12.73h-.03ZM431.68,141.32c-4.91.8-9.02.62-12.19-.51-4.39-1.57-6.99-5.04-7.6-10.02-.78-6.24,2.39-11.36,8.24-13.35,4.4-1.49,9.93-.97,15.1,1.44,3.14,1.46,5.46,3.28,7.68,5.03,1.57,1.24,3.21,2.5,5.09,3.65-2.1,2.71-1.33,5.66,2.07,7.47-5.83,2.89-13.23,5.47-18.4,6.3ZM455.27,132.68c-2.86-1.1-3.17-3.46-.69-5.26,2.48-1.8,6.83-2.37,9.69-1.28,2.86,1.1,3.17,3.46.69,5.26-2.48,1.8-6.82,2.37-9.69,1.28ZM470.4,124.41c-.61-.43-1.33-.82-2.17-1.14-2.79-1.07-6.3-1.28-9.71-.8-1.08-3.77-.74-8.05.95-10.8,1.66-2.72,4.42-4.74,8.18-5.99,5.18-1.72,12.38-2.01,20.83-.82,10.6,1.49,17.01,4.63,16.7,8.18-.21,2.67-4.38,5.29-11.41,7.18-4.25,1.15-8.61,1.76-12.79,2.35-3.48.49-7.06,1.02-10.59,1.83h.02ZM480.14,152.88c-9.49,4.46-18.65,6.28-23.9,4.73-3.95-1.18-5.16-4.18-3.27-8.28,1.13-2.48,3.13-4.79,5.06-7.03,1.73-2,3.48-4.06,4.63-6.24,2.58-.57,5-1.54,6.87-2.9.8-.58,1.43-1.19,1.93-1.81,7.03.84,14.51,2.89,17.93,5,3.04,1.87,4.28,3.98,3.65,6.26-.87,3.15-5.33,6.69-12.9,10.25h0Z"></path><path class="st3" d="M150.52,254.83c-4.67-1.79-5.18-5.64-1.12-8.59,1.35-.98,3.1-1.77,5.06-2.3l12.78-3.42c1.01-.27,2.12-.25,2.92.06.8.31,1.19.85,1,1.45l-2.23,7.48c-.34,1.15-1.23,2.27-2.58,3.25-4.05,2.94-11.15,3.88-15.83,2.08v-.02ZM164.33,244.8l-8.03,2.15c-.88.24-1.69.6-2.32,1.05-1.86,1.35-1.62,3.12.5,3.93,2.13.82,5.4.39,7.26-.96.62-.45,1.02-.96,1.18-1.49l1.39-4.7h.02Z"></path><path class="st3" d="M240.91,238.72c-1.27-.49-3.19-.24-4.29.57l-.66.48-7.79-2.99c.51-3.11-1.35-6.03-5.06-8.07l7.75-5.63,8.42,3.23c1.27.49,3.18.24,4.29-.56,1.1-.8.96-1.84-.31-2.33l-19.9-7.64c-1.27-.49-3.18-.24-4.29.56-1.1.8-.96,1.84.31,2.33l6.89,2.64-7.68,5.58c-4.93-1.35-10.97-1.41-16.58-.16l-1.93-.74c-8.07-3.1-20.33-1.48-27.32,3.6l-6.55,4.76c-1.1.8-.96,1.84.31,2.33l12.25,4.7c1.27.49,3.18.24,4.29-.56l4.09-2.97c-.4,3.6,2.31,6.87,7.43,8.83,5.39,2.07,12.59,2.34,19.2.79l7.61,2.92-3.32,2.41c-1.1.8-.96,1.84.31,2.33,1.27.49,3.18.24,4.29-.56l18.57-13.49c1.1-.8.97-1.84-.31-2.33v-.02ZM225.35,247.48l-8.88-3.41c-.83-.32-1.98-.33-3.03-.03-5,1.46-10.71,1.35-14.92-.26-3.9-1.5-5.88-4.04-5.26-6.81.24-1.04-.46-1.98-1.86-2.51l-.26-.1c-2.27-.87-5.65-.45-7.58.95l-3.16,2.29-7.65-2.94,4.56-3.32c4.8-3.49,13.2-4.6,18.75-2.47l3.17,1.22c.81.31,1.93.33,2.96.04,4.91-1.36,10.51-1.23,14.61.35,4.1,1.57,6.07,4.35,5.14,7.23-.2.6.18,1.16.99,1.47l9.03,3.47-6.63,4.82h.01Z"></path><path class="st3" d="M715.43,83.51c-22.8-8.75-57.4-4.19-77.16,10.16-19.76,14.35-17.28,33.14,5.51,41.89,22.8,8.75,57.4,4.2,77.16-10.16,19.75-14.35,17.28-33.14-5.52-41.89ZM698.75,83.2c-7.08.86-15.2,3.27-23.36,6.93-2.4-1.91-4.26-3.87-5.54-5.85,9.6-1.96,19.7-2.38,28.9-1.07ZM666.31,85.08c1.39,2.18,3.42,4.36,6.08,6.46-4.89,2.38-9.74,5.19-14.35,8.37l-13.93-5.35c6.23-4.24,13.95-7.45,22.2-9.5v.02ZM631.35,110.87c1.02-4.93,4.46-9.97,10.37-14.55l13.9,5.34c-4.65,3.43-8.53,6.89-11.52,10.24-4.33-.63-8.62-.98-12.75-1.02ZM631.08,112.9c3.69.06,7.52.37,11.4.93-3.58,4.46-5.58,8.64-5.79,12.18-4.07-3.85-5.94-8.38-5.59-13.11h-.02ZM646.45,132.12c-2.08-.87-3.95-1.84-5.61-2.89-1.52-3.72.28-9.03,4.98-14.85,6.16,1.1,12.35,2.79,18.17,5l-17.55,12.75h.01ZM666.39,117.63c-6.04-2.29-12.48-4.05-18.91-5.2,2.85-3.18,6.52-6.47,10.93-9.73l18.66,7.16-10.68,7.76ZM679.46,108.14l-18.65-7.16c4.34-3,8.96-5.68,13.61-7.93,4.04,2.85,9.14,5.5,15.07,7.8l-10.03,7.29ZM691.88,99.11c-5.7-2.22-10.6-4.76-14.44-7.47,11.75-5.27,23.31-7.79,30.79-6.36.62.19,1.26.4,1.85.61l-18.2,13.22ZM727.96,107.87c-.94,5.03-4.38,10.21-10.43,14.88l-15.46-5.93c4.37-3.33,7.97-6.68,10.76-9.91,5.17.73,10.29,1.06,15.11.95h.02ZM728.2,105.84c-4.41.09-9.04-.21-13.77-.88,4.25-5.48,6.03-10.53,5.04-14.42,6.06,4.21,9.01,9.62,8.71,15.29h.02ZM712.77,86.98c5.08,3.26,4.18,9.88-1.69,17.46-5.55-.97-11.1-2.42-16.44-4.29l18.12-13.17ZM692.25,101.88c5.55,1.97,11.39,3.49,17.22,4.51-2.65,3.05-6.07,6.23-10.16,9.37l-17.12-6.57,10.06-7.31ZM679.81,110.92l17.13,6.58c-4.54,3.25-9.4,6.13-14.28,8.56-3.65-2.65-8.24-5.15-13.56-7.36l10.71-7.78ZM653.74,134.53c-1.56-.39-3.08-.86-4.54-1.38l17.53-12.73c5.11,2.12,9.48,4.52,12.98,7.04-9.36,4.29-18.68,6.84-25.95,7.05h-.01ZM660.34,135.83c6.6-1.12,13.95-3.47,21.31-6.83,2.45,2.03,4.32,4.12,5.5,6.21-8.96,1.6-18.28,1.85-26.81.62ZM690.73,134.49c-1.28-2.33-3.36-4.66-6.1-6.91,5.17-2.55,10.27-5.59,15.06-9.02l15.43,5.92c-6.78,4.62-15.33,8.01-24.4,10.01Z"></path><path class="st3" d="M371.34,235.75c-1.27-.49-1.41-1.53-.31-2.33l15.92-11.57c1.1-.8,3.02-1.05,4.29-.56s1.41,1.53.31,2.33l-15.92,11.57c-1.1.8-3.02,1.05-4.29.56Z"></path><path class="st3" d="M292.6,217.31l-6.12-2.35,3.98-2.89,6.12,2.35-3.98,2.89ZM280.36,212.61l-6.12-2.35,3.98-2.89,6.12,2.35-3.98,2.89ZM268.11,207.91l-6.12-2.35,3.98-2.89,6.12,2.35-3.98,2.89ZM255.86,203.21l-6.12-2.35,3.98-2.89,6.12,2.35-3.98,2.89ZM244.07,197.35c-1.28-1.32-2.02-2.8-2.23-4.36l-.04-.33,6.06-.8.04.33c.17,1.15.7,2.23,1.63,3.2l-5.47,1.97h.01ZM241.22,188.27l-.58-4.39,6.06-.8.58,4.39-6.06.8Z"></path><path class="st3" d="M188.44,209.56l-.43-3.29,8.09-1.06.43,3.29-8.09,1.07ZM204.61,207.43l-.43-3.29,5.2-.68c1.11-.15,2.24-.25,3.35-.31l-.46,3.38c-.81.04-1.63.11-2.44.23l-5.2.68h-.02ZM218.78,206.96l2.85-3.21c1.52.3,2.94.7,4.24,1.2l2.76,1.06-3.98,2.89-2.76-1.06c-.95-.36-1.99-.66-3.11-.89ZM273.63,227.7l-6.12-2.35,3.98-2.89,6.12,2.35-3.98,2.89ZM261.38,223l-6.12-2.35,3.98-2.89,6.12,2.35-3.98,2.89ZM249.13,218.3l-6.12-2.35,3.98-2.89,6.12,2.35-3.98,2.89ZM236.88,213.6l-6.12-2.35,3.98-2.89,6.12,2.35-3.98,2.89Z"></path><path class="st3" d="M309.55,213.5l-4.59-1.76,5.28-3.84,4.59,1.76-5.28,3.84ZM320.13,205.81l-4.59-1.76,5.31-3.86,4.59,1.76-5.31,3.86ZM330.75,198.1l-4.59-1.76,5.31-3.85,4.59,1.76-5.31,3.85ZM341.36,190.39l-4.59-1.76,5.31-3.86,4.59,1.76-5.31,3.86ZM351.97,182.68l-4.59-1.76.88-.64c1.34-.97,2.5-2,3.45-3.07l5.38,1.08c-1.17,1.31-2.57,2.56-4.2,3.75l-.88.64h-.03ZM354.22,173.24c.52-1.35.73-2.71.62-4.04l6.07-.72c.16,1.62-.1,3.29-.76,4.94l-5.93-.18ZM353.52,165.4c-.76-1.2-1.83-2.31-3.17-3.29l5.06-2.32c1.66,1.21,2.95,2.56,3.89,4.04l-5.77,1.57h-.02ZM307.73,145.04c-1.85-.71-3.52-1.56-4.98-2.5l4.9-2.44c1.18.78,2.55,1.46,4.06,2.05l1.07.41-3.98,2.89-1.09-.42h.02ZM345.56,159.56l-6.12-2.35,3.98-2.89,6.11,2.34-3.98,2.89h.02ZM333.31,154.86l-6.12-2.35,3.98-2.89,6.12,2.35-3.98,2.89ZM321.06,150.16l-6.12-2.35,3.98-2.89,6.12,2.35-3.98,2.89ZM298.51,138.64c-1.08-1.43-1.74-2.97-2.04-4.57l6.05-.88c.23,1.31.79,2.57,1.65,3.73l-5.67,1.73h.01ZM295.67,129.74l-.88-4.34,6.04-.92.88,4.34-6.04.92ZM293.9,121.05l-.88-4.34,6.04-.92.88,4.34-6.04.92Z"></path><path class="st3" d="M466.2,179.59l-4.59-1.76,5.31-3.86,4.59,1.76-5.31,3.86ZM476.81,171.88l-4.59-1.76,5.31-3.86,4.59,1.76-5.31,3.86ZM487.43,164.17l-4.59-1.76,5.31-3.86,4.59,1.76-5.31,3.86ZM498.04,156.45l-4.59-1.76,5.31-3.85,4.59,1.76-5.31,3.85ZM508.65,148.74l-4.59-1.76,5.31-3.86,4.59,1.76-5.31,3.86ZM519.27,141.03l-4.59-1.76,5.31-3.86,4.59,1.76-5.31,3.86ZM529.88,133.32l-4.59-1.76,5.31-3.85,4.59,1.76-5.31,3.86ZM540.49,125.61l-4.59-1.76,2.59-1.88c.77-.56,1.45-1.15,2.01-1.76l5.31,1.12c-.76.83-1.67,1.64-2.73,2.41l-2.59,1.88h.01ZM542.49,116.44c.22-1.28-.05-2.51-.78-3.65l5.78-1.58c.99,1.54,1.34,3.23,1.06,4.98l-6.06.25ZM538.29,109.88c-.47-.24-.98-.46-1.5-.66l-4.26-1.63,3.98-2.89,4.26,1.63c.7.27,1.38.58,2.01.9l-4.52,2.65h.03ZM526.42,105.24l-6.12-2.35,3.98-2.89,6.12,2.35-3.98,2.89ZM514.17,100.54l-6.12-2.35,3.98-2.89,6.12,2.35-3.98,2.89ZM501.92,95.83l-6.12-2.35,3.98-2.89,6.12,2.35-3.98,2.89ZM489.67,91.13l-6.12-2.35,3.98-2.89,6.12,2.35-3.98,2.89ZM477.42,86.43l-6.12-2.35,3.98-2.89,6.12,2.35-3.98,2.89Z"></path><path class="st3" d="M490.2,216.55l-6.12-2.35,3.98-2.89,6.12,2.35-3.98,2.89ZM477.95,211.85l-6.12-2.35,3.98-2.89,6.12,2.35-3.98,2.89Z"></path><path class="st3" d="M471.18,186.29l-.43-3.29,8.09-1.06.43,3.29-8.09,1.07ZM487.35,184.16l-.43-3.29,8.09-1.07.43,3.29-8.09,1.06ZM503.53,182.03l-.43-3.29,8.09-1.06.43,3.29-8.09,1.07ZM519.7,179.9l-.43-3.29,8.09-1.07.43,3.29-8.09,1.06ZM535.59,177.84l.11-3.35c3.15-.26,6.19-.16,9.07.3l-2.53,3.27c-2.09-.33-4.33-.41-6.63-.22h-.02ZM652.2,219.79l-6.12-2.35,3.98-2.89,6.12,2.35-3.98,2.89ZM639.95,215.08l-6.12-2.35,3.98-2.89,6.12,2.35-3.98,2.89ZM627.71,210.38l-6.12-2.35,3.98-2.89,6.12,2.35-3.98,2.89ZM615.46,205.68l-6.12-2.35,3.98-2.89,6.12,2.35-3.98,2.89ZM603.21,200.98l-6.12-2.35,3.98-2.89,6.12,2.35-3.98,2.89ZM590.96,196.28l-6.12-2.35,3.98-2.89,6.12,2.35-3.98,2.89ZM578.71,191.58l-6.12-2.35,3.98-2.89,6.12,2.35-3.98,2.89ZM566.47,186.88l-6.12-2.35,3.98-2.89,6.12,2.35-3.98,2.89ZM554.22,182.17l-6.12-2.35,3.98-2.89,6.12,2.35-3.98,2.89Z"></path><path class="st3" d="M518.12,277.05c1.18-1.2,1.93-2.46,2.23-3.74l6.03-.13c-.41,1.76-1.43,3.47-3.05,5.11l-5.22-1.24h.01ZM519.81,269.63c-.63-1.16-1.71-2.16-3.19-3.01l4.66-2.57c2.03,1.15,3.5,2.52,4.36,4.11l-5.84,1.47ZM511.02,264.32l-6.12-2.35,3.98-2.89,6.12,2.35-3.98,2.89ZM498.77,259.62l-6.12-2.35,3.98-2.89,6.12,2.35-3.98,2.89ZM486.52,254.92l-6.12-2.35,3.98-2.89,6.12,2.35-3.98,2.89ZM474.28,250.22l-6.12-2.35,3.98-2.89,6.12,2.35-3.98,2.89ZM462.03,245.52l-6.12-2.35,3.98-2.89,6.12,2.35-3.98,2.89ZM449.78,240.82l-6.12-2.35,3.98-2.89,6.12,2.35-3.98,2.89Z"></path><path class="st1" d="M295.98,298.09c-.41-1.08-.98-2.11-1.66-3.11-.68-1-1.46-1.96-2.29-2.9s-1.71-1.86-2.59-2.77c1.09-.27,2.89-1.24,4.22-2.81.17-.2.33-.4.48-.61.15-.21.29-.44.42-.67.13-.23.25-.47.36-.71.11-.25.21-.5.29-.76.34-1.04.46-2.18.39-3.35-1.51.61-2.78,1.24-3.81,1.88-.51.32-.97.64-1.37.96-.2.16-.39.32-.57.48-.17.16-.33.32-.48.48-.15.16-.29.32-.41.47-.06.08-.12.16-.18.23-.06.08-.11.15-.16.23-.2.31-.37.61-.5.89-.12.29-.21.56-.27.83-.06.26-.08.51-.08.74-.57-.58-1.12-1.17-1.67-1.77l-.4-.45-.2-.22-.19-.23-.38-.45-.37-.46c.49-.1,1.17-.35,1.9-.74.18-.1.37-.2.56-.32.19-.11.38-.24.57-.37.38-.26.77-.56,1.13-.88.37-.32.74-.67,1.08-1.05.08-.09.17-.19.26-.29.08-.1.17-.19.25-.29.16-.2.31-.4.47-.61.16-.21.3-.42.43-.64.15-.21.28-.43.4-.65.03-.05.07-.11.1-.17.03-.05.07-.11.1-.17.06-.11.12-.22.18-.34l.02-.04.02-.04s.03-.06.05-.09c.03-.06.06-.11.09-.17.06-.11.11-.23.16-.34-1.51.36-2.8.77-3.92,1.22-.28.11-.55.23-.8.34-.25.12-.48.24-.71.36-.45.24-.86.49-1.22.75-.7.5-1.24,1.03-1.6,1.52-.38.5-.57.97-.67,1.39l-.31-.5c-.05-.08-.11-.17-.15-.25l-.14-.25-.14-.25c-.05-.08-.1-.17-.13-.25l-.25-.51-.06-.13-.05-.13-.11-.26c-.07-.17-.15-.35-.2-.52l-.17-.53c-.05-.18-.09-.36-.14-.54.44-.02,1.1-.16,1.88-.41.39-.13.8-.28,1.24-.46.43-.18.87-.38,1.33-.61.46-.23.91-.48,1.38-.75.11-.07.23-.14.35-.21.11-.07.23-.14.34-.22.23-.15.46-.3.68-.46.91-.63,1.78-1.33,2.61-2.14-.71.05-1.38.11-2.01.2-.63.08-1.23.19-1.79.3-1.13.24-2.1.54-2.94.89-.41.17-.79.36-1.14.55-.18.1-.33.19-.49.29-.15.1-.3.2-.43.29-.07.05-.14.1-.2.15-.06.05-.12.1-.18.15-.12.1-.22.2-.33.29-.05.05-.1.1-.15.15-.05.05-.09.1-.13.14-.08.09-.15.19-.22.28-.09-1.65.24-3.36.96-5.05.34.07.93.07,1.68-.02.19-.02.38-.05.59-.08.21-.03.42-.07.64-.11.45-.09.92-.19,1.41-.33.49-.13,1.01-.28,1.53-.46.26-.09.53-.18.8-.28.13-.05.27-.1.4-.15.13-.05.27-.11.41-.16,1.08-.44,2.18-.98,3.3-1.62-.6-.07-1.18-.12-1.75-.14-.56-.02-1.1-.02-1.62,0-.26.01-.52.03-.77.05-.12,0-.25.02-.37.04-.12.01-.24.03-.36.04-.48.06-.93.14-1.36.24-.22.05-.42.1-.62.15-.2.05-.39.11-.59.17-.19.06-.37.12-.55.19-.17.07-.34.13-.5.2-.65.27-1.17.57-1.58.86.86-1.55,2.03-3.08,3.49-4.54.22.11.66.2,1.27.24.3.02.65.03,1.03.02.38,0,.8-.03,1.24-.08.22-.02.45-.05.68-.08.23-.03.47-.06.72-.11.25-.04.49-.08.74-.13.26-.05.52-.1.78-.16,1.05-.24,2.15-.56,3.32-.98-.88-.28-1.74-.47-2.57-.57-.21-.03-.42-.05-.62-.06-.2-.01-.4-.02-.6-.03-.4-.01-.79,0-1.17.02-.19.01-.37.03-.55.05-.18.02-.36.04-.53.07-.17.03-.34.06-.51.09-.17.03-.32.07-.48.11-.31.08-.6.16-.87.25-.27.09-.51.19-.73.28,1.62-1.44,3.52-2.8,5.67-4.03.1.13.38.27.82.4.44.13,1.04.24,1.75.3.09,0,.18.01.27.02.09,0,.19.01.29.02.2,0,.39.02.6.02.21,0,.42,0,.64,0,.22,0,.45-.01.68-.03.23-.01.47-.03.72-.05.25-.02.5-.05.75-.08.13-.02.26-.03.39-.05.13-.02.27-.04.4-.06.14-.02.27-.05.41-.07.14-.02.28-.05.42-.08-.28-.19-.57-.35-.86-.49-.29-.14-.6-.27-.9-.37-.3-.1-.61-.18-.92-.25-.15-.03-.31-.06-.46-.08-.08-.01-.15-.02-.23-.03-.08,0-.15-.02-.23-.02-.3-.03-.6-.05-.9-.05-.14,0-.29,0-.44,0-.14,0-.28.02-.42.02-.27.02-.53.05-.78.09-.25.04-.47.09-.68.14,1.92-1.01,4.02-1.9,6.21-2.68.01.12.15.28.43.45.28.17.7.35,1.24.49.13.04.28.07.43.1.15.03.31.06.48.09.17.03.34.05.52.07.18.02.37.04.56.06.19.02.4.03.61.04.11,0,.21,0,.32,0,.11,0,.22,0,.33,0,.23,0,.46,0,.7-.01.24,0,.49-.02.75-.04-.32-.39-.7-.7-1.12-.95-.21-.12-.43-.23-.66-.32-.23-.09-.46-.17-.7-.23-.12-.03-.24-.06-.35-.08-.12-.02-.24-.04-.35-.06-.23-.03-.47-.06-.7-.07-.11,0-.23-.01-.34-.01-.11,0-.21,0-.32,0-.21,0-.41.02-.59.04l.82-.26.83-.25.21-.06.21-.06.42-.12.42-.12.43-.11.43-.11.21-.06c.07-.02.14-.03.21-.05l.86-.21c.58-.13,1.15-.26,1.74-.38-.05.1-.02.25.13.43.15.18.41.38.78.57.19.1.4.19.65.28.12.04.26.08.39.12.14.04.29.08.44.11.15.04.32.07.49.1.08.02.17.03.26.04.09.01.18.03.27.04.19.02.38.05.59.06.1,0,.21.02.31.02s.22.01.33.02c-.13-.38-.35-.7-.61-.96-.27-.26-.59-.46-.94-.62-.09-.04-.17-.07-.26-.11-.09-.03-.18-.06-.27-.09-.18-.05-.37-.1-.55-.13-.36-.07-.71-.09-1.01-.1l.41-.08.2-.04.21-.04.82-.14c.28-.04.55-.08.83-.13.14-.02.28-.04.41-.06l.41-.06.41-.06.21-.03c.07,0,.14-.02.21-.03l.83-.1c.14-.02.28-.03.42-.04l.41-.04.41-.04.42-.03c-.18.12-.15.53.33.95.23.2.57.43,1.03.61.06.02.12.05.18.07.06.02.12.05.19.07.13.04.27.09.42.13.3.08.63.16.99.22,0-.36-.07-.67-.22-.93-.08-.13-.16-.25-.27-.35-.1-.11-.22-.2-.34-.28-.5-.34-1.13-.49-1.61-.54,1.35-.1,2.7-.15,4.04-.16,0,.04.05.09.14.15.05.03.1.05.16.08.06.03.13.06.21.09.32.12.78.22,1.36.3.14.02.3.03.46.04.16.01.33.03.5.03.17,0,.36.01.55.01.19,0,.39,0,.6,0,.83-.04,1.77-.12,2.89-.32-.69-.42-1.48-.69-2.27-.84-.2-.04-.39-.07-.58-.09-.19-.02-.38-.04-.57-.05-.19-.01-.37-.02-.55-.02-.18,0-.35,0-.52.02-.67.03-1.24.13-1.65.24-.21.05-.37.11-.49.17-.12.06-.2.11-.23.15-1.34,0-2.7.04-4.06.14.5-.1,1.19-.35,1.88-.73.17-.1.34-.2.51-.32.17-.12.33-.24.48-.38.31-.27.59-.59.79-.96-.52.09-.98.18-1.39.29-.21.06-.4.11-.58.17-.09.03-.18.06-.26.09-.09.03-.17.06-.24.1-.63.26-1.07.52-1.37.78-.3.25-.47.48-.53.66-.07.18-.04.3.04.35l-.42.03-.42.04-.42.04c-.14.01-.28.02-.42.04l-.84.09c-.14.01-.28.03-.42.05l-.42.05-.42.05c-.14.02-.28.04-.42.06-.28.04-.56.08-.84.12l-.84.14c-.07.01-.14.02-.21.03l-.21.04-.42.07c.28-.1.58-.25.91-.43.16-.09.32-.19.48-.3.08-.05.16-.11.24-.17.08-.06.16-.12.24-.18.31-.25.6-.55.84-.89.24-.33.43-.71.52-1.12-.14.04-.28.08-.42.12-.07.02-.13.04-.2.06-.06.02-.13.04-.19.06-.25.08-.49.17-.71.26-.11.04-.22.09-.32.13-.1.04-.2.09-.29.13-.19.09-.36.18-.52.27-.16.09-.31.18-.44.27-.13.09-.25.18-.36.26-.22.17-.39.34-.52.5-.26.32-.37.59-.39.81-.02.21.06.36.17.42-.59.11-1.18.24-1.77.37l-.88.2c-.15.03-.29.07-.44.11l-.44.11c-.15.04-.29.07-.43.11l-.43.12c-.29.08-.58.15-.86.24-.28.08-.57.17-.85.25l-.85.26c.14-.08.28-.17.42-.28s.29-.22.43-.34c.15-.12.29-.26.42-.4.07-.07.13-.15.2-.22.06-.08.13-.15.19-.23.12-.16.23-.33.33-.51.1-.18.18-.37.24-.57.13-.39.18-.82.1-1.28-.31.13-.59.25-.86.38-.26.13-.51.26-.73.38-.11.06-.22.12-.32.19-.1.06-.2.13-.29.19-.19.13-.36.25-.51.37-.15.12-.29.24-.41.36-.12.12-.23.23-.32.34-.09.11-.17.22-.23.32-.07.1-.12.2-.16.3-.17.39-.17.7-.1.94.08.24.23.4.39.46-1.13.39-2.24.81-3.32,1.26l-.4.17-.2.08c-.07.03-.13.06-.2.09l-.79.35c-.51.24-1.03.48-1.53.74.12-.11.23-.24.34-.38.12-.14.23-.29.33-.44.2-.32.38-.67.5-1.06.06-.2.1-.4.13-.61.02-.21.03-.43,0-.65-.02-.23-.07-.45-.15-.69-.08-.23-.19-.47-.35-.71-.16.09-.31.19-.45.28-.14.09-.28.19-.4.28-.13.09-.25.18-.37.27-.12.09-.23.18-.33.27-.21.18-.39.35-.56.52-.04.04-.08.08-.12.12-.04.04-.07.09-.11.12-.07.08-.14.16-.2.24-.12.16-.23.31-.31.46-.08.15-.15.29-.2.43-.11.27-.15.52-.15.74,0,.45.17.8.39,1.04.22.25.49.4.72.44-2.25,1.25-4.24,2.63-5.94,4.11.06-.14.11-.3.15-.47.04-.17.08-.34.09-.53,0-.09.01-.19,0-.29,0-.1,0-.2,0-.3-.01-.2-.05-.41-.11-.63-.05-.21-.13-.44-.24-.66-.05-.11-.11-.23-.18-.34-.06-.11-.14-.23-.22-.34-.33-.46-.79-.93-1.44-1.38-1.05,1.06-1.55,2-1.73,2.77-.04.19-.08.38-.08.55,0,.17,0,.34.03.49.01.08.03.15.05.23.02.07.04.14.07.21.05.14.11.26.18.38.14.24.31.44.51.61.2.17.41.31.62.42.42.22.85.32,1.15.33-1.55,1.51-2.81,3.09-3.74,4.7-.01-.08-.03-.17-.05-.26-.02-.09-.05-.18-.07-.27-.03-.09-.07-.19-.11-.29-.04-.1-.08-.19-.13-.3-.1-.2-.22-.41-.36-.62-.14-.21-.32-.43-.51-.65-.19-.22-.42-.44-.68-.66-.06-.06-.13-.11-.2-.17-.07-.06-.14-.11-.21-.16-.15-.11-.3-.22-.47-.32-.33-.22-.7-.43-1.12-.63-.41-.2-.87-.39-1.39-.57-.63,1.35-.68,2.45-.43,3.32.03.11.06.21.11.31.04.1.09.2.14.3.1.19.2.36.33.52.13.16.26.31.4.45.07.07.14.13.22.19.04.03.07.06.11.09.04.03.08.06.12.09.64.45,1.34.72,1.99.87.65.15,1.22.18,1.6.13-.8,1.76-1.2,3.54-1.14,5.28-.58-.62-1.53-1.37-2.96-2.08-.36-.18-.74-.35-1.17-.51-.43-.17-.89-.33-1.39-.47-.5-.15-1.04-.28-1.63-.4-.58-.12-1.21-.22-1.89-.3,0,.09.02.18.03.27.01.09.03.18.04.27.03.18.07.34.11.51s.1.32.16.48c.06.15.12.3.19.44.07.14.15.28.23.41.08.13.16.26.25.38.19.24.38.47.59.68.21.21.44.39.66.56.11.09.24.17.36.24.12.08.24.15.37.22.12.07.25.13.37.19.12.06.25.12.38.17.25.11.51.2.76.28.12.04.25.08.37.11.13.03.25.06.38.09.25.06.49.1.73.13.48.07.92.1,1.33.1.83,0,1.49-.09,1.89-.21.04.19.08.38.12.57l.16.56c.05.19.13.37.19.55l.1.28s.03.09.05.14l.06.14.24.54c.08.18.18.36.27.53l.14.27.15.26.15.26.08.13.04.07.04.06c-1.01-.52-2.55-1.05-4.59-1.45-.13-.02-.26-.05-.39-.07-.13-.02-.27-.05-.4-.07-.27-.04-.55-.09-.84-.13-.29-.04-.59-.07-.9-.1-.15-.02-.31-.03-.47-.05-.16-.01-.32-.03-.48-.04-1.29-.1-2.74-.12-4.35,0,.14.18.28.36.42.53.07.08.15.17.22.25.08.08.15.16.23.24.16.15.32.3.48.44.08.07.16.14.24.21.08.07.16.13.25.19.34.25.69.47,1.03.68.36.2.71.37,1.07.53.09.04.18.08.26.11.09.04.18.07.27.1.18.07.36.13.54.19.18.06.35.11.53.16.17.05.35.1.53.14.35.08.7.15,1.03.21.17.03.34.05.5.07.08,0,.17.02.25.03.08,0,.16.02.24.02.65.06,1.26.07,1.83.06.28,0,.55-.02.81-.04.26-.02.51-.05.74-.08.93-.13,1.64-.33,2.04-.53l.36.48.38.47.19.24.2.24.4.47c.54.62,1.09,1.23,1.66,1.84-1.28-.46-3.16-.87-5.58-1.01-.3-.02-.61-.03-.93-.04-.32,0-.65-.01-.99-.01-.67,0-1.38.03-2.12.09-1.48.1-3.09.31-4.83.67.44.3.88.57,1.32.81.22.12.44.23.67.34.22.11.44.2.67.3.22.1.44.18.66.27.22.08.44.16.66.23.22.07.43.14.65.2.22.06.43.12.64.17.43.11.85.2,1.26.27s.82.14,1.22.18c.4.05.79.08,1.17.11.38.02.75.04,1.11.04,2.89.02,5.11-.52,5.97-.98.87.92,1.74,1.83,2.55,2.76.81.93,1.57,1.87,2.23,2.85.65.97,1.2,1.97,1.59,3,.39,1.03.61,2.09.62,3.18l1.59-.17c-.02-1.14-.26-2.26-.67-3.34h0Z"></path><path class="st1" d="M351.4,294.02c-.49-.14-.97-.27-1.45-.37-.24-.05-.48-.09-.72-.13-.12-.02-.24-.04-.36-.05-.12-.02-.24-.03-.35-.05-.47-.06-.93-.11-1.38-.14-.22-.01-.45-.03-.67-.04-.22-.01-.43-.02-.65-.02-.21,0-.42,0-.62,0-.21,0-.41,0-.6,0-.78.03-1.49.08-2.1.15,2.58-.96,5-2.07,7.21-3.3.13.15.46.33.99.47.27.07.59.13.95.18.37.04.78.07,1.26.06.24,0,.48-.01.75-.03.26-.02.53-.05.82-.08.28-.04.58-.08.89-.14.31-.06.63-.13.96-.21,1.32-.33,2.83-.87,4.41-1.71-.99-.19-1.97-.28-2.89-.3-.23,0-.45,0-.67,0-.22,0-.45,0-.66.01-.43.02-.85.04-1.25.08-.2.02-.4.04-.59.06-.19.02-.38.05-.57.07-.18.03-.36.06-.54.09-.17.03-.35.06-.51.09-.33.06-.64.13-.93.2-.29.07-.56.14-.81.21,2.1-1.3,3.97-2.72,5.5-4.22.17.1.53.18,1.05.22.52.03,1.2,0,2-.14.1-.02.2-.04.31-.06.1-.02.21-.05.32-.07.21-.05.43-.11.66-.18.23-.07.47-.15.71-.23.24-.09.48-.19.72-.3.24-.11.5-.23.75-.36.25-.13.5-.28.76-.44.13-.08.25-.16.37-.25.12-.09.25-.18.37-.27.12-.09.25-.19.37-.29.12-.1.24-.2.36-.31-.48,0-.93.01-1.37.04-.44.03-.86.08-1.27.13-.41.06-.79.12-1.16.2-.18.04-.36.08-.53.12-.09.02-.17.04-.26.06-.09.02-.17.04-.25.07-.33.09-.64.18-.93.28-.14.05-.28.1-.42.14-.14.05-.27.1-.4.15-.25.1-.49.2-.7.3-.21.1-.41.19-.58.29,1.2-1.3,2.13-2.66,2.84-4.02.17.06.51.08.97.05.45-.04,1.03-.14,1.67-.35.16-.05.32-.11.49-.17.17-.07.33-.14.5-.22.17-.08.34-.17.51-.26.17-.1.35-.2.51-.31.17-.11.34-.24.51-.37.09-.07.17-.13.25-.2.08-.07.16-.14.24-.22.16-.15.31-.31.46-.48.15-.17.28-.35.42-.54-.84.1-1.59.26-2.25.44-.33.09-.65.19-.94.29-.29.1-.57.21-.82.32-.13.05-.25.11-.36.16-.12.06-.23.11-.34.17-.22.11-.41.22-.59.33-.09.05-.17.11-.25.16-.08.05-.16.11-.23.16-.14.1-.27.2-.38.3l.21-.5.18-.5.05-.13.04-.12.08-.25.08-.25.06-.25.06-.25.03-.13s.02-.08.03-.13l.1-.5c.05-.33.1-.66.12-.99.15.04.44.02.82-.05.38-.08.85-.22,1.33-.45.24-.12.48-.25.73-.42.12-.08.24-.17.36-.26.12-.09.23-.2.34-.3.11-.11.22-.22.32-.35.05-.06.1-.12.15-.19.05-.06.09-.13.14-.2.09-.14.17-.28.24-.43.04-.08.07-.15.1-.23.03-.08.06-.16.08-.24-.71.17-1.32.38-1.85.6-.53.22-.97.46-1.33.69-.09.06-.18.12-.26.17-.08.06-.16.12-.24.17-.15.11-.28.23-.39.33-.22.21-.4.42-.51.59v-.23s0-.12,0-.12v-.12s-.02-.46-.02-.46c0-.15-.02-.3-.04-.46,0-.08-.01-.15-.02-.23l-.03-.23-.03-.23-.02-.11s-.02-.07-.02-.11l-.09-.45c-.01-.07-.04-.15-.06-.22l-.06-.22-.06-.22-.07-.22c.22.05.95-.11,1.67-.57.36-.23.7-.54.97-.93.03-.05.07-.1.09-.15.03-.05.06-.11.08-.16.05-.11.09-.22.13-.34.08-.24.11-.5.1-.78-.59.21-1.08.45-1.47.69-.2.12-.37.24-.53.36-.16.12-.3.24-.42.35-.48.46-.71.88-.75,1.17-.26-.71-.59-1.4-1.01-2.07.07-.03.14-.09.2-.17.03-.04.06-.09.08-.14.03-.05.05-.11.06-.17.06-.24.07-.56-.08-.9-.04-.09-.08-.17-.14-.26-.06-.09-.13-.18-.21-.27-.08-.09-.17-.18-.27-.27-.1-.09-.22-.18-.34-.26-.5-.35-1.24-.66-2.2-.88-.01.63.12,1.13.32,1.56.05.11.11.21.17.3.06.1.12.19.19.27.07.09.14.17.22.24.07.08.15.15.23.22.32.27.65.47.96.59.16.06.3.11.42.13.12.03.23.03.31.02.4.68.71,1.38.96,2.09-.23-.23-.7-.5-1.47-.65-.19-.04-.4-.07-.62-.09s-.47-.03-.73-.03c-.52,0-1.1.06-1.75.18.23.17.47.31.71.43.12.06.24.12.36.17.06.02.12.05.19.07.06.02.12.05.18.07.48.18.99.28,1.43.33.45.05.86.05,1.18.02.32-.03.54-.09.62-.16l.07.22.05.22.05.22c.02.07.04.15.05.22l.08.45c.01.08.02.15.03.23l.03.23.02.23c0,.08.01.15.02.23,0,.15.02.3.02.46v.46s0,.08,0,.12v.12s-.02.23-.02.23c-.09-.15-.24-.32-.47-.48-.11-.08-.25-.16-.4-.24-.07-.04-.16-.08-.24-.11-.09-.04-.18-.07-.28-.1-.39-.13-.86-.23-1.41-.29-.56-.05-1.21-.06-1.95-.01.05.05.09.11.14.16.05.05.1.1.14.15.09.1.19.19.3.28.05.04.11.09.16.13.05.04.1.08.16.12.11.08.22.15.33.22.11.07.23.13.34.19.11.06.23.11.35.16.23.1.47.18.7.24.46.13.9.2,1.27.21.37.02.66-.01.81-.07-.03.33-.09.66-.15,1l-.11.5c-.02.08-.04.17-.06.25l-.07.25c-.02.08-.04.17-.07.25l-.08.25c-.06.17-.11.33-.18.5-.07.17-.13.33-.2.5l-.22.5c-.02-.1-.05-.2-.11-.31s-.12-.22-.21-.33-.21-.22-.34-.33c-.07-.06-.14-.11-.22-.16-.08-.05-.17-.11-.26-.15-.18-.1-.39-.2-.63-.28-.23-.09-.49-.17-.78-.24-.58-.14-1.27-.23-2.09-.27.05.14.1.27.17.39.06.12.12.24.2.36.04.06.08.11.11.17.04.05.08.11.11.16.08.1.16.2.26.3.09.1.18.18.28.27.09.09.19.16.3.24.1.07.21.14.32.21.1.07.21.12.32.18.43.23.88.38,1.27.46.39.09.73.1.94.07-.37.68-.8,1.36-1.29,2.02l-.19.25-.09.12s-.06.08-.1.12l-.4.49c-.28.33-.56.65-.88.98.03-.12.05-.25.05-.39,0-.14-.03-.28-.07-.43-.08-.29-.27-.6-.56-.89-.14-.14-.33-.29-.54-.42-.21-.14-.46-.27-.73-.39-.28-.12-.59-.24-.95-.34-.35-.11-.74-.2-1.17-.29,0,.08,0,.16,0,.24,0,.08,0,.15,0,.23,0,.07.01.15.02.22s.02.14.03.21c.02.14.05.28.09.41.02.07.04.13.06.19.02.06.04.12.07.19.05.12.1.24.17.35.06.11.12.22.19.32.14.21.3.4.46.57.33.34.72.6,1.09.78.37.18.72.27.97.27-1.56,1.48-3.45,2.87-5.57,4.14.11-.14.21-.29.29-.45.08-.16.15-.34.19-.52.02-.09.04-.18.05-.27,0-.09.01-.19,0-.29,0-.19-.04-.39-.11-.59-.07-.2-.18-.4-.32-.6-.07-.1-.15-.2-.24-.3-.09-.1-.19-.2-.3-.3-.44-.39-1.05-.77-1.84-1.13-.4.72-.64,1.38-.74,1.99-.03.15-.04.3-.05.44-.01.14-.02.28-.01.42,0,.07,0,.14.01.2,0,.07.02.13.02.19.02.13.04.25.07.37.06.23.15.45.25.65.1.19.22.36.36.51.26.29.57.48.83.55-2.22,1.2-4.65,2.28-7.22,3.2.1-.07.2-.15.3-.23.1-.08.19-.17.28-.25.09-.09.18-.18.27-.27.09-.1.17-.2.24-.3.15-.2.29-.42.4-.65.1-.23.18-.47.23-.71.04-.25.05-.51.01-.77,0-.06-.02-.13-.03-.2-.01-.07-.03-.13-.05-.2-.04-.13-.09-.27-.15-.41-.12-.27-.29-.55-.5-.83-.22-.28-.48-.56-.8-.85-.82.76-1.44,1.49-1.91,2.18-.06.09-.11.17-.17.26-.05.08-.11.17-.15.25-.1.17-.18.33-.26.49-.08.16-.15.31-.2.47-.03.08-.06.15-.08.23-.02.08-.04.15-.07.22-.16.57-.18,1.09-.1,1.49.09.4.28.69.51.83-2.87.9-5.89,1.6-8.94,2.07.58-.24,1.19-.56,1.74-.95.28-.2.54-.41.78-.64.24-.24.47-.48.65-.75.19-.27.35-.55.48-.84.12-.29.21-.61.25-.93.04-.32.05-.66,0-1.01-.05-.35-.14-.71-.27-1.09-1.21.67-2.22,1.33-3.08,1.99-.22.16-.42.32-.61.49-.1.08-.19.16-.28.24-.09.08-.18.16-.27.24-.09.08-.17.16-.25.24-.08.08-.16.16-.24.23-.16.16-.3.31-.44.46-.07.08-.13.15-.2.23-.06.07-.12.15-.18.22-.12.14-.22.29-.31.42-.19.27-.33.53-.44.76-.21.46-.24.83-.13,1.05-.34.03-.68.07-1.02.1l-1.03.08c-.34.03-.68.04-1.03.06l-.51.03c-.08,0-.17,0-.26.01h-.26s-1.02.04-1.02.04c-.34,0-.68.01-1.02.02h-.51s-.51,0-.51,0h-.51s-.25,0-.25,0h-.25c1.45-.34,3.2-.99,4.62-2.02.09-.06.18-.13.26-.2.08-.07.17-.14.25-.21.17-.14.33-.29.48-.44.15-.15.3-.31.44-.47.03-.04.07-.08.1-.12.03-.04.07-.09.1-.13.06-.09.13-.17.19-.26.48-.71.83-1.49,1.01-2.38-.19.06-.39.12-.57.19-.09.03-.19.07-.28.1-.09.03-.18.07-.28.1-.19.06-.38.13-.56.2-.09.03-.18.07-.27.1-.09.04-.18.07-.27.1-.36.13-.72.27-1.07.41-.35.14-.69.27-1.02.42-.08.04-.16.07-.25.11-.08.04-.16.07-.24.11-.16.07-.32.14-.47.21-.15.07-.3.14-.45.22-.15.07-.3.15-.44.22-.29.14-.56.29-.82.43-.13.07-.26.15-.38.22-.12.07-.24.15-.36.22-.47.29-.88.57-1.23.85-.18.14-.34.27-.48.4-.15.13-.28.26-.4.38-.47.49-.7.9-.71,1.17l-.96-.04-.95-.05-.48-.03-.47-.03-.95-.06c-1.26-.09-2.52-.19-3.78-.3,1.66-.27,3.74-.83,5.7-1.83.24-.12.49-.26.73-.39.24-.14.48-.28.71-.44.46-.3.91-.63,1.34-1,.85-.73,1.61-1.57,2.25-2.53-2.17.33-4.21.75-5.98,1.25-.45.12-.87.25-1.28.39-.42.13-.81.27-1.18.41-.37.14-.73.28-1.07.42-.34.14-.66.29-.96.43-2.42,1.16-3.58,2.38-3.68,2.99-1.92-.16-3.85-.32-5.79-.44-1.95-.12-3.92-.22-5.93-.25-2-.03-4.04,0-6.1.12-2.06.13-4.14.35-6.2.69l.19.85c1.95-.33,3.93-.54,5.9-.67,1.97-.12,3.94-.16,5.89-.13,1.95.03,3.88.12,5.8.24,1.92.12,3.84.27,5.75.43-.55.6-.8,1.88.15,3.31.12.18.26.36.42.54.16.18.35.36.56.55.21.18.45.37.71.55.26.18.56.36.88.54.32.18.68.35,1.08.53.2.09.4.17.62.25.22.08.45.16.68.24.24.08.48.16.74.24.26.08.53.15.81.23.56.15,1.18.28,1.84.41.12-.97,0-1.83-.26-2.59-.13-.38-.29-.74-.49-1.08-.1-.17-.2-.33-.31-.49-.11-.16-.22-.31-.34-.45-.12-.15-.24-.29-.38-.42-.06-.07-.13-.13-.2-.2-.07-.06-.13-.13-.2-.19-.27-.25-.56-.48-.86-.68-.3-.21-.6-.4-.91-.56-.31-.17-.61-.32-.92-.44,1.24.1,2.49.18,3.75.26l.95.05.47.03.48.02.95.04.96.03c-.22.27-.35.69-.28,1.2.02.13.05.26.09.4.05.14.1.28.18.42.15.29.38.59.69.89.31.3.72.61,1.23.9.13.07.27.14.41.22.15.07.3.14.46.21.32.14.67.28,1.06.41.39.13.81.25,1.28.36.47.11.98.21,1.53.31.13.02.28.04.42.06.14.02.29.04.44.06.3.04.61.07.93.1.04,0,.08,0,.12.01.04,0,.08,0,.12.01.08,0,.17.01.25.02.17.01.34.02.51.03.35.02.7.04,1.07.05-.29-.83-.77-1.54-1.33-2.15-.14-.15-.29-.3-.44-.44-.15-.14-.3-.28-.45-.42-.31-.27-.64-.51-.97-.73-1.33-.9-2.75-1.51-3.98-1.87h1.02c.17-.01.34-.01.51-.01h.52s.52-.03.52-.03c.17,0,.34,0,.51-.01l1.04-.05h.26s.26-.03.26-.03l.52-.03c.34-.02.69-.04,1.04-.07l1.04-.09c.35-.03.7-.07,1.04-.11-.09.25-.04.61.24,1.03.14.2.34.42.62.63.28.21.63.43,1.07.63.44.2.98.39,1.63.55.16.04.33.08.5.11.17.04.36.07.54.1.38.06.78.11,1.22.16.43.04.9.07,1.39.08.12,0,.25,0,.38,0,.13,0,.26,0,.39,0,.26,0,.53,0,.81-.01.28,0,.56-.02.85-.04.15,0,.29-.02.44-.03.15-.01.3-.02.45-.04.3-.03.62-.06.94-.1.16-.02.32-.04.49-.06.16-.02.33-.05.5-.07-.34-.31-.71-.59-1.09-.85-.39-.26-.79-.48-1.2-.69-.82-.4-1.68-.73-2.53-.98-.42-.13-.84-.24-1.25-.33-.2-.04-.41-.09-.61-.13-.2-.04-.4-.08-.59-.11-.1-.02-.19-.03-.29-.05-.1-.02-.19-.03-.29-.05-.19-.03-.37-.06-.55-.08-.09-.01-.18-.02-.27-.03-.09,0-.17-.02-.26-.03-.17-.02-.34-.04-.51-.05,3.1-.51,6.15-1.25,9.04-2.19.05.21.29.49.76.76.12.07.25.14.4.2.15.07.32.13.5.19.36.12.79.23,1.3.32.51.09,1.08.14,1.74.17.33.01.67,0,1.04,0,.18,0,.37-.01.57-.02.19-.01.39-.03.6-.05,1.63-.15,3.59-.51,5.79-1.24-.47-.2-.95-.37-1.44-.52h.02Z"></path></g></g></svg>