<svg xmlns="http://www.w3.org/2000/svg" viewBox="0 0 920 420" fill="none" font-family="system-ui,Segoe UI,sans-serif">
  <title>Technieum offensive workflow</title>
  <rect width="920" height="420" fill="#0a0a0a"/>
  <text x="460" y="28" text-anchor="middle" fill="#e85d04" font-size="13" font-weight="700" letter-spacing="0.08em">THE TECHNIEUM OFFENSIVE WORKFLOW</text>
  <style>
    .box {
      stroke-width: 1.2;
    }
    .t { fill: #fafafa; font-size: 9px; font-weight: 600; }
    .s { fill: #a1a1aa; font-size: 8px; }
    .arr { stroke: #52525b; stroke-width: 1.2; marker-end: url(#m); }
  </style>
  <defs>
    <marker id="m" markerWidth="5" markerHeight="5" refX="4" refY="2.5" orient="auto">
      <path d="M0,0 L5,2.5 L0,5 Z" fill="#71717a"/>
    </marker>
  </defs>
  <g transform="translate(16,44)">
    <text x="0" y="-6" fill="#c2410c" font-size="8" font-weight="700" letter-spacing="0.12em">BUSINESS LOGIC</text>
    <rect class="box" rx="6" x="0" y="0" width="86" height="34" fill="#0a0a0a" stroke="#3f3f46"/>
    <text class="t" x="43" y="14" text-anchor="middle">Source code</text>
    <text class="s" x="43" y="26" text-anchor="middle">SAST intel</text>
    <line class="arr" x1="88" y1="17" x2="98" y2="17"/>
    <rect class="box" rx="6" x="100" y="0" width="92" height="34" fill="#0a0a0a" stroke="#3f3f46"/>
    <text class="t" x="146" y="14" text-anchor="middle">Logic extraction</text>
    <text class="s" x="146" y="26" text-anchor="middle">Auth / txn</text>
    <line class="arr" x1="194" y1="17" x2="204" y2="17"/>
    <rect class="box" rx="6" x="206" y="0" width="100" height="34" fill="rgb(232 93 4 / 0.12)" stroke="#e85d04"/>
    <text class="t" x="256" y="14" text-anchor="middle">ToIP</text>
    <text class="s" x="256" y="26" text-anchor="middle">15k+ reports, RAG</text>
    <line class="arr" x1="308" y1="17" x2="318" y2="17"/>
    <rect class="box" rx="6" x="320" y="0" width="88" height="34" fill="#0a0a0a" stroke="#3f3f46"/>
    <text class="t" x="364" y="14" text-anchor="middle">Playbooks</text>
    <text class="s" x="364" y="26" text-anchor="middle">Target-specific</text>
    <line class="arr" x1="410" y1="17" x2="420" y2="17"/>
    <rect class="box" rx="6" x="422" y="0" width="88" height="34" fill="rgb(74 222 128 / 0.08)" stroke="#4ade80"/>
    <text class="t" x="466" y="14" text-anchor="middle">Validated</text>
    <text class="s" x="466" y="26" text-anchor="middle">Manual + auto</text>
  </g>
  <g transform="translate(16,98)">
    <text x="0" y="-6" fill="#c2410c" font-size="8" font-weight="700" letter-spacing="0.12em">SAST VALIDATION</text>
    <rect class="box" rx="6" x="0" y="0" width="86" height="34" fill="#0a0a0a" stroke="#3f3f46"/>
    <text class="t" x="43" y="14" text-anchor="middle">SAST findings</text>
    <text class="s" x="43" y="26" text-anchor="middle">SQLi, XSS&</text>
    <line class="arr" x1="88" y1="17" x2="98" y2="17"/>
    <rect class="box" rx="6" x="100" y="0" width="100" height="34" fill="rgb(232 93 4 / 0.12)" stroke="#e85d04"/>
    <text class="t" x="150" y="14" text-anchor="middle">ToIP</text>
    <text class="s" x="150" y="26" text-anchor="middle">Shared intel</text>
    <line class="arr" x1="202" y1="17" x2="212" y2="17"/>
    <rect class="box" rx="6" x="214" y="0" width="100" height="34" fill="#0a0a0a" stroke="#3f3f46"/>
    <text class="t" x="264" y="14" text-anchor="middle">Playbooks</text>
    <text class="s" x="264" y="26" text-anchor="middle">Exploit-matched</text>
    <line class="arr" x1="316" y1="17" x2="326" y2="17"/>
    <rect class="box" rx="6" x="328" y="0" width="88" height="34" fill="rgb(74 222 128 / 0.08)" stroke="#4ade80"/>
    <text class="t" x="372" y="14" text-anchor="middle">Validated</text>
    <text class="s" x="372" y="26" text-anchor="middle">Manual + auto</text>
  </g>
  <g transform="translate(16,152)">
    <text x="0" y="-6" fill="#c2410c" font-size="8" font-weight="700" letter-spacing="0.12em">ATTACK SURFACE INTEL</text>
    <rect class="box" rx="6" x="0" y="0" width="86" height="34" fill="#0a0a0a" stroke="#3f3f46"/>
    <text class="t" x="43" y="14" text-anchor="middle">ASM intel</text>
    <text class="s" x="43" y="26" text-anchor="middle">Subs / APIs</text>
    <line class="arr" x1="88" y1="17" x2="98" y2="17"/>
    <rect class="box" rx="6" x="100" y="0" width="100" height="34" fill="rgb(232 93 4 / 0.12)" stroke="#e85d04"/>
    <text class="t" x="150" y="14" text-anchor="middle">ToIP</text>
    <text class="s" x="150" y="26" text-anchor="middle">Shared intel</text>
    <line class="arr" x1="202" y1="17" x2="212" y2="17"/>
    <rect class="box" rx="6" x="214" y="0" width="100" height="34" fill="#0a0a0a" stroke="#3f3f46"/>
    <text class="t" x="264" y="14" text-anchor="middle">Playbooks</text>
    <text class="s" x="264" y="26" text-anchor="middle">Surface-specific</text>
    <line class="arr" x1="316" y1="17" x2="326" y2="17"/>
    <rect class="box" rx="6" x="328" y="0" width="88" height="34" fill="rgb(74 222 128 / 0.08)" stroke="#4ade80"/>
    <text class="t" x="372" y="14" text-anchor="middle">Validated</text>
    <text class="s" x="372" y="26" text-anchor="middle">Manual + auto</text>
  </g>
  <g transform="translate(16,206)">
    <text x="0" y="-6" fill="#c2410c" font-size="8" font-weight="700" letter-spacing="0.12em">TECH STACK SCAN</text>
    <rect class="box" rx="6" x="0" y="0" width="100" height="34" fill="#0a0a0a" stroke="#3f3f46"/>
    <text class="t" x="50" y="14" text-anchor="middle">Tech stack</text>
    <text class="s" x="50" y="26" text-anchor="middle">ASM / SAST out</text>
    <line class="arr" x1="102" y1="17" x2="112" y2="17"/>
    <rect class="box" rx="6" x="114" y="0" width="110" height="34" fill="rgb(34 211 238 / 0.08)" stroke="#22d3ee"/>
    <text class="t" x="169" y="14" text-anchor="middle">Nuclei</text>
    <text class="s" x="169" y="26" text-anchor="middle">Curated templates</text>
    <line class="arr" x1="226" y1="17" x2="236" y2="17"/>
    <rect class="box" rx="6" x="238" y="0" width="88" height="34" fill="rgb(74 222 128 / 0.08)" stroke="#4ade80"/>
    <text class="t" x="282" y="14" text-anchor="middle">Findings</text>
    <text class="s" x="282" y="26" text-anchor="middle">Validated</text>
  </g>
  <g transform="translate(16,260)">
    <text x="0" y="-6" fill="#c2410c" font-size="8" font-weight="700" letter-spacing="0.12em">AI / LLM SECURITY</text>
    <rect class="box" rx="6" x="0" y="0" width="78" height="34" fill="#0a0a0a" stroke="#3f3f46"/>
    <text class="t" x="39" y="14" text-anchor="middle">Endpoints</text>
    <text class="s" x="39" y="26" text-anchor="middle">LLM APIs</text>
    <line class="arr" x1="80" y1="17" x2="90" y2="17"/>
    <rect class="box" rx="6" x="92" y="0" width="118" height="34" fill="rgb(232 93 4 / 0.12)" stroke="#e85d04"/>
    <text class="t" x="151" y="14" text-anchor="middle">LLM Attack Suite</text>
    <text class="s" x="151" y="26" text-anchor="middle">1005+ prompts</text>
    <line class="arr" x1="212" y1="17" x2="222" y2="17"/>
    <rect class="box" rx="6" x="224" y="0" width="92" height="34" fill="#0a0a0a" stroke="#3f3f46"/>
    <text class="t" x="270" y="14" text-anchor="middle">Prompt testing</text>
    <text class="s" x="270" y="26" text-anchor="middle">Exhaustive</text>
    <line class="arr" x1="318" y1="17" x2="328" y2="17"/>
    <rect class="box" rx="6" x="330" y="0" width="92" height="34" fill="rgb(74 222 128 / 0.08)" stroke="#4ade80"/>
    <text class="t" x="376" y="14" text-anchor="middle">Escalation</text>
    <text class="s" x="376" y="26" text-anchor="middle">Until bypass</text>
  </g>
  <rect x="24" y="358" width="872" height="48" rx="8" fill="rgb(232 93 4 / 0.1)" stroke="rgb(232 93 4 / 0.35)" stroke-width="1.2"/>
  <text x="460" y="378" text-anchor="middle" fill="#e85d04" font-size="11" font-weight="700" letter-spacing="0.2em">OFFSEC MANAGEMENT PORTAL</text>
  <text x="460" y="394" text-anchor="middle" fill="#a1a1aa" font-size="9">Centralized tracking, live dashboards, findings, retest workflow</text>
</svg>
