<?xml version="1.0" encoding="UTF-8"?>
<svg xmlns="http://www.w3.org/2000/svg" xmlns:xlink="http://www.w3.org/1999/xlink" width="756px" height="172px" viewBox="0 0 756 172" version="1.1">
<g id="surface1">
<path style=" stroke:none;fill-rule:nonzero;fill:rgb(0%,0%,0%);fill-opacity:1;" d="M 88.390625 159.863281 C 87.539062 157.734375 86.6875 155.550781 85.851562 153.335938 C 85.015625 151.121094 84.226562 149.039062 83.480469 147.105469 C 83.238281 147.152344 83.03125 147.195312 82.820312 147.222656 C 82.613281 147.253906 82.390625 147.269531 82.164062 147.269531 C 81.941406 147.269531 81.71875 147.253906 81.507812 147.222656 C 81.300781 147.195312 81.074219 147.152344 80.851562 147.105469 C 80.34375 148.40625 79.792969 149.808594 79.179688 151.3125 C 78.566406 152.820312 77.941406 154.355469 77.3125 155.90625 C 76.6875 157.457031 76.046875 158.992188 75.402344 160.511719 C 74.761719 162.03125 74.179688 163.449219 73.628906 164.777344 C 73.074219 166.105469 72.566406 167.289062 72.105469 168.335938 C 71.640625 169.382812 71.269531 170.210938 71 170.800781 C 71.328125 170.757812 71.625 170.726562 71.894531 170.726562 L 73.539062 170.726562 C 73.804688 170.726562 74.074219 170.757812 74.359375 170.800781 C 74.6875 169.679688 75.046875 168.542969 75.433594 167.375 C 75.820312 166.210938 76.253906 165.042969 76.71875 163.890625 C 77.3125 163.878906 77.910156 163.847656 78.523438 163.832031 C 79.121094 163.832031 79.71875 163.816406 80.328125 163.816406 C 81.0625 163.816406 81.808594 163.816406 82.539062 163.832031 C 83.269531 163.832031 84.015625 163.863281 84.746094 163.890625 C 85.179688 165.058594 85.597656 166.222656 85.988281 167.375 C 86.375 168.542969 86.761719 169.679688 87.136719 170.800781 C 87.613281 170.757812 88.105469 170.726562 88.597656 170.726562 L 91.539062 170.726562 C 92.03125 170.726562 92.554688 170.757812 93.105469 170.800781 C 92.433594 169.472656 91.703125 167.863281 90.898438 165.945312 C 90.089844 164.023438 89.253906 162.003906 88.40625 159.875 M 77.613281 161.882812 C 78.121094 160.496094 78.640625 159.125 79.164062 157.792969 C 79.703125 156.464844 80.253906 155.109375 80.867188 153.734375 C 81.417969 155.109375 81.941406 156.453125 82.449219 157.792969 C 82.941406 159.125 83.449219 160.496094 83.957031 161.882812 Z M 77.613281 161.882812 "/>
<path style=" stroke:none;fill-rule:nonzero;fill:rgb(0%,0%,0%);fill-opacity:1;" d="M 115.046875 159.683594 C 114.40625 159.226562 113.71875 158.886719 113.003906 158.664062 C 112.289062 158.445312 111.660156 158.324219 111.136719 158.3125 L 111.136719 158.253906 C 111.675781 158.164062 112.257812 157.988281 112.914062 157.734375 C 113.570312 157.484375 114.183594 157.128906 114.75 156.6875 C 115.316406 156.246094 115.796875 155.683594 116.183594 155.003906 C 116.570312 154.324219 116.765625 153.527344 116.765625 152.597656 C 116.765625 151.667969 116.601562 150.855469 116.257812 150.191406 C 115.929688 149.511719 115.4375 148.964844 114.824219 148.554688 C 114.199219 148.125 113.464844 147.816406 112.617188 147.609375 C 111.765625 147.402344 110.808594 147.296875 109.78125 147.296875 C 108.75 147.296875 107.75 147.328125 106.660156 147.386719 C 105.570312 147.445312 104.539062 147.476562 103.539062 147.476562 C 102.957031 147.476562 102.449219 147.460938 101.988281 147.429688 C 101.523438 147.402344 101.105469 147.355469 100.703125 147.3125 C 100.792969 148.804688 100.867188 150.28125 100.914062 151.742188 C 100.957031 153.21875 100.988281 154.902344 100.988281 156.789062 L 100.988281 161.441406 C 100.988281 163.332031 100.957031 165.015625 100.914062 166.492188 C 100.867188 167.96875 100.792969 169.398438 100.703125 170.816406 C 101.09375 170.773438 101.613281 170.742188 102.273438 170.742188 L 104.195312 170.742188 C 105.078125 170.742188 105.914062 170.742188 106.703125 170.773438 C 107.496094 170.800781 108.363281 170.800781 109.289062 170.800781 C 110.332031 170.800781 111.332031 170.699219 112.300781 170.476562 C 113.273438 170.253906 114.136719 169.871094 114.886719 169.324219 C 115.628906 168.777344 116.226562 168.070312 116.691406 167.199219 C 117.136719 166.328125 117.363281 165.28125 117.363281 164.054688 C 117.363281 163.019531 117.136719 162.148438 116.691406 161.441406 C 116.242188 160.71875 115.691406 160.140625 115.046875 159.683594 Z M 106.152344 151.917969 C 106.183594 151.046875 106.210938 150.191406 106.257812 149.351562 C 106.480469 149.304688 106.703125 149.277344 106.898438 149.261719 C 107.09375 149.261719 107.453125 149.246094 107.957031 149.246094 C 108.644531 149.246094 109.226562 149.351562 109.691406 149.570312 C 110.152344 149.792969 110.527344 150.074219 110.824219 150.429688 C 111.125 150.78125 111.332031 151.210938 111.464844 151.699219 C 111.585938 152.183594 111.660156 152.703125 111.660156 153.246094 C 111.660156 153.972656 111.542969 154.621094 111.316406 155.167969 C 111.09375 155.714844 110.78125 156.171875 110.421875 156.523438 C 110.046875 156.878906 109.628906 157.144531 109.152344 157.324219 C 108.675781 157.5 108.199219 157.601562 107.71875 157.601562 L 106.167969 157.601562 C 106.167969 157.011719 106.167969 156.4375 106.152344 155.875 C 106.152344 155.3125 106.136719 154.722656 106.136719 154.117188 C 106.136719 153.511719 106.136719 152.789062 106.167969 151.933594 M 111.601562 166.3125 C 111.390625 166.890625 111.125 167.375 110.765625 167.761719 C 110.421875 168.160156 110.019531 168.46875 109.554688 168.675781 C 109.09375 168.882812 108.613281 168.984375 108.109375 168.984375 C 107.71875 168.984375 107.375 168.984375 107.109375 168.96875 C 106.824219 168.96875 106.527344 168.941406 106.210938 168.910156 C 106.210938 168.617188 106.210938 168.230469 106.195312 167.789062 C 106.195312 167.332031 106.183594 166.828125 106.183594 166.285156 C 106.183594 165.738281 106.183594 165.175781 106.167969 164.601562 C 106.167969 164.023438 106.152344 163.476562 106.152344 162.917969 C 106.152344 162.207031 106.152344 161.605469 106.167969 161.085938 C 106.167969 160.570312 106.183594 160.082031 106.183594 159.597656 C 106.390625 159.597656 106.613281 159.597656 106.839844 159.582031 C 107.0625 159.582031 107.347656 159.566406 107.675781 159.566406 C 109.0625 159.566406 110.109375 159.964844 110.839844 160.746094 C 111.570312 161.53125 111.929688 162.726562 111.929688 164.320312 C 111.929688 165.074219 111.824219 165.738281 111.617188 166.3125 "/>
<path style=" stroke:none;fill-rule:nonzero;fill:rgb(0%,0%,0%);fill-opacity:1;" d="M 145.84375 147.460938 C 145.589844 147.460938 145.304688 147.445312 145.007812 147.414062 C 144.707031 147.386719 144.394531 147.34375 144.066406 147.296875 C 144.15625 148.878906 144.230469 150.441406 144.273438 152.007812 C 144.320312 153.574219 144.351562 155.136719 144.351562 156.71875 C 144.351562 158.296875 144.304688 159.847656 144.214844 161.324219 C 144.125 162.800781 143.871094 164.097656 143.46875 165.25 C 143.066406 166.386719 142.46875 167.300781 141.691406 167.980469 C 140.902344 168.660156 139.828125 169.015625 138.4375 169.015625 C 137.304688 169.015625 136.320312 168.898438 135.46875 168.675781 C 134.617188 168.4375 133.902344 167.980469 133.304688 167.289062 C 132.722656 166.59375 132.273438 165.605469 131.976562 164.320312 C 131.675781 163.035156 131.527344 161.367188 131.527344 159.285156 C 131.527344 157.324219 131.542969 155.386719 131.601562 153.484375 C 131.648438 151.578125 131.78125 149.511719 132.019531 147.3125 C 131.558594 147.355469 131.078125 147.402344 130.601562 147.429688 C 130.125 147.460938 129.648438 147.476562 129.183594 147.476562 C 128.722656 147.476562 128.242188 147.460938 127.765625 147.429688 C 127.289062 147.402344 126.8125 147.355469 126.347656 147.3125 C 126.394531 147.886719 126.421875 148.746094 126.453125 149.882812 C 126.46875 151.019531 126.484375 152.507812 126.484375 154.371094 C 126.484375 154.988281 126.484375 155.582031 126.46875 156.15625 C 126.46875 156.730469 126.453125 157.324219 126.453125 157.925781 C 126.453125 158.53125 126.453125 159.210938 126.4375 159.933594 C 126.4375 160.660156 126.421875 161.472656 126.421875 162.386719 C 126.421875 164.011719 126.691406 165.382812 127.242188 166.503906 C 127.78125 167.640625 128.527344 168.558594 129.46875 169.28125 C 130.410156 170.003906 131.527344 170.507812 132.8125 170.816406 C 134.09375 171.125 135.46875 171.273438 136.945312 171.273438 C 140.289062 171.273438 142.828125 170.417969 144.558594 168.691406 C 146.289062 166.960938 147.15625 164.128906 147.15625 160.15625 C 147.15625 158.679688 147.171875 157.261719 147.214844 155.933594 C 147.246094 154.605469 147.289062 153.378906 147.335938 152.273438 C 147.378906 151.164062 147.425781 150.191406 147.46875 149.351562 C 147.515625 148.507812 147.558594 147.828125 147.605469 147.328125 C 147.304688 147.371094 147.023438 147.414062 146.738281 147.445312 C 146.453125 147.476562 146.171875 147.488281 145.871094 147.488281 "/>
<path style=" stroke:none;fill-rule:nonzero;fill:rgb(0%,0%,0%);fill-opacity:1;" d="M 191.027344 149.617188 C 189.847656 148.773438 188.445312 148.167969 186.816406 147.816406 C 185.191406 147.460938 183.382812 147.28125 181.398438 147.28125 C 179.875 147.28125 178.636719 147.3125 177.695312 147.371094 C 176.757812 147.429688 175.890625 147.460938 175.128906 147.460938 C 174.546875 147.460938 174.039062 147.445312 173.578125 147.414062 C 173.113281 147.386719 172.695312 147.34375 172.292969 147.296875 C 172.382812 148.789062 172.457031 150.265625 172.5 151.726562 C 172.546875 153.203125 172.578125 154.886719 172.578125 156.777344 L 172.578125 161.425781 C 172.578125 163.316406 172.546875 165 172.5 166.476562 C 172.457031 167.953125 172.382812 169.398438 172.292969 170.800781 C 172.679688 170.757812 173.113281 170.726562 173.578125 170.726562 L 175.128906 170.726562 C 176.023438 170.726562 177.085938 170.726562 178.308594 170.757812 C 179.53125 170.785156 181.011719 170.785156 182.742188 170.785156 C 184.382812 170.785156 185.921875 170.507812 187.355469 169.929688 C 188.800781 169.355469 190.070312 168.527344 191.160156 167.449219 C 192.25 166.371094 193.117188 165.058594 193.757812 163.539062 C 194.382812 162.003906 194.710938 160.304688 194.710938 158.398438 C 194.710938 156.230469 194.382812 154.429688 193.742188 153.011719 C 193.101562 151.578125 192.191406 150.441406 191.011719 149.601562 M 186.964844 166.296875 C 185.441406 168.054688 183.382812 168.925781 180.769531 168.925781 C 180.054688 168.925781 179.457031 168.925781 178.964844 168.898438 C 178.488281 168.867188 178.070312 168.851562 177.726562 168.824219 C 177.726562 168.660156 177.726562 168.304688 177.710938 167.761719 C 177.710938 167.214844 177.695312 166.609375 177.695312 165.945312 L 177.695312 152.289062 C 177.695312 151.609375 177.695312 150.988281 177.710938 150.441406 C 177.710938 149.894531 177.726562 149.542969 177.726562 149.378906 C 178.261719 149.335938 178.785156 149.292969 179.308594 149.261719 C 179.832031 149.230469 180.503906 149.21875 181.339844 149.21875 C 182.53125 149.21875 183.621094 149.425781 184.59375 149.851562 C 185.5625 150.28125 186.398438 150.871094 187.085938 151.667969 C 187.773438 152.449219 188.308594 153.410156 188.695312 154.53125 C 189.085938 155.652344 189.265625 156.910156 189.265625 158.324219 C 189.265625 161.882812 188.503906 164.542969 186.980469 166.296875 "/>
<path style=" stroke:none;fill-rule:nonzero;fill:rgb(0%,0%,0%);fill-opacity:1;" d="M 224.597656 151.710938 C 224.640625 150.234375 224.714844 148.757812 224.804688 147.28125 C 224.417969 147.328125 223.984375 147.371094 223.519531 147.402344 C 223.058594 147.429688 222.535156 147.445312 221.96875 147.445312 C 221.402344 147.445312 220.878906 147.429688 220.417969 147.402344 C 219.953125 147.371094 219.535156 147.328125 219.132812 147.28125 C 219.222656 148.773438 219.296875 150.234375 219.34375 151.683594 C 219.386719 153.128906 219.417969 154.796875 219.417969 156.703125 C 218.746094 156.730469 218.011719 156.746094 217.238281 156.761719 C 216.445312 156.761719 215.429688 156.777344 214.191406 156.777344 C 212.953125 156.777344 211.910156 156.777344 211.058594 156.761719 C 210.222656 156.761719 209.488281 156.730469 208.894531 156.703125 C 208.894531 154.8125 208.90625 153.144531 208.9375 151.683594 C 208.96875 150.234375 209.042969 148.773438 209.160156 147.28125 C 208.773438 147.328125 208.339844 147.371094 207.878906 147.402344 C 207.414062 147.429688 206.894531 147.445312 206.324219 147.445312 C 205.757812 147.445312 205.222656 147.429688 204.773438 147.402344 C 204.308594 147.371094 203.878906 147.328125 203.488281 147.28125 C 203.578125 148.773438 203.652344 150.25 203.699219 151.710938 C 203.742188 153.1875 203.773438 154.871094 203.773438 156.761719 L 203.773438 161.410156 C 203.773438 163.300781 203.742188 164.984375 203.699219 166.460938 C 203.652344 167.9375 203.578125 169.382812 203.488281 170.785156 C 203.878906 170.742188 204.308594 170.710938 204.773438 170.710938 L 207.894531 170.710938 C 208.355469 170.710938 208.789062 170.742188 209.175781 170.785156 C 209.085938 169.371094 209.011719 167.921875 208.96875 166.460938 C 208.921875 164.984375 208.894531 163.300781 208.894531 161.410156 L 208.894531 159.460938 C 209.773438 159.417969 210.640625 159.390625 211.519531 159.359375 C 212.402344 159.328125 213.265625 159.328125 214.148438 159.328125 C 215.027344 159.328125 215.894531 159.34375 216.773438 159.390625 C 217.65625 159.417969 218.519531 159.449219 219.402344 159.476562 L 219.402344 161.425781 C 219.402344 163.316406 219.371094 165 219.328125 166.476562 C 219.28125 167.953125 219.207031 169.398438 219.117188 170.800781 C 219.507812 170.757812 219.9375 170.726562 220.402344 170.726562 L 223.519531 170.726562 C 223.984375 170.726562 224.417969 170.757812 224.804688 170.800781 C 224.714844 169.382812 224.640625 167.9375 224.597656 166.476562 C 224.550781 165 224.519531 163.316406 224.519531 161.425781 L 224.519531 156.777344 C 224.519531 154.886719 224.550781 153.203125 224.597656 151.726562 "/>
<path style=" stroke:none;fill-rule:nonzero;fill:rgb(0%,0%,0%);fill-opacity:1;" d="M 249.824219 159.863281 C 248.972656 157.734375 248.121094 155.550781 247.285156 153.335938 C 246.449219 151.121094 245.65625 149.039062 244.910156 147.105469 C 244.671875 147.152344 244.464844 147.195312 244.253906 147.222656 C 244.046875 147.253906 243.820312 147.269531 243.597656 147.269531 C 243.375 147.269531 243.148438 147.253906 242.941406 147.222656 C 242.730469 147.195312 242.507812 147.152344 242.285156 147.105469 C 241.777344 148.40625 241.222656 149.808594 240.613281 151.3125 C 240 152.820312 239.375 154.355469 238.746094 155.90625 C 238.105469 157.457031 237.476562 158.992188 236.835938 160.511719 C 236.210938 162.03125 235.613281 163.449219 235.058594 164.777344 C 234.507812 166.105469 234 167.289062 233.539062 168.335938 C 233.074219 169.382812 232.703125 170.210938 232.433594 170.800781 C 232.761719 170.757812 233.058594 170.726562 233.328125 170.726562 L 234.96875 170.726562 C 235.238281 170.726562 235.507812 170.757812 235.792969 170.800781 C 236.121094 169.679688 236.476562 168.542969 236.867188 167.375 C 237.253906 166.210938 237.6875 165.042969 238.148438 163.890625 C 238.746094 163.878906 239.34375 163.847656 239.957031 163.832031 C 240.554688 163.832031 241.148438 163.816406 241.761719 163.816406 C 242.492188 163.816406 243.238281 163.816406 243.972656 163.832031 C 244.703125 163.832031 245.449219 163.863281 246.179688 163.890625 C 246.613281 165.058594 247.03125 166.222656 247.417969 167.375 C 247.808594 168.542969 248.195312 169.679688 248.570312 170.800781 C 249.046875 170.757812 249.539062 170.726562 250.03125 170.726562 L 252.972656 170.726562 C 253.464844 170.726562 253.988281 170.757812 254.539062 170.800781 C 253.867188 169.472656 253.136719 167.863281 252.328125 165.945312 C 251.523438 164.023438 250.6875 162.003906 249.835938 159.875 M 239.046875 161.882812 C 239.554688 160.496094 240.074219 159.125 240.597656 157.792969 C 241.136719 156.464844 241.6875 155.109375 242.300781 153.734375 C 242.851562 155.109375 243.375 156.453125 243.882812 157.792969 C 244.375 159.125 244.882812 160.496094 245.390625 161.882812 Z M 239.046875 161.882812 "/>
<path style=" stroke:none;fill-rule:nonzero;fill:rgb(0%,0%,0%);fill-opacity:1;" d="M 276.480469 159.683594 C 275.839844 159.226562 275.152344 158.886719 274.4375 158.664062 C 273.71875 158.445312 273.09375 158.324219 272.570312 158.3125 L 272.570312 158.253906 C 273.109375 158.164062 273.691406 157.988281 274.347656 157.734375 C 275.003906 157.484375 275.617188 157.128906 276.183594 156.6875 C 276.75 156.246094 277.226562 155.683594 277.617188 155.003906 C 278.003906 154.324219 278.199219 153.527344 278.199219 152.597656 C 278.199219 151.667969 278.035156 150.855469 277.691406 150.191406 C 277.363281 149.511719 276.871094 148.964844 276.257812 148.554688 C 275.628906 148.125 274.898438 147.816406 274.046875 147.609375 C 273.199219 147.402344 272.242188 147.296875 271.210938 147.296875 C 270.183594 147.296875 269.183594 147.328125 268.09375 147.386719 C 267.003906 147.445312 265.972656 147.476562 264.972656 147.476562 C 264.390625 147.476562 263.882812 147.460938 263.421875 147.429688 C 262.957031 147.402344 262.539062 147.355469 262.136719 147.3125 C 262.226562 148.804688 262.300781 150.28125 262.34375 151.742188 C 262.390625 153.21875 262.421875 154.902344 262.421875 156.789062 L 262.421875 161.441406 C 262.421875 163.332031 262.390625 165.015625 262.34375 166.492188 C 262.300781 167.96875 262.226562 169.398438 262.136719 170.816406 C 262.523438 170.773438 263.046875 170.742188 263.703125 170.742188 L 265.628906 170.742188 C 266.511719 170.742188 267.347656 170.742188 268.136719 170.773438 C 268.929688 170.800781 269.792969 170.800781 270.71875 170.800781 C 271.765625 170.800781 272.765625 170.699219 273.734375 170.476562 C 274.707031 170.253906 275.570312 169.871094 276.316406 169.324219 C 277.0625 168.777344 277.660156 168.070312 278.125 167.199219 C 278.570312 166.328125 278.796875 165.28125 278.796875 164.054688 C 278.796875 163.019531 278.570312 162.148438 278.125 161.441406 C 277.675781 160.71875 277.125 160.140625 276.480469 159.683594 Z M 267.585938 151.917969 C 267.613281 151.046875 267.644531 150.191406 267.691406 149.351562 C 267.914062 149.304688 268.136719 149.277344 268.332031 149.261719 C 268.527344 149.261719 268.882812 149.246094 269.390625 149.246094 C 270.078125 149.246094 270.660156 149.351562 271.121094 149.570312 C 271.585938 149.792969 271.957031 150.074219 272.257812 150.429688 C 272.554688 150.78125 272.765625 151.210938 272.898438 151.699219 C 273.019531 152.183594 273.09375 152.703125 273.09375 153.246094 C 273.09375 153.972656 272.972656 154.621094 272.75 155.167969 C 272.527344 155.714844 272.210938 156.171875 271.855469 156.523438 C 271.480469 156.878906 271.0625 157.144531 270.585938 157.324219 C 270.109375 157.5 269.628906 157.601562 269.152344 157.601562 L 267.601562 157.601562 C 267.601562 157.011719 267.601562 156.4375 267.585938 155.875 C 267.585938 155.3125 267.570312 154.722656 267.570312 154.117188 C 267.570312 153.511719 267.570312 152.789062 267.601562 151.933594 M 273.03125 166.3125 C 272.824219 166.890625 272.554688 167.375 272.199219 167.761719 C 271.855469 168.160156 271.453125 168.46875 270.988281 168.675781 C 270.527344 168.882812 270.046875 168.984375 269.539062 168.984375 C 269.152344 168.984375 268.808594 168.984375 268.539062 168.96875 C 268.257812 168.96875 267.957031 168.941406 267.644531 168.910156 C 267.644531 168.617188 267.644531 168.230469 267.628906 167.789062 C 267.628906 167.332031 267.613281 166.828125 267.613281 166.285156 C 267.613281 165.738281 267.613281 165.175781 267.601562 164.601562 C 267.601562 164.023438 267.585938 163.476562 267.585938 162.917969 C 267.585938 162.207031 267.585938 161.605469 267.601562 161.085938 C 267.601562 160.570312 267.613281 160.082031 267.613281 159.597656 C 267.824219 159.597656 268.046875 159.597656 268.273438 159.582031 C 268.496094 159.582031 268.777344 159.566406 269.109375 159.566406 C 270.496094 159.566406 271.539062 159.964844 272.273438 160.746094 C 273.003906 161.53125 273.363281 162.726562 273.363281 164.320312 C 273.363281 165.074219 273.257812 165.738281 273.046875 166.3125 "/>
<path style=" stroke:none;fill-rule:nonzero;fill:rgb(0%,0%,0%);fill-opacity:1;" d="M 293.320312 151.710938 C 293.363281 150.234375 293.4375 148.757812 293.527344 147.28125 C 293.140625 147.328125 292.707031 147.371094 292.242188 147.402344 C 291.78125 147.429688 291.257812 147.445312 290.691406 147.445312 C 290.125 147.445312 289.601562 147.429688 289.140625 147.402344 C 288.675781 147.371094 288.257812 147.328125 287.855469 147.28125 C 287.945312 148.773438 288.019531 150.25 288.0625 151.710938 C 288.109375 153.1875 288.140625 154.871094 288.140625 156.761719 L 288.140625 161.410156 C 288.140625 163.300781 288.109375 164.984375 288.0625 166.460938 C 288.019531 167.9375 287.945312 169.382812 287.855469 170.785156 C 288.242188 170.742188 288.675781 170.710938 289.140625 170.710938 L 292.257812 170.710938 C 292.722656 170.710938 293.15625 170.742188 293.542969 170.785156 C 293.453125 169.371094 293.378906 167.921875 293.332031 166.460938 C 293.289062 164.984375 293.257812 163.300781 293.257812 161.410156 L 293.257812 156.761719 C 293.257812 154.871094 293.289062 153.1875 293.332031 151.710938 "/>
<path style=" stroke:none;fill-rule:nonzero;fill:rgb(0%,0%,0%);fill-opacity:1;" d="M 343.832031 160.246094 C 343.578125 158.089844 343.324219 155.875 343.054688 153.617188 C 342.785156 151.359375 342.546875 149.246094 342.308594 147.28125 C 341.726562 147.402344 341.25 147.460938 340.859375 147.460938 C 340.441406 147.460938 339.949219 147.402344 339.367188 147.28125 C 338.128906 150.042969 336.816406 152.820312 335.441406 155.625 C 334.070312 158.414062 332.695312 161.101562 331.308594 163.65625 C 330.679688 162.445312 330.039062 161.175781 329.351562 159.816406 C 328.664062 158.472656 327.992188 157.101562 327.308594 155.699219 C 326.621094 154.296875 325.949219 152.894531 325.261719 151.476562 C 324.574219 150.058594 323.933594 148.671875 323.304688 147.296875 C 323.054688 147.34375 322.8125 147.386719 322.574219 147.414062 C 322.351562 147.445312 322.128906 147.460938 321.917969 147.460938 C 321.664062 147.460938 321.425781 147.445312 321.203125 147.414062 C 320.976562 147.386719 320.753906 147.34375 320.484375 147.296875 C 320.007812 151.296875 319.46875 155.226562 318.886719 159.109375 C 318.304688 162.992188 317.648438 166.890625 316.917969 170.816406 C 317.203125 170.773438 317.46875 170.742188 317.738281 170.742188 L 319.351562 170.742188 C 319.632812 170.742188 319.902344 170.757812 320.1875 170.816406 C 320.367188 168.261719 320.558594 165.707031 320.738281 163.152344 C 320.917969 160.597656 321.203125 158.015625 321.574219 155.386719 L 321.648438 155.386719 C 322.964844 158.015625 324.230469 160.597656 325.472656 163.152344 C 326.710938 165.707031 327.949219 168.261719 329.1875 170.816406 C 329.308594 170.785156 329.410156 170.773438 329.515625 170.773438 C 329.621094 170.773438 329.726562 170.757812 329.84375 170.757812 C 329.964844 170.757812 330.070312 170.757812 330.171875 170.773438 C 330.277344 170.773438 330.382812 170.800781 330.5 170.816406 C 331.738281 168.1875 333.007812 165.574219 334.277344 162.976562 C 335.546875 160.378906 336.84375 157.734375 338.160156 155.035156 L 338.234375 155.035156 C 338.515625 157.722656 338.785156 160.4375 339.039062 163.183594 C 339.308594 165.914062 339.488281 168.46875 339.605469 170.816406 C 340.085938 170.773438 340.578125 170.742188 341.054688 170.742188 L 343.875 170.742188 C 344.351562 170.742188 344.816406 170.757812 345.277344 170.816406 C 345.070312 169.679688 344.84375 168.171875 344.59375 166.296875 C 344.339844 164.421875 344.085938 162.414062 343.832031 160.261719 "/>
<path style=" stroke:none;fill-rule:nonzero;fill:rgb(0%,0%,0%);fill-opacity:1;" d="M 364.429688 147.402344 C 363.101562 147.429688 361.578125 147.445312 359.878906 147.445312 C 358.832031 147.445312 357.816406 147.414062 356.800781 147.386719 C 355.789062 147.34375 354.757812 147.3125 353.726562 147.28125 C 353.816406 148.773438 353.890625 150.25 353.9375 151.710938 C 353.980469 153.1875 354.011719 154.871094 354.011719 156.761719 L 354.011719 161.410156 C 354.011719 163.300781 353.980469 164.984375 353.9375 166.460938 C 353.890625 167.9375 353.816406 169.371094 353.726562 170.785156 C 353.90625 170.773438 354.128906 170.742188 354.398438 170.742188 C 354.667969 170.742188 355.054688 170.726562 355.578125 170.726562 L 361.054688 170.726562 C 362.652344 170.726562 363.890625 170.726562 364.816406 170.742188 C 365.726562 170.742188 366.488281 170.773438 367.117188 170.785156 C 367.070312 170.652344 367.042969 170.476562 367.011719 170.269531 C 366.980469 170.0625 366.980469 169.78125 366.980469 169.414062 C 366.980469 169.042969 366.980469 168.765625 367.011719 168.558594 C 367.042969 168.351562 367.070312 168.128906 367.117188 167.878906 C 365.773438 168.039062 364.445312 168.160156 363.132812 168.21875 C 361.816406 168.292969 360.503906 168.320312 359.191406 168.320312 C 359.117188 166.949219 359.085938 165.53125 359.085938 164.039062 C 359.085938 163.316406 359.085938 162.578125 359.101562 161.855469 C 359.101562 161.132812 359.117188 160.394531 359.117188 159.667969 C 361.726562 159.667969 364.339844 159.773438 366.96875 159.980469 C 366.921875 159.609375 366.878906 159.328125 366.847656 159.136719 C 366.816406 158.945312 366.804688 158.753906 366.804688 158.578125 C 366.804688 158.355469 366.804688 158.132812 366.832031 157.925781 C 366.847656 157.722656 366.90625 157.425781 366.96875 157.042969 C 365.652344 157.117188 364.386719 157.175781 363.175781 157.21875 C 361.96875 157.261719 360.609375 157.292969 359.117188 157.324219 C 359.117188 156.066406 359.117188 154.828125 359.128906 153.585938 C 359.128906 152.347656 359.191406 151.105469 359.28125 149.851562 C 359.535156 149.851562 359.964844 149.851562 360.5625 149.882812 C 361.160156 149.910156 361.832031 149.941406 362.59375 149.984375 C 363.339844 150.027344 364.117188 150.074219 364.90625 150.117188 C 365.699219 150.160156 366.429688 150.207031 367.101562 150.25 C 367.058594 150 367.027344 149.777344 366.996094 149.570312 C 366.96875 149.363281 366.96875 149.085938 366.96875 148.714844 C 366.96875 148.125 367.011719 147.636719 367.101562 147.28125 C 366.640625 147.328125 365.742188 147.371094 364.414062 147.402344 "/>
<path style=" stroke:none;fill-rule:nonzero;fill:rgb(0%,0%,0%);fill-opacity:1;" d="M 394.597656 149.617188 C 393.417969 148.773438 392.015625 148.167969 390.386719 147.816406 C 388.761719 147.460938 386.953125 147.28125 384.96875 147.28125 C 383.445312 147.28125 382.207031 147.3125 381.265625 147.371094 C 380.328125 147.429688 379.460938 147.460938 378.699219 147.460938 C 378.117188 147.460938 377.609375 147.445312 377.148438 147.414062 C 376.683594 147.386719 376.265625 147.34375 375.863281 147.296875 C 375.953125 148.789062 376.027344 150.265625 376.074219 151.726562 C 376.117188 153.203125 376.148438 154.886719 376.148438 156.777344 L 376.148438 161.425781 C 376.148438 163.316406 376.117188 165 376.074219 166.476562 C 376.027344 167.953125 375.953125 169.398438 375.863281 170.800781 C 376.25 170.757812 376.683594 170.726562 377.148438 170.726562 L 378.699219 170.726562 C 379.59375 170.726562 380.65625 170.726562 381.878906 170.757812 C 383.101562 170.785156 384.582031 170.785156 386.3125 170.785156 C 387.953125 170.785156 389.492188 170.507812 390.941406 169.929688 C 392.386719 169.355469 393.65625 168.527344 394.746094 167.449219 C 395.851562 166.371094 396.703125 165.058594 397.34375 163.539062 C 397.96875 162.003906 398.296875 160.304688 398.296875 158.398438 C 398.296875 156.230469 397.96875 154.429688 397.328125 153.011719 C 396.6875 151.578125 395.777344 150.441406 394.597656 149.601562 M 390.550781 166.296875 C 389.027344 168.054688 386.96875 168.925781 384.355469 168.925781 C 383.640625 168.925781 383.042969 168.925781 382.550781 168.898438 C 382.074219 168.867188 381.65625 168.851562 381.3125 168.824219 C 381.3125 168.660156 381.3125 168.304688 381.296875 167.761719 C 381.296875 167.214844 381.28125 166.609375 381.28125 165.945312 L 381.28125 152.289062 C 381.28125 151.609375 381.28125 150.988281 381.296875 150.441406 C 381.296875 149.894531 381.3125 149.542969 381.3125 149.378906 C 381.847656 149.335938 382.371094 149.292969 382.878906 149.261719 C 383.402344 149.230469 384.074219 149.21875 384.910156 149.21875 C 386.101562 149.21875 387.191406 149.425781 388.164062 149.851562 C 389.132812 150.28125 389.96875 150.871094 390.65625 151.667969 C 391.34375 152.449219 391.878906 153.410156 392.269531 154.53125 C 392.640625 155.652344 392.835938 156.910156 392.835938 158.324219 C 392.835938 161.882812 392.074219 164.542969 390.550781 166.296875 Z M 390.550781 166.296875 "/>
<path style=" stroke:none;fill-rule:nonzero;fill:rgb(0%,0%,0%);fill-opacity:1;" d="M 412.585938 151.710938 C 412.628906 150.234375 412.703125 148.757812 412.792969 147.28125 C 412.402344 147.328125 411.972656 147.371094 411.507812 147.402344 C 411.042969 147.429688 410.523438 147.445312 409.957031 147.445312 C 409.386719 147.445312 408.867188 147.429688 408.402344 147.402344 C 407.941406 147.371094 407.507812 147.328125 407.121094 147.28125 C 407.207031 148.773438 407.285156 150.25 407.328125 151.710938 C 407.371094 153.1875 407.402344 154.871094 407.402344 156.761719 L 407.402344 161.410156 C 407.402344 163.300781 407.371094 164.984375 407.328125 166.460938 C 407.285156 167.9375 407.207031 169.382812 407.121094 170.785156 C 407.507812 170.742188 407.941406 170.710938 408.402344 170.710938 L 411.523438 170.710938 C 411.988281 170.710938 412.402344 170.742188 412.808594 170.785156 C 412.714844 169.371094 412.644531 167.921875 412.601562 166.460938 C 412.550781 164.984375 412.523438 163.300781 412.523438 161.410156 L 412.523438 156.761719 C 412.523438 154.871094 412.550781 153.1875 412.601562 151.710938 "/>
<path style=" stroke:none;fill-rule:nonzero;fill:rgb(0%,0%,0%);fill-opacity:1;" d="M 437.882812 159.863281 C 437.03125 157.734375 436.183594 155.550781 435.347656 153.335938 C 434.511719 151.121094 433.71875 149.039062 432.972656 147.105469 C 432.746094 147.152344 432.523438 147.195312 432.316406 147.222656 C 432.109375 147.253906 431.882812 147.269531 431.660156 147.269531 C 431.4375 147.269531 431.210938 147.253906 431.003906 147.222656 C 430.792969 147.195312 430.566406 147.152344 430.34375 147.105469 C 429.839844 148.40625 429.289062 149.808594 428.675781 151.3125 C 428.0625 152.820312 427.4375 154.355469 426.808594 155.90625 C 426.179688 157.457031 425.539062 158.992188 424.894531 160.511719 C 424.273438 162.03125 423.671875 163.449219 423.121094 164.777344 C 422.566406 166.105469 422.058594 167.289062 421.601562 168.335938 C 421.136719 169.382812 420.765625 170.210938 420.496094 170.800781 C 420.824219 170.757812 421.121094 170.726562 421.386719 170.726562 L 423.03125 170.726562 C 423.300781 170.726562 423.566406 170.757812 423.835938 170.800781 C 424.167969 169.679688 424.523438 168.542969 424.910156 167.375 C 425.300781 166.210938 425.730469 165.042969 426.195312 163.890625 C 426.792969 163.878906 427.390625 163.847656 427.988281 163.832031 C 428.585938 163.832031 429.179688 163.816406 429.792969 163.816406 C 430.523438 163.816406 431.273438 163.816406 432.003906 163.832031 C 432.734375 163.832031 433.480469 163.863281 434.210938 163.890625 C 434.644531 165.058594 435.0625 166.222656 435.453125 167.375 C 435.839844 168.542969 436.226562 169.679688 436.601562 170.800781 C 437.074219 170.757812 437.570312 170.726562 438.0625 170.726562 L 441.003906 170.726562 C 441.496094 170.726562 442.019531 170.757812 442.570312 170.800781 C 441.898438 169.472656 441.167969 167.863281 440.359375 165.945312 C 439.554688 164.023438 438.71875 162.003906 437.867188 159.875 M 427.074219 161.882812 C 427.585938 160.496094 428.109375 159.125 428.628906 157.792969 C 429.167969 156.464844 429.71875 155.109375 430.332031 153.734375 C 430.882812 155.109375 431.402344 156.453125 431.898438 157.792969 C 432.390625 159.125 432.898438 160.496094 433.40625 161.882812 Z M 427.074219 161.882812 "/>
<path style=" stroke:none;fill-rule:nonzero;fill:rgb(0%,0%,0%);fill-opacity:1;" d="M 483.5 147.28125 C 483.542969 147.519531 483.589844 147.960938 483.621094 148.613281 C 483.648438 149.277344 483.679688 150.058594 483.695312 150.972656 C 483.695312 151.890625 483.722656 152.878906 483.722656 153.972656 C 483.722656 155.046875 483.738281 156.15625 483.738281 157.277344 L 483.738281 163.582031 C 481.15625 160.820312 478.636719 158.105469 476.1875 155.433594 C 473.722656 152.761719 471.242188 150.042969 468.722656 147.28125 C 468.078125 147.402344 467.558594 147.460938 467.171875 147.460938 C 466.785156 147.460938 466.261719 147.402344 465.617188 147.28125 C 465.648438 148.109375 465.675781 149.054688 465.722656 150.117188 C 465.769531 151.195312 465.796875 152.507812 465.796875 154.089844 C 465.796875 155.816406 465.769531 157.632812 465.707031 159.523438 C 465.648438 161.410156 465.570312 163.152344 465.5 164.761719 C 465.425781 166.371094 465.347656 167.730469 465.277344 168.851562 C 465.199219 169.972656 465.140625 170.625 465.097656 170.800781 C 465.632812 170.757812 466.15625 170.726562 466.691406 170.726562 L 467.484375 170.726562 C 467.769531 170.726562 468.035156 170.757812 468.320312 170.800781 C 468.289062 170.550781 468.277344 170.210938 468.242188 169.796875 C 468.214844 169.371094 468.199219 168.835938 468.171875 168.171875 C 468.140625 167.507812 468.125 166.695312 468.125 165.738281 C 468.125 164.777344 468.113281 163.613281 468.113281 162.253906 L 468.113281 158.28125 C 468.113281 157.601562 468.113281 156.921875 468.125 156.257812 C 468.125 155.59375 468.15625 154.929688 468.171875 154.265625 C 473.5 159.816406 478.542969 165.324219 483.292969 170.800781 C 483.679688 170.757812 484.128906 170.726562 484.636719 170.726562 C 485.144531 170.726562 485.589844 170.757812 486.050781 170.800781 L 486.050781 166.695312 C 486.050781 165.058594 486.050781 163.507812 486.066406 162.0625 C 486.066406 160.613281 486.113281 159.152344 486.15625 157.660156 C 486.199219 156.1875 486.261719 154.605469 486.320312 152.921875 C 486.394531 151.238281 486.484375 149.363281 486.605469 147.296875 C 485.964844 147.414062 485.441406 147.476562 485.050781 147.476562 C 484.664062 147.476562 484.140625 147.414062 483.5 147.296875 "/>
<path style=" stroke:none;fill-rule:nonzero;fill:rgb(0%,0%,0%);fill-opacity:1;" d="M 507.007812 147.402344 C 505.679688 147.429688 504.160156 147.445312 502.457031 147.445312 C 501.410156 147.445312 500.394531 147.414062 499.382812 147.386719 C 498.367188 147.34375 497.335938 147.3125 496.308594 147.28125 C 496.394531 148.773438 496.472656 150.25 496.515625 151.710938 C 496.558594 153.1875 496.59375 154.871094 496.59375 156.761719 L 496.59375 161.410156 C 496.59375 163.300781 496.558594 164.984375 496.515625 166.460938 C 496.472656 167.9375 496.394531 169.371094 496.308594 170.785156 C 496.488281 170.773438 496.710938 170.742188 496.980469 170.742188 C 497.246094 170.742188 497.636719 170.726562 498.160156 170.726562 L 503.636719 170.726562 C 505.230469 170.726562 506.488281 170.726562 507.394531 170.742188 C 508.308594 170.742188 509.066406 170.773438 509.695312 170.785156 C 509.652344 170.652344 509.621094 170.476562 509.59375 170.269531 C 509.5625 170.0625 509.5625 169.78125 509.5625 169.414062 C 509.5625 169.042969 509.5625 168.765625 509.59375 168.558594 C 509.621094 168.351562 509.652344 168.128906 509.695312 167.878906 C 508.351562 168.039062 507.023438 168.160156 505.710938 168.21875 C 504.394531 168.292969 503.085938 168.320312 501.773438 168.320312 C 501.695312 166.949219 501.664062 165.53125 501.664062 164.039062 C 501.664062 163.316406 501.664062 162.578125 501.679688 161.855469 C 501.679688 161.132812 501.695312 160.394531 501.695312 159.667969 C 504.308594 159.667969 506.921875 159.773438 509.546875 159.980469 C 509.503906 159.609375 509.457031 159.328125 509.429688 159.136719 C 509.398438 158.945312 509.382812 158.753906 509.382812 158.578125 C 509.382812 158.355469 509.382812 158.132812 509.410156 157.925781 C 509.429688 157.722656 509.472656 157.425781 509.546875 157.042969 C 508.230469 157.117188 506.964844 157.175781 505.757812 157.21875 C 504.546875 157.261719 503.1875 157.292969 501.695312 157.324219 C 501.695312 156.066406 501.695312 154.828125 501.710938 153.585938 C 501.710938 152.347656 501.773438 151.105469 501.859375 149.851562 C 502.113281 149.851562 502.546875 149.851562 503.144531 149.882812 C 503.738281 149.910156 504.410156 149.941406 505.171875 149.984375 C 505.921875 150.027344 506.695312 150.074219 507.488281 150.117188 C 508.28125 150.160156 509.007812 150.207031 509.679688 150.25 C 509.636719 150 509.609375 149.777344 509.574219 149.570312 C 509.546875 149.363281 509.546875 149.085938 509.546875 148.714844 C 509.546875 148.125 509.59375 147.636719 509.679688 147.28125 C 509.21875 147.328125 508.324219 147.371094 506.996094 147.402344 "/>
<path style=" stroke:none;fill-rule:nonzero;fill:rgb(0%,0%,0%);fill-opacity:1;" d="M 534.535156 147.28125 C 533.820312 147.3125 533.160156 147.328125 532.546875 147.355469 C 531.9375 147.386719 531.3125 147.402344 530.667969 147.402344 C 530.027344 147.402344 529.3125 147.429688 528.53125 147.429688 C 527.757812 147.429688 526.832031 147.445312 525.742188 147.445312 C 524.652344 147.445312 523.726562 147.445312 522.953125 147.429688 C 522.175781 147.429688 521.460938 147.402344 520.800781 147.402344 C 520.144531 147.402344 519.503906 147.371094 518.859375 147.355469 C 518.21875 147.328125 517.519531 147.3125 516.726562 147.28125 C 516.773438 147.535156 516.816406 147.785156 516.847656 148.035156 C 516.875 148.289062 516.890625 148.539062 516.890625 148.789062 C 516.890625 149.039062 516.875 149.292969 516.847656 149.542969 C 516.816406 149.792969 516.773438 150.042969 516.726562 150.292969 C 517.234375 150.222656 517.789062 150.160156 518.382812 150.101562 C 518.980469 150.042969 519.574219 150 520.144531 149.96875 C 520.726562 149.941406 521.265625 149.910156 521.773438 149.882812 C 522.28125 149.851562 522.710938 149.851562 523.054688 149.851562 C 523.101562 150.101562 523.132812 150.5 523.144531 151.046875 C 523.144531 151.59375 523.160156 152.199219 523.160156 152.863281 L 523.160156 161.425781 C 523.160156 163.316406 523.132812 165 523.085938 166.476562 C 523.039062 167.953125 522.96875 169.382812 522.875 170.800781 C 523.265625 170.757812 523.695312 170.726562 524.160156 170.726562 L 527.28125 170.726562 C 527.742188 170.726562 528.160156 170.757812 528.5625 170.800781 C 528.476562 169.382812 528.398438 167.9375 528.355469 166.476562 C 528.3125 165 528.296875 163.316406 528.296875 161.425781 L 528.296875 151.0625 C 528.296875 150.78125 528.296875 150.546875 528.3125 150.339844 C 528.3125 150.132812 528.339844 149.96875 528.355469 149.867188 C 528.699219 149.867188 529.132812 149.867188 529.640625 149.894531 C 530.148438 149.925781 530.683594 149.941406 531.253906 149.984375 C 531.816406 150.015625 532.382812 150.058594 532.96875 150.117188 C 533.546875 150.175781 534.054688 150.234375 534.519531 150.308594 C 534.476562 150.058594 534.433594 149.808594 534.398438 149.558594 C 534.371094 149.304688 534.355469 149.054688 534.355469 148.804688 C 534.355469 148.554688 534.371094 148.300781 534.398438 148.050781 C 534.433594 147.800781 534.476562 147.546875 534.519531 147.296875 "/>
<path style=" stroke:none;fill-rule:nonzero;fill:rgb(0%,0%,0%);fill-opacity:1;" d="M 573.058594 147.460938 C 572.671875 147.460938 572.179688 147.402344 571.613281 147.28125 C 571.449219 147.960938 571.179688 148.980469 570.777344 150.324219 C 570.386719 151.667969 569.941406 153.160156 569.464844 154.769531 C 568.984375 156.390625 568.476562 158.058594 567.957031 159.800781 C 567.433594 161.542969 566.941406 163.125 566.492188 164.554688 L 566.421875 164.554688 C 566.207031 163.804688 565.941406 162.933594 565.628906 161.914062 C 565.300781 160.910156 564.957031 159.847656 564.566406 158.726562 C 564.179688 157.601562 563.804688 156.480469 563.414062 155.328125 C 563.042969 154.191406 562.6875 153.101562 562.34375 152.082031 C 562.015625 151.046875 561.714844 150.117188 561.464844 149.277344 C 561.207031 148.433594 561.027344 147.753906 560.941406 147.253906 C 560.640625 147.296875 560.355469 147.34375 560.074219 147.371094 C 559.792969 147.402344 559.507812 147.414062 559.207031 147.414062 C 558.90625 147.414062 558.628906 147.402344 558.34375 147.371094 C 558.070312 147.34375 557.777344 147.296875 557.476562 147.253906 C 557.222656 148.050781 556.863281 149.128906 556.402344 150.488281 C 555.941406 151.84375 555.433594 153.320312 554.878906 154.929688 C 554.328125 156.539062 553.761719 158.179688 553.164062 159.863281 C 552.578125 161.542969 552.027344 163.09375 551.519531 164.527344 L 551.449219 164.527344 C 551.121094 163.34375 550.777344 162.046875 550.386719 160.644531 C 550.011719 159.242188 549.613281 157.792969 549.207031 156.304688 C 548.804688 154.8125 548.398438 153.292969 548.011719 151.757812 C 547.625 150.222656 547.253906 148.714844 546.90625 147.253906 C 546.449219 147.296875 545.984375 147.34375 545.503906 147.371094 C 545.027344 147.402344 544.5625 147.414062 544.105469 147.414062 C 543.640625 147.414062 543.164062 147.402344 542.683594 147.371094 C 542.207031 147.34375 541.699219 147.296875 541.191406 147.253906 C 541.28125 147.488281 541.476562 148.09375 541.777344 149.085938 C 542.070312 150.074219 542.445312 151.285156 542.878906 152.703125 C 543.3125 154.117188 543.789062 155.667969 544.296875 157.367188 C 544.804688 159.0625 545.296875 160.746094 545.789062 162.414062 C 546.269531 164.085938 546.714844 165.664062 547.132812 167.140625 C 547.550781 168.628906 547.878906 169.828125 548.132812 170.773438 C 548.433594 170.726562 548.726562 170.699219 549.027344 170.699219 L 549.925781 170.699219 C 550.5625 170.699219 551.164062 170.726562 551.683594 170.773438 C 552.058594 169.636719 552.492188 168.335938 553 166.875 C 553.507812 165.414062 554.027344 163.9375 554.578125 162.429688 C 555.121094 160.925781 555.65625 159.449219 556.191406 158 C 556.730469 156.554688 557.191406 155.242188 557.613281 154.074219 L 557.671875 154.074219 C 558.714844 156.921875 559.699219 159.730469 560.628906 162.476562 C 561.566406 165.222656 562.402344 167.996094 563.136719 170.773438 C 563.433594 170.726562 563.730469 170.699219 564.027344 170.699219 L 564.925781 170.699219 C 565.566406 170.699219 566.164062 170.726562 566.6875 170.773438 C 567.058594 169.5625 567.492188 168.203125 567.984375 166.667969 C 568.476562 165.148438 569 163.582031 569.523438 161.972656 C 570.042969 160.378906 570.585938 158.785156 571.121094 157.21875 C 571.65625 155.640625 572.148438 154.191406 572.613281 152.847656 C 573.074219 151.519531 573.480469 150.355469 573.820312 149.378906 C 574.164062 148.40625 574.421875 147.695312 574.585938 147.253906 C 574.300781 147.296875 574.03125 147.34375 573.761719 147.371094 C 573.492188 147.402344 573.238281 147.414062 572.984375 147.414062 "/>
<path style=" stroke:none;fill-rule:nonzero;fill:rgb(0%,0%,0%);fill-opacity:1;" d="M 602.644531 149.851562 C 601.46875 148.847656 600.074219 148.09375 598.496094 147.59375 C 596.898438 147.089844 595.179688 146.839844 593.34375 146.839844 C 591.332031 146.839844 589.507812 147.164062 587.882812 147.800781 C 586.238281 148.433594 584.851562 149.320312 583.6875 150.429688 C 582.539062 151.550781 581.644531 152.847656 581 154.324219 C 580.375 155.800781 580.046875 157.394531 580.046875 159.078125 C 580.046875 161.21875 580.386719 163.066406 581.09375 164.601562 C 581.777344 166.136719 582.71875 167.40625 583.910156 168.394531 C 585.109375 169.382812 586.496094 170.105469 588.09375 170.550781 C 589.6875 170.992188 591.402344 171.214844 593.226562 171.214844 C 595.167969 171.214844 596.945312 170.90625 598.554688 170.285156 C 600.167969 169.664062 601.554688 168.808594 602.71875 167.699219 C 603.882812 166.59375 604.796875 165.292969 605.453125 163.816406 C 606.109375 162.339844 606.4375 160.730469 606.4375 159.019531 C 606.4375 156.96875 606.09375 155.167969 605.421875 153.632812 C 604.734375 152.097656 603.808594 150.828125 602.632812 149.824219 M 600.125 163.167969 C 599.6875 164.542969 599.125 165.664062 598.421875 166.5625 C 597.71875 167.449219 596.898438 168.113281 595.945312 168.542969 C 595.003906 168.96875 594.003906 169.191406 592.972656 169.191406 C 592.003906 169.191406 591.074219 169.015625 590.210938 168.675781 C 589.332031 168.335938 588.554688 167.773438 587.894531 167.023438 C 587.222656 166.253906 586.703125 165.25 586.300781 163.996094 C 585.910156 162.742188 585.71875 161.207031 585.71875 159.375 C 585.71875 157.914062 585.882812 156.539062 586.222656 155.253906 C 586.554688 153.972656 587.046875 152.847656 587.703125 151.890625 C 588.359375 150.929688 589.136719 150.175781 590.074219 149.617188 C 591.015625 149.054688 592.0625 148.773438 593.238281 148.773438 C 594.34375 148.773438 595.375 148.996094 596.300781 149.4375 C 597.226562 149.882812 598.03125 150.515625 598.6875 151.34375 C 599.347656 152.171875 599.851562 153.160156 600.226562 154.339844 C 600.601562 155.519531 600.78125 156.851562 600.78125 158.324219 C 600.78125 160.203125 600.570312 161.808594 600.136719 163.183594 "/>
<path style=" stroke:none;fill-rule:nonzero;fill:rgb(0%,0%,0%);fill-opacity:1;" d="M 625.769531 159.269531 C 627.5 158.84375 628.828125 158.089844 629.734375 157.042969 C 630.664062 155.992188 631.125 154.636719 631.125 152.96875 C 631.125 151.933594 630.933594 151.0625 630.511719 150.308594 C 630.113281 149.570312 629.558594 148.953125 628.871094 148.449219 C 628.570312 148.242188 628.261719 148.066406 627.914062 147.917969 C 627.570312 147.769531 627.183594 147.652344 626.734375 147.5625 C 626.289062 147.476562 625.753906 147.402344 625.125 147.355469 C 624.496094 147.3125 623.753906 147.28125 622.871094 147.28125 C 621.691406 147.28125 620.707031 147.3125 619.914062 147.371094 C 619.125 147.429688 618.40625 147.460938 617.78125 147.460938 C 617.199219 147.460938 616.675781 147.445312 616.226562 147.414062 C 615.765625 147.386719 615.347656 147.34375 614.945312 147.296875 C 615.035156 148.789062 615.109375 150.265625 615.152344 151.726562 C 615.199219 153.203125 615.226562 154.886719 615.226562 156.777344 L 615.226562 161.425781 C 615.226562 163.316406 615.210938 165 615.152344 166.476562 C 615.109375 167.953125 615.035156 169.382812 614.945312 170.800781 C 615.332031 170.757812 615.765625 170.726562 616.226562 170.726562 L 619.347656 170.726562 C 619.8125 170.726562 620.226562 170.757812 620.632812 170.800781 C 620.542969 169.382812 620.46875 167.9375 620.425781 166.476562 C 620.378906 165 620.347656 163.316406 620.347656 161.425781 L 620.347656 160.023438 L 620.660156 160.023438 L 626.855469 170.800781 C 627.390625 170.757812 627.914062 170.726562 628.441406 170.726562 L 631.570312 170.726562 C 632.078125 170.726562 632.605469 170.757812 633.125 170.800781 C 631.855469 168.910156 630.589844 166.992188 629.320312 165.074219 C 628.050781 163.152344 626.855469 161.207031 625.753906 159.269531 M 621.109375 158.621094 C 620.992188 158.621094 620.871094 158.621094 620.753906 158.605469 C 620.617188 158.605469 620.496094 158.578125 620.347656 158.546875 C 620.347656 155.445312 620.378906 152.347656 620.453125 149.246094 C 621.390625 149.246094 622.214844 149.292969 622.882812 149.378906 C 623.570312 149.46875 624.125 149.675781 624.542969 149.984375 C 624.976562 150.292969 625.289062 150.738281 625.5 151.34375 C 625.707031 151.933594 625.8125 152.730469 625.8125 153.734375 C 625.8125 155.375 625.40625 156.597656 624.605469 157.410156 C 623.796875 158.222656 622.632812 158.621094 621.109375 158.621094 Z M 621.109375 158.621094 "/>
<path style=" stroke:none;fill-rule:nonzero;fill:rgb(0%,0%,0%);fill-opacity:1;" d="M 654.886719 164.792969 C 654.007812 163.507812 653.113281 162.195312 652.199219 160.835938 C 651.308594 159.492188 650.484375 158.265625 649.738281 157.144531 C 650.199219 156.597656 650.84375 155.847656 651.679688 154.902344 C 652.515625 153.957031 653.378906 152.980469 654.292969 151.976562 C 655.203125 150.972656 656.066406 150.042969 656.875 149.171875 C 657.679688 148.300781 658.277344 147.683594 658.679688 147.28125 C 658.292969 147.328125 657.921875 147.371094 657.59375 147.402344 C 657.265625 147.429688 656.933594 147.445312 656.605469 147.445312 C 656.277344 147.445312 655.964844 147.429688 655.636719 147.402344 C 655.308594 147.371094 654.992188 147.328125 654.664062 147.28125 C 654.367188 147.710938 653.886719 148.359375 653.214844 149.21875 C 652.542969 150.074219 651.800781 151.019531 650.964844 152.039062 C 650.128906 153.054688 649.261719 154.117188 648.363281 155.195312 C 647.472656 156.273438 646.621094 157.277344 645.84375 158.191406 L 645.84375 154.914062 C 645.84375 153.246094 645.859375 151.726562 645.902344 150.367188 C 645.933594 148.996094 646.007812 147.976562 646.128906 147.28125 C 645.738281 147.328125 645.304688 147.371094 644.84375 147.402344 C 644.378906 147.429688 643.855469 147.445312 643.292969 147.445312 C 642.722656 147.445312 642.199219 147.429688 641.738281 147.402344 C 641.277344 147.371094 640.855469 147.328125 640.457031 147.28125 C 640.542969 148.773438 640.621094 150.25 640.664062 151.710938 C 640.707031 153.1875 640.738281 154.871094 640.738281 156.761719 L 640.738281 161.410156 C 640.738281 163.300781 640.707031 164.984375 640.664062 166.460938 C 640.621094 167.9375 640.542969 169.382812 640.457031 170.785156 C 640.84375 170.742188 641.277344 170.710938 641.738281 170.710938 L 644.859375 170.710938 C 645.320312 170.710938 645.753906 170.742188 646.140625 170.785156 C 646.007812 169.738281 645.914062 168.320312 645.902344 166.550781 C 645.871094 164.761719 645.871094 162.636719 645.871094 160.140625 L 645.949219 160.140625 C 647.128906 161.914062 648.277344 163.699219 649.410156 165.5 C 650.542969 167.289062 651.695312 169.058594 652.871094 170.785156 C 653.378906 170.742188 653.886719 170.710938 654.378906 170.710938 L 657.441406 170.710938 C 657.980469 170.710938 658.574219 170.742188 659.246094 170.785156 C 658.785156 170.238281 658.171875 169.429688 657.410156 168.335938 C 656.652344 167.257812 655.828125 166.0625 654.933594 164.777344 "/>
<path style=" stroke:none;fill-rule:nonzero;fill:rgb(0%,0%,0%);fill-opacity:1;" d="M 490.734375 43.46875 C 490.304688 43.601562 490.003906 44 489.648438 44.308594 C 487.214844 46.523438 484.003906 49.90625 481.734375 52.652344 C 480.035156 54.730469 478.675781 57.152344 478.167969 59.605469 C 477.8125 61.316406 477.960938 62.984375 478.109375 64.636719 C 478.691406 70.042969 479.71875 73.230469 479.914062 76.019531 C 473.332031 78.367188 462.867188 80.332031 449.730469 76.804688 C 450.046875 75.945312 450.34375 75.074219 450.617188 74.234375 C 451.730469 70.792969 455.839844 60.695312 456.359375 57.226562 C 456.746094 54.585938 456.421875 51.882812 454.882812 49.964844 C 453.78125 48.589844 451.285156 46.980469 449.6875 46.140625 C 444.09375 43.203125 440.210938 41.386719 434.269531 39.734375 C 433.867188 39.613281 432.09375 39.320312 431.65625 39.347656 C 430.628906 39.394531 429.863281 40.484375 429.371094 41.414062 C 428.835938 42.40625 428.371094 43.304688 427.957031 44.148438 C 427.957031 44.148438 419.941406 59 419 60.695312 C 418.597656 61.421875 418.804688 63.015625 419.386719 64.917969 L 419.355469 64.949219 C 419.355469 64.949219 419.507812 65.40625 419.820312 66.203125 C 420.65625 68.460938 421.894531 70.972656 423.269531 72.980469 C 424.984375 75.800781 427.359375 79.046875 430.507812 82.207031 C 422.714844 89.664062 417.878906 93.914062 407.535156 97.5 C 400.90625 98.5625 389.96875 99.671875 387.519531 99.878906 C 387.144531 99.894531 386.800781 99.921875 386.429688 99.9375 C 386.488281 100.144531 386.667969 100.308594 386.921875 100.441406 C 386.921875 100.441406 394.847656 107.644531 403.832031 109.578125 C 403.984375 109.621094 404.132812 109.652344 404.269531 109.695312 C 418.386719 113.328125 436.894531 102.445312 444.730469 88.878906 C 457.792969 94.0625 467.570312 93.441406 479.511719 91.359375 C 480.691406 91.152344 481.691406 90.371094 482.617188 89.589844 C 483.855469 88.527344 484.707031 87.152344 485.527344 85.792969 C 488.664062 80.640625 491.003906 75.667969 492.226562 70.070312 C 493.050781 66.308594 492.363281 45.785156 492.363281 45.785156 C 492.320312 44.664062 491.960938 43.113281 490.769531 43.46875 M 439.867188 73.527344 C 424.640625 67.398438 423.6875 61.050781 423.6875 61.050781 C 423.804688 60.976562 432.878906 54.996094 445.195312 65.199219 C 445.195312 65.199219 443.730469 68.832031 439.851562 73.527344 "/>
<path style=" stroke:none;fill-rule:nonzero;fill:rgb(0%,0%,0%);fill-opacity:1;" d="M 513.472656 23.109375 C 513.484375 22.207031 512.785156 22.339844 512.113281 22.429688 C 511.261719 22.546875 499.570312 34.683594 500.050781 39.4375 C 500.050781 39.4375 502.574219 93.234375 503.261719 96.46875 C 504.800781 103.761719 505.457031 98.710938 510.292969 92.140625 C 513.1875 88.214844 514.425781 83.003906 515.066406 74.398438 C 515.394531 69.878906 513.484375 23.109375 513.484375 23.109375 Z M 513.472656 23.109375 "/>
<path style=" stroke:none;fill-rule:nonzero;fill:rgb(0%,0%,0%);fill-opacity:1;" d="M 398.503906 79.359375 C 399.207031 78.355469 401.398438 74.855469 402.011719 73.804688 C 404.191406 69.953125 404.503906 69.199219 406.640625 65.464844 C 408.269531 62.585938 409.726562 59.722656 410.371094 56.636719 C 411.476562 51.335938 410.328125 45.460938 406.089844 42.507812 C 396.59375 35.894531 386.191406 48.589844 378.292969 55.144531 C 375.816406 57.199219 372.890625 60.460938 372.949219 59.28125 C 373.1875 53.402344 371.859375 23.921875 371.742188 22.992188 L 371.53125 19.683594 C 371.488281 18.578125 371.113281 17.054688 369.921875 17.394531 C 369.488281 17.515625 369.144531 17.882812 368.84375 18.222656 C 366.679688 20.671875 362.859375 23.804688 360.964844 26.429688 C 359.410156 28.570312 357.917969 30.84375 357.410156 33.265625 C 357.066406 34.949219 357.21875 36.589844 357.367188 38.210938 C 358.113281 44.765625 358.472656 51.351562 359.113281 57.921875 C 359.398438 60.785156 359.710938 63.648438 359.980469 66.511719 C 360.023438 66.898438 360.710938 71.636719 360.351562 71.753906 L 359.382812 77.6875 C 359.308594 77.867188 357.023438 77.835938 356.738281 77.835938 C 353.113281 78 349.484375 77.941406 345.875 77.6875 C 342.378906 77.453125 338.738281 77.1875 335.347656 76.316406 C 334.722656 76.152344 334.109375 75.945312 333.5 75.742188 C 332.601562 75.429688 331.753906 75.03125 330.945312 74.542969 C 330.230469 74.117188 329.5 73.613281 329.035156 72.921875 C 328.4375 72.019531 328.707031 70.855469 328.992188 69.761719 C 329.902344 66.660156 333.828125 55.542969 334.828125 52.457031 C 335.632812 49.992188 336.769531 47.070312 335.425781 44.929688 C 334.289062 43.113281 331.855469 42.832031 329.917969 42.613281 C 323.019531 41.8125 316.152344 41.136719 309.214844 40.808594 C 301.914062 40.457031 294.613281 40.472656 287.300781 40.648438 C 285.613281 40.691406 283.941406 40.765625 282.269531 40.972656 C 280.539062 41.210938 279.746094 42.066406 278.703125 43.4375 C 275.71875 47.378906 272.867188 51.617188 270.539062 55.882812 C 269.539062 57.730469 270.386719 58.628906 271.523438 59.839844 C 272.835938 61.242188 274.195312 62.617188 275.554688 63.988281 C 280.851562 69.390625 285.914062 74.988281 290.71875 80.820312 C 294.6875 85.632812 299.511719 90.664062 301.972656 96.675781 C 300.882812 97.074219 299.777344 97.398438 298.675781 97.621094 C 296.167969 98.121094 293.628906 98.285156 291.167969 98.195312 C 291.105469 98.195312 291.046875 98.195312 290.988281 98.195312 C 270.089844 97.457031 251.058594 80.082031 251.058594 80.082031 L 248.757812 80.082031 C 247.609375 88.863281 252.535156 97.117188 258.269531 102.652344 C 265.613281 109.742188 276.375 114.273438 288.105469 112.355469 C 291.0625 111.867188 294.152344 110.890625 296.660156 108.929688 C 298.09375 107.804688 299.167969 106.417969 300.195312 104.988281 C 301.226562 103.570312 302.226562 102.136719 303.199219 100.691406 C 303.199219 100.75 305.109375 98.328125 304.855469 98.683594 C 306.078125 97.015625 307.242188 95.300781 308.363281 93.589844 C 309.496094 91.875 310.617188 90.148438 311.675781 88.394531 C 311.972656 87.890625 312.945312 86.664062 312.839844 86.132812 C 311.972656 81.777344 309.644531 78.191406 307.09375 74.78125 C 304.210938 70.941406 301.195312 67.191406 298.078125 63.53125 C 295.644531 60.667969 293.136719 57.863281 290.585938 55.117188 C 292.300781 55.128906 294.019531 55.160156 295.734375 55.203125 C 303.003906 55.425781 310.226562 56.074219 317.453125 56.859375 C 318.765625 57.019531 320.09375 57.152344 321.40625 57.332031 C 321.855469 57.40625 322.304688 57.476562 322.75 57.582031 C 325.976562 58.304688 323.960938 68.980469 323.214844 72.109375 C 322.484375 74.691406 321.574219 77.261719 320.738281 79.828125 C 320.304688 81.144531 319.839844 82.472656 319.46875 83.785156 C 319.230469 84.628906 318.960938 85.601562 319.035156 86.457031 C 319.035156 86.621094 319.050781 86.769531 319.109375 86.945312 C 319.527344 88.246094 321.050781 89.042969 322.230469 89.601562 C 325.230469 91.035156 328.617188 91.539062 331.902344 91.90625 C 339.066406 92.71875 346.367188 92.71875 353.53125 91.90625 C 354.039062 91.847656 354.558594 91.789062 355.066406 91.714844 C 368.890625 89.929688 383.53125 86.179688 396.96875 81.128906 C 397.59375 80.894531 398.144531 79.828125 398.503906 79.328125 M 371.785156 68.609375 C 371.90625 68.195312 371.996094 67.796875 372.085938 67.382812 C 372.457031 65.671875 373.25 63.988281 374.53125 62.628906 C 375.023438 62.113281 375.519531 61.613281 376.039062 61.109375 C 379.90625 57.40625 384.773438 54.347656 389.9375 54.023438 C 395.027344 53.699219 399.027344 56.207031 400.773438 60.402344 C 401.667969 62.542969 402.011719 64.964844 401.847656 67.414062 C 390.773438 71.429688 379.488281 74.824219 368.160156 76.625 C 369.667969 74.027344 371.007812 71.371094 371.785156 68.609375 Z M 371.785156 68.609375 "/>
<path style=" stroke:none;fill-rule:nonzero;fill:rgb(0%,0%,0%);fill-opacity:1;" d="M 505.113281 19.316406 C 505.113281 19.316406 506.007812 19.933594 506.769531 19.167969 C 506.769531 19.167969 512.066406 14.753906 512.199219 14.5625 C 512.335938 14.371094 513.066406 13.292969 511.1875 11.992188 C 510.933594 11.816406 510.664062 11.625 510.425781 11.417969 C 509.605469 10.632812 508.769531 9.851562 507.949219 9.070312 C 506.886719 8.066406 505.769531 7.015625 505.140625 5.6875 C 506.527344 5.335938 508.023438 5.480469 509.425781 5.6875 C 509.527344 5.703125 509.964844 4.875 509.933594 4.9375 C 510.292969 4.316406 510.636719 3.667969 510.949219 3.015625 C 511.277344 2.367188 511.589844 1.71875 511.886719 1.066406 C 511.914062 0.992188 512.246094 0.226562 512.1875 0.210938 C 510.230469 -0.0703125 508.078125 -0.246094 506.351562 0.859375 C 505.691406 1.273438 505.242188 1.835938 504.84375 2.457031 C 504.84375 2.21875 504.558594 2.707031 504.019531 3.886719 C 503.457031 4.949219 502.902344 6.027344 502.425781 7.136719 C 502.183594 7.695312 501.949219 8.257812 501.886719 8.847656 C 501.796875 9.691406 501.992188 10.457031 502.335938 11.164062 C 501.214844 12.183594 500.320312 13.039062 500.320312 13.039062 C 500.320312 13.039062 499.320312 13.839844 499.960938 14.589844 C 500.753906 15.519531 505.066406 19.316406 505.066406 19.316406 "/>
<path style=" stroke:none;fill-rule:nonzero;fill:rgb(0%,0%,0%);fill-opacity:1;" d="M 319.09375 98.726562 C 319.09375 98.726562 317.824219 97.28125 316.660156 98.238281 C 315.226562 99.421875 309.363281 105.902344 309.363281 105.902344 C 309.363281 105.902344 308.40625 107.230469 309.644531 108.351562 C 309.644531 108.351562 316.707031 116.074219 317.019531 116.265625 C 317.332031 116.457031 319.035156 117.519531 321.050781 114.714844 C 322.828125 112.234375 325.246094 109.785156 325.960938 109.195312 C 326.5 108.75 327.050781 108.292969 327.289062 107.804688 C 327.738281 106.890625 319.125 98.726562 319.125 98.726562 "/>
<path style=" stroke:none;fill-rule:nonzero;fill:rgb(0%,0%,0%);fill-opacity:1;" d="M 474.078125 98.726562 C 474.078125 98.726562 472.8125 97.28125 471.644531 98.238281 C 470.210938 99.421875 464.347656 105.902344 464.347656 105.902344 C 464.347656 105.902344 463.390625 107.230469 464.632812 108.351562 C 464.632812 108.351562 471.691406 116.074219 472.003906 116.265625 C 472.316406 116.457031 474.019531 117.519531 476.035156 114.714844 C 477.8125 112.234375 480.226562 109.785156 480.945312 109.195312 C 481.484375 108.75 482.035156 108.292969 482.273438 107.804688 C 482.71875 106.890625 474.109375 98.726562 474.109375 98.726562 "/>
<path style=" stroke:none;fill-rule:nonzero;fill:rgb(0%,0%,0%);fill-opacity:1;" d="M 393.714844 33.058594 C 394.027344 33.25 395.726562 34.316406 397.742188 31.507812 C 399.519531 29.03125 401.9375 26.578125 402.65625 25.988281 C 403.191406 25.546875 403.742188 25.085938 403.984375 24.601562 C 404.433594 23.683594 395.816406 15.519531 395.816406 15.519531 C 395.816406 15.519531 394.550781 14.074219 393.386719 15.035156 C 391.953125 16.214844 386.085938 22.695312 386.085938 22.695312 C 386.085938 22.695312 385.128906 24.023438 386.371094 25.148438 C 386.371094 25.148438 393.429688 32.867188 393.742188 33.058594 "/>
<path style=" stroke:none;fill-rule:nonzero;fill:rgb(0%,0%,0%);fill-opacity:1;" d="M 193.917969 91.417969 C 193.652344 91.242188 193.394531 91.050781 193.144531 90.859375 C 192.308594 90.089844 191.472656 89.324219 190.636719 88.539062 C 189.558594 87.550781 188.425781 86.519531 187.785156 85.203125 C 189.171875 84.835938 190.664062 84.953125 192.066406 85.128906 C 192.171875 85.128906 192.589844 84.304688 192.5625 84.363281 C 192.902344 83.726562 193.230469 83.078125 193.546875 82.429688 C 193.859375 81.777344 194.171875 81.128906 194.457031 80.464844 C 194.488281 80.390625 194.800781 79.625 194.753906 79.609375 C 192.800781 79.371094 190.648438 79.226562 188.933594 80.359375 C 188.292969 80.789062 187.84375 81.351562 187.457031 81.96875 C 187.457031 81.734375 187.1875 82.222656 186.664062 83.417969 C 186.113281 84.496094 185.589844 85.574219 185.113281 86.679688 C 184.875 87.242188 184.664062 87.800781 184.605469 88.40625 C 184.53125 89.25 184.738281 90.015625 185.097656 90.710938 C 183.992188 91.742188 183.113281 92.613281 183.113281 92.613281 C 183.113281 92.613281 182.125 93.425781 182.785156 94.164062 C 183.589844 95.082031 187.964844 98.816406 187.964844 98.816406 C 187.964844 98.816406 188.859375 99.421875 189.621094 98.636719 C 189.621094 98.636719 194.84375 94.152344 194.964844 93.945312 C 195.097656 93.75 195.816406 92.660156 193.917969 91.390625 "/>
<path style=" stroke:none;fill-rule:nonzero;fill:rgb(0%,0%,0%);fill-opacity:1;" d="M 234.371094 9.792969 C 233.460938 9.882812 220.757812 21.367188 221.175781 26.003906 C 221.175781 26.003906 221.667969 46.878906 222.070312 63.78125 L 222.011719 63.78125 C 222.011719 63.78125 222.21875 69.554688 218.800781 70.394531 C 218.175781 70.542969 217.652344 70.675781 217.160156 70.792969 C 217.054688 70.824219 216.9375 70.855469 216.832031 70.882812 C 216.382812 70.988281 215.996094 71.089844 215.652344 71.164062 C 215.578125 71.179688 215.503906 71.191406 215.429688 71.207031 C 215.160156 71.265625 214.921875 71.328125 214.710938 71.371094 C 214.652344 71.371094 214.578125 71.398438 214.519531 71.414062 C 214.308594 71.460938 214.144531 71.503906 213.996094 71.53125 C 213.9375 71.546875 213.859375 71.5625 213.816406 71.578125 C 213.726562 71.59375 213.636719 71.621094 213.5625 71.636719 C 213.546875 71.636719 213.519531 71.636719 213.503906 71.636719 L 213.191406 71.695312 C 213.191406 71.695312 211.9375 43.792969 211.367188 35.96875 C 211.339844 35.464844 211.203125 34.980469 210.980469 34.519531 C 210.25 33.058594 208.441406 29.855469 206.503906 29.679688 C 202.5625 29.308594 190.933594 57.683594 179.515625 66.144531 L 185.875 57.199219 C 186.261719 56.667969 186.457031 56.015625 186.441406 55.351562 L 185.1875 10.546875 C 185.171875 9.824219 184.261719 9.496094 183.785156 10.027344 L 172.886719 22.046875 C 171.84375 23.210938 171.273438 24.734375 171.351562 26.285156 L 172.976562 66.898438 C 173.066406 69.171875 171.8125 71.28125 169.78125 72.316406 L 131.4375 90.195312 C 130.941406 90.445312 130.882812 91.109375 131.316406 91.433594 L 132.601562 92.421875 C 132.734375 92.527344 132.898438 92.570312 133.0625 92.570312 L 160.320312 92.570312 C 165.664062 92.570312 184.097656 80.140625 187.574219 75.121094 C 191.054688 70.101562 198.800781 50.289062 198.800781 50.289062 C 198.800781 50.289062 199.335938 49.492188 199.335938 54.246094 C 199.335938 59 200.664062 85.425781 200.664062 87.269531 C 200.664062 88.527344 205.621094 88.007812 207.113281 87.816406 C 207.277344 87.800781 207.425781 87.773438 207.488281 87.773438 C 207.636719 87.757812 207.769531 87.714844 207.921875 87.699219 C 208.667969 87.59375 209.441406 87.460938 210.25 87.300781 C 210.652344 87.226562 211.039062 87.136719 211.429688 87.050781 C 212.070312 86.902344 212.726562 86.722656 213.382812 86.53125 C 213.726562 86.429688 214.085938 86.339844 214.429688 86.238281 C 214.503906 86.207031 214.5625 86.191406 214.636719 86.179688 L 214.636719 86.164062 C 216.683594 85.484375 218.683594 84.644531 220.546875 83.59375 C 228.175781 79.285156 233.207031 70.839844 234.847656 62.484375 C 235.207031 60.652344 235.445312 58.808594 235.640625 56.945312 C 236.070312 52.578125 235.847656 10.472656 235.832031 10.488281 C 235.863281 9.617188 235.117188 9.71875 234.386719 9.792969 "/>
<path style=" stroke:none;fill-rule:nonzero;fill:rgb(0%,0%,0%);fill-opacity:1;" d="M 539.488281 47.144531 C 540.023438 46.703125 540.574219 46.230469 540.832031 45.742188 C 541.203125 44.972656 535.292969 39.1875 533.265625 37.222656 C 533.695312 36.929688 534.144531 36.5 534.621094 35.835938 C 536.429688 33.324219 538.859375 30.84375 539.574219 30.253906 C 540.117188 29.8125 540.667969 29.339844 540.921875 28.851562 C 541.382812 27.9375 532.667969 19.667969 532.667969 19.667969 C 532.667969 19.667969 531.382812 18.207031 530.203125 19.183594 C 528.757812 20.378906 522.816406 26.933594 522.816406 26.933594 C 522.816406 26.933594 521.84375 28.277344 523.101562 29.414062 C 523.101562 29.414062 527.664062 34.402344 529.652344 36.5 C 527.710938 38.34375 522.722656 43.835938 522.722656 43.835938 C 522.722656 43.835938 521.757812 45.179688 523.007812 46.316406 C 523.007812 46.316406 530.144531 54.128906 530.457031 54.320312 C 530.773438 54.511719 532.488281 55.589844 534.53125 52.753906 C 536.339844 50.246094 538.773438 47.765625 539.488281 47.171875 "/>
<path style=" stroke:none;fill-rule:nonzero;fill:rgb(0%,0%,0%);fill-opacity:1;" d="M 253.355469 72.34375 C 253.671875 72.535156 255.371094 73.597656 257.386719 70.792969 C 259.164062 68.3125 261.582031 65.863281 262.296875 65.273438 C 262.835938 64.832031 263.386719 64.371094 263.625 63.886719 C 264.042969 63.058594 256.984375 56.269531 255.6875 55.011719 C 256.207031 54.746094 256.789062 54.273438 257.402344 53.417969 C 259.179688 50.9375 261.597656 48.488281 262.3125 47.898438 C 262.851562 47.453125 263.402344 46.980469 263.640625 46.507812 C 264.089844 45.59375 255.476562 37.429688 255.476562 37.429688 C 255.476562 37.429688 254.207031 35.984375 253.042969 36.941406 C 251.609375 38.125 245.746094 44.605469 245.746094 44.605469 C 245.746094 44.605469 244.789062 45.933594 246.027344 47.054688 C 246.027344 47.054688 251.207031 52.710938 252.878906 54.453125 C 251.222656 55.929688 245.746094 61.964844 245.746094 61.964844 C 245.746094 61.964844 244.789062 63.296875 246.027344 64.417969 C 246.027344 64.417969 253.089844 72.136719 253.402344 72.328125 "/>
<path style=" stroke:none;fill-rule:nonzero;fill:rgb(0%,0%,0%);fill-opacity:1;" d="M 646.945312 96.808594 C 646.945312 96.808594 645.675781 95.359375 644.511719 96.320312 C 643.078125 97.5 637.210938 103.984375 637.210938 103.984375 C 637.210938 103.984375 636.257812 105.3125 637.496094 106.433594 C 637.496094 106.433594 644.554688 114.15625 644.871094 114.347656 C 645.183594 114.539062 646.882812 115.601562 648.898438 112.796875 C 650.675781 110.316406 653.097656 107.867188 653.8125 107.273438 C 654.347656 106.832031 654.898438 106.375 655.140625 105.886719 C 655.589844 104.972656 646.976562 96.808594 646.976562 96.808594 "/>
<path style=" stroke:none;fill-rule:nonzero;fill:rgb(0%,0%,0%);fill-opacity:1;" d="M 728.011719 58.851562 C 725.832031 60.59375 721.175781 62.351562 719.546875 62.925781 C 709.070312 66.484375 698.410156 69.453125 687.738281 71 L 678.933594 71.917969 C 670.964844 72.390625 662.484375 72.125 654.722656 70.070312 C 653.199219 69.671875 651.675781 69.15625 650.363281 68.285156 C 648.796875 67.25 648.035156 66.144531 648.46875 64.238281 C 648.554688 63.871094 648.289062 63.515625 647.898438 63.488281 C 647.589844 63.457031 647.183594 63.457031 646.734375 63.472656 C 645.570312 63.5 645.320312 64.933594 645.320312 64.933594 C 644.734375 66.867188 644.167969 68.445312 643.617188 69.789062 C 642.914062 71.164062 641.796875 72.742188 640.0625 74.027344 C 639.570312 74.398438 639.035156 74.75 638.425781 75.074219 C 633.660156 77.511719 627.289062 76.816406 622.628906 74.425781 C 619.402344 72.757812 616.703125 70.234375 614.222656 67.648438 C 612.386719 65.746094 610.628906 63.769531 608.894531 61.773438 C 602.042969 53.90625 595.195312 44.148438 589.984375 36.691406 C 598.597656 34.09375 619.554688 31.464844 633.390625 27.167969 C 635.691406 26.460938 637.453125 24.660156 638.09375 22.371094 C 638.570312 20.671875 639.078125 18.652344 639.347656 16.820312 C 640.363281 10.222656 640.242188 7.210938 640.242188 7.210938 L 639.289062 6.398438 C 622.570312 12.628906 594.238281 21.78125 588.058594 26.386719 C 585.179688 28.558594 583.402344 43.203125 583.402344 49.300781 C 589.699219 58.925781 593 65.96875 594.777344 73.289062 C 589.984375 76.375 581.207031 78.234375 576.683594 78.234375 C 576.578125 78.234375 576.507812 78.265625 576.414062 78.28125 C 575.117188 78.28125 573.835938 78.25 572.550781 78.132812 C 570.726562 77.953125 568.890625 77.585938 567.597656 76.507812 C 565.640625 74.882812 565.160156 71.652344 565.925781 68.964844 C 566.5625 66.691406 568.269531 64.503906 569.269531 62.292969 C 570.699219 59.101562 570.371094 55.382812 570.089844 53.535156 C 570.089844 53.507812 570.089844 53.492188 570.105469 53.460938 L 570.027344 53.183594 L 569.355469 50.777344 L 569.027344 49.59375 C 567.699219 45.226562 565.191406 37.046875 564.625 35.671875 C 563.863281 33.828125 562.296875 35.125 562.21875 35.1875 C 550.804688 41.238281 541.953125 51.898438 538.265625 63.679688 C 536.9375 67.914062 535.800781 72.210938 534.9375 76.492188 C 534.5625 78.292969 534.1875 80.167969 534.53125 81.882812 C 535.128906 84.847656 538.066406 85.042969 540.902344 84.511719 C 546.445312 83.476562 551.863281 80.761719 556.429688 77.011719 C 557.382812 76.226562 558.265625 75.402344 559.117188 74.542969 C 558.445312 76.65625 557.414062 78.488281 556.191406 80.878906 C 555.175781 82.871094 554.234375 85.101562 554.652344 87.136719 C 555.191406 89.734375 557.804688 91.136719 560.414062 91.816406 C 560.742188 91.90625 561.089844 91.980469 561.414062 92.054688 C 561.578125 92.128906 561.683594 92.171875 561.625 92.113281 L 561.5625 92.082031 C 565.191406 92.851562 578.296875 92.835938 578.296875 92.835938 C 578.296875 92.835938 580.179688 92.894531 582.65625 92.347656 C 585.742188 91.890625 588.238281 91.109375 589.300781 90.328125 C 591.207031 88.835938 597.941406 77.453125 600.402344 71.207031 C 611.046875 84.539062 617.402344 90.902344 625.988281 92.410156 C 625.988281 92.410156 630.972656 93.558594 634.824219 91.949219 C 637.40625 90.871094 639.824219 87.417969 641.898438 83.386719 C 642.707031 83.773438 643.542969 84.109375 644.4375 84.332031 C 644.390625 84.40625 644.375 84.449219 644.390625 84.464844 C 644.769531 84.539062 645.125 84.613281 645.496094 84.671875 C 648.648438 85.308594 651.828125 85.78125 655.0625 86.074219 C 661.378906 86.652344 667.84375 86.589844 674.410156 85.839844 C 687.410156 84.347656 701.128906 81.097656 713.953125 76.699219 L 709.488281 88.863281 L 711.445312 90.105469 L 729.476562 59.886719 L 727.984375 58.808594 Z M 554.117188 65.464844 C 551.339844 66.910156 548.414062 67.988281 545.460938 68.59375 C 543.203125 69.054688 541.011719 69.066406 539.726562 67.871094 C 539.773438 67.796875 539.816406 67.722656 539.859375 67.648438 C 543.832031 61.714844 549.101562 56.578125 555.203125 52.785156 C 556.070312 55.011719 557.5625 58.96875 558.640625 62.660156 C 557.191406 63.707031 555.683594 64.652344 554.117188 65.480469 "/>
<path style=" stroke:none;fill-rule:nonzero;fill:rgb(0%,0%,0%);fill-opacity:1;" d="M 654.003906 53.582031 C 654.003906 53.582031 659.050781 38.730469 667.335938 35.421875 C 667.335938 35.421875 668.15625 35.820312 671.171875 38.683594 C 674.1875 41.5625 673.964844 43.144531 679.425781 39.1875 C 683.757812 36.042969 687.886719 31.953125 689.429688 30.402344 C 689.828125 29.988281 690.128906 29.488281 690.292969 28.925781 L 690.515625 28.171875 C 690.859375 27.007812 690.605469 25.765625 689.816406 24.835938 C 688.15625 22.902344 685.230469 19.667969 683.320312 18.605469 C 680.515625 17.042969 677.921875 14.78125 665.679688 27.140625 C 653.441406 39.480469 650.976562 51.957031 651.003906 52.710938 C 651.035156 53.460938 654.003906 53.59375 654.003906 53.59375 "/>
<path style=" stroke:none;fill-rule:nonzero;fill:rgb(0%,0%,0%);fill-opacity:1;" d="M 13.246094 85.574219 L 40.128906 75.148438 C 40.128906 75.148438 50.59375 72.535156 55.503906 60.03125 L 59.25 50.539062 C 59.90625 48.886719 58.699219 47.085938 56.890625 47.027344 L 43.1875 46.628906 C 41.890625 46.582031 40.667969 47.246094 39.980469 48.339844 L 34.398438 57.285156 C 33.980469 57.949219 33.351562 58.453125 32.605469 58.703125 C 29.082031 59.914062 18.214844 63.78125 11.558594 67.664062 C 10.902344 68.046875 10.351562 68.566406 9.902344 69.171875 C 7.917969 71.902344 2.378906 80.289062 0.363281 91.539062 C -0.261719 95.050781 -0.0703125 98.652344 0.855469 102.09375 C 1.992188 106.300781 4.171875 112.839844 8.1875 120.902344 C 9.722656 123.972656 14.515625 133.109375 14.515625 133.109375 C 14.933594 133.90625 16.039062 133.996094 16.589844 133.289062 L 18.710938 130.496094 C 18.902344 130.230469 18.992188 129.90625 18.933594 129.597656 L 12.46875 86.871094 C 12.378906 86.3125 12.707031 85.765625 13.230469 85.558594 "/>
<path style=" stroke:none;fill-rule:nonzero;fill:rgb(0%,0%,0%);fill-opacity:1;" d="M 155.035156 59.382812 L 155.035156 59.144531 L 141.464844 60.34375 C 136.226562 59.144531 134.972656 52.710938 134.972656 52.710938 C 138.453125 53.609375 141.75 54.464844 145.019531 55.308594 C 147.019531 50.15625 148.960938 45.164062 150.914062 40.175781 C 149.378906 39.644531 147.960938 39.070312 146.496094 38.683594 C 144.347656 38.125 142.242188 37.355469 139.945312 37.519531 C 138.972656 37.578125 138.078125 37.886719 137.289062 38.300781 C 136.257812 38.832031 135.300781 39.554688 134.464844 40.367188 C 132.988281 41.800781 131.480469 43.261719 130.257812 44.886719 C 128.570312 47.128906 127.121094 49.578125 126.03125 52.164062 C 125.359375 53.742188 124.839844 55.410156 124.496094 57.078125 C 124.195312 58.554688 123.957031 60.105469 124.105469 61.613281 L 128.210938 67 C 126.03125 68.003906 121.988281 69.789062 119.570312 70.382812 C 116.105469 71.238281 114.777344 71.53125 114.269531 71.652344 L 113.957031 71.710938 C 113.957031 71.710938 112.703125 43.808594 112.136719 35.984375 C 112.089844 35.480469 111.972656 34.992188 111.746094 34.535156 C 111.015625 33.074219 109.210938 29.871094 107.269531 29.695312 C 103.328125 29.324219 91.699219 57.699219 80.28125 66.160156 L 86.640625 57.210938 C 87.027344 56.679688 87.222656 56.03125 87.207031 55.367188 L 85.953125 10.5625 C 85.9375 9.835938 85.027344 9.511719 84.535156 10.042969 L 73.640625 22.0625 C 72.59375 23.226562 72.027344 24.75 72.101562 26.296875 L 73.730469 66.910156 C 73.820312 69.1875 72.566406 71.296875 70.535156 72.328125 L 32.1875 90.195312 C 31.695312 90.445312 31.636719 91.109375 32.070312 91.433594 L 33.335938 92.410156 C 33.472656 92.511719 33.636719 92.570312 33.800781 92.570312 L 61.054688 92.570312 C 66.398438 92.570312 84.835938 80.140625 88.3125 75.121094 C 91.789062 70.101562 99.539062 50.289062 99.539062 50.289062 C 99.539062 50.289062 100.074219 49.492188 100.074219 54.246094 C 100.074219 59 101.402344 85.425781 101.402344 87.269531 C 101.402344 88.378906 108.300781 88.480469 115.40625 86.179688 C 125.257812 84.125 155.050781 68.078125 155.050781 68.078125 L 155.050781 59.367188 Z M 155.035156 59.382812 "/>
<path style=" stroke:none;fill-rule:nonzero;fill:rgb(81.568627%,17.647059%,18.039216%);fill-opacity:1;" d="M 755.996094 20.910156 C 755.996094 14.960938 751.117188 10.148438 745.117188 10.148438 C 739.117188 10.148438 734.234375 14.976562 734.234375 20.910156 C 734.234375 26.84375 739.117188 31.671875 745.117188 31.671875 C 751.117188 31.671875 755.996094 26.84375 755.996094 20.910156 Z M 755.996094 20.910156 "/>
</g>
</svg>
