<?xml version="1.0" encoding="UTF-8" standalone="no"?>
<svg
   xmlns:dc="http://purl.org/dc/elements/1.1/"
   xmlns:cc="http://creativecommons.org/ns#"
   xmlns:rdf="http://www.w3.org/1999/02/22-rdf-syntax-ns#"
   xmlns:svg="http://www.w3.org/2000/svg"
   xmlns="http://www.w3.org/2000/svg"
   xmlns:sodipodi="http://sodipodi.sourceforge.net/DTD/sodipodi-0.dtd"
   xmlns:inkscape="http://www.inkscape.org/namespaces/inkscape"
   width="170px"
   height="49px"
   viewBox="0 0 170 49"
   version="1.1"
   id="svg865"
   sodipodi:docname="Abu_Dhabi_Airport_logo.svg"
   inkscape:version="1.0.2 (e86c870879, 2021-01-15, custom)">
  <metadata
     id="metadata869">
    <rdf:RDF>
      <cc:Work
         rdf:about="">
        <dc:format>image/svg+xml</dc:format>
        <dc:type
           rdf:resource="http://purl.org/dc/dcmitype/StillImage" />
        <dc:title>logo_v1</dc:title>
      </cc:Work>
    </rdf:RDF>
  </metadata>
  <sodipodi:namedview
     pagecolor="#ffffff"
     bordercolor="#666666"
     borderopacity="1"
     objecttolerance="10"
     gridtolerance="10"
     guidetolerance="10"
     inkscape:pageopacity="0"
     inkscape:pageshadow="2"
     inkscape:window-width="1920"
     inkscape:window-height="1001"
     id="namedview867"
     showgrid="false"
     inkscape:pagecheckerboard="true"
     inkscape:zoom="4.8813123"
     inkscape:cx="30.394031"
     inkscape:cy="24.5"
     inkscape:window-x="-9"
     inkscape:window-y="-9"
     inkscape:window-maximized="1"
     inkscape:current-layer="svg865" />
  <!-- Generator: Sketch 51.3 (57544) - http://www.bohemiancoding.com/sketch -->
  <title
     id="title854">logo_v1</title>
  <desc
     id="desc856">Created with Sketch.</desc>
  <defs
     id="defs858">
    <clipPath
       clipPathUnits="userSpaceOnUse"
       id="clipPath2114">
      <path
         id="path2116"
         style="fill:#000000;stroke:#c22938;stroke-width:0.653858;stroke-linejoin:bevel;paint-order:fill markers stroke"
         d="m 19,127.10938 v 227.8164 h 719.93359 c -1.07486,-1.09867 -2.02383,-2.42946 -2.79687,-4.12109 -1.70437,-3.72967 -4.09449,-8.48424 -2.34961,-12.14063 -1.85566,-3.04963 -3.40676,-6.49287 -5.13477,-9.34179 -0.30517,-0.50314 -0.0958,-1.04318 0.24219,-1.59766 -5.84591,0.77656 -7.17037,1.6304 -7.18359,0.0527 -1.30133,0.058 -2.60035,0.13011 -3.89453,0.23243 -0.14882,-0.98599 -0.28079,-1.97363 -0.42188,-2.96094 -2.65895,-2.87775 -4.28866,-10.7082 -4.49609,-13.23438 -0.0382,-0.46525 -0.0464,-0.93236 -0.0352,-1.39843 -0.0249,0.0237 -0.0373,0.0537 -0.0645,0.0762 -0.80314,0.66276 -1.30587,-1.70542 -1.53711,-2.72071 -1.80872,-7.94124 -2.91034,-16.03982 -4.52149,-24.02148 -1.27742,-0.0189 -2.59286,-0.043 -4.00195,-0.0762 -2.9608,-0.0697 -2.40261,-5.41388 -3.60351,-8.1211 -6.59309,-14.86289 -5.57441,-19.31543 -1.03711,-18.58789 -0.0252,-0.0838 -0.1009,-0.33216 -0.125,-0.41211 -0.52818,-1.40337 -1.03649,-2.81386 -1.50977,-4.23437 -0.88281,-1.64443 -2.50219,-3.65609 -9.70703,-18.85938 -2.46956,-5.21113 -4.26248,-10.72754 -6.7793,-15.91601 -3.56328,-7.34578 -8.24521,-14.14319 -11.44531,-21.6543 -3.86343,-9.06808 -2.22272,-19.97331 -8.23828,-28.40039 -0.008,-1.54147 0.12291,-3.08852 -0.0234,-4.62305 -0.192,-2.01359 -2.9269,-11.91042 0.0176,-12.68359 1.56608,-0.41123 2.33312,-0.61769 3.77734,-0.99805 0.70819,-3.50305 1.72112,-6.66216 4.72657,-7.84179 12.5269,-4.91681 17.4511,-2.96364 19.74023,1.40429 14.90571,-3.85423 5.66791,-0.83425 1.35547,3.9043 0.67768,2.92417 0.96532,6.21541 1.66211,9.1543 1.62594,6.85786 3.57413,13.63356 5.36133,20.45117 0.94984,6.43117 1.57594,10.91255 2.09961,14.67969 0.84544,-0.0595 1.8836,-0.0592 3.06054,-0.0254 2.76678,-0.96097 5.24691,-1.79033 7.35938,-2.4375 -0.12515,-1.0116 -0.25749,-2.02276 -0.35938,-3.03711 -2.74208,-27.30009 -0.37771,-17.71035 0.66211,-12.73633 -0.49999,-2.54035 -1.47748,-7.67262 -3.58594,-19.31836 -4.77823,-28.54659 3.50905,19.47929 -3.96484,-17.53711 -0.13095,-0.64855 0.3055,-1.30359 0.2832,-1.96484 -0.0407,-1.20432 -0.35448,-2.3846 -0.4707,-3.58399 -0.0455,-0.46948 -0.15496,-2.13635 -0.23242,-3.18554 z m 720.41016,0 c 2.04139,4.50051 4.22627,8.94209 6.35351,13.40624 1.24541,-3.12523 2.65037,-6.19619 3.62695,-9.41406 0.28968,-0.95449 0.62453,-2.39307 0.98633,-3.99218 z m 62.24414,0 c 0.2192,0.97136 0.44353,1.94152 0.6582,2.91406 0.19807,-1.03484 0.41287,-2.03592 0.67188,-2.91406 z m 10.4414,0 c 2.89481,2.12051 5.54373,4.62124 8.06055,7.27343 1.81435,-2.3641 4.03514,-4.80001 6.67187,-7.27343 z m -34.66211,1.6875 c -5.43388,12.27067 -3.54493,6.64519 -6.98047,20.44335 -0.0365,0.0776 -0.0653,0.13584 -0.10156,0.21289 0.78739,0.43973 1.52563,1.40938 2.18555,2.70508 0.76448,0.38425 1.52912,0.77002 2.28516,1.16992 1.98491,1.04992 3.92926,2.1716 5.89453,3.25782 4.28654,2.27639 7.07007,3.76763 9.42578,5.03515 -1.08263,-5.44386 -2.05946,-9.9451 -2.62696,-11.8789 -1.87044,-6.37367 -5.38018,-12.14738 -8.07031,-18.22071 -0.69998,-0.87914 -1.36148,-1.79692 -2.01172,-2.7246 z m 25.92188,5.93945 c 0.1557,0.69483 0.32477,1.38626 0.48437,2.08008 3.84554,1.80764 7.40162,4.32586 11.06641,6.5625 0.31219,-0.79346 0.67594,-1.60296 1.08594,-2.42579 -4.86302,-3.0963 -9.65225,-6.07801 -12.63672,-6.21679 z m 22.30469,4.06055 c -0.19593,0.0467 -0.46369,0.29655 -0.81641,0.80078 0.39968,0.46139 0.79878,0.91803 1.19531,1.3789 0.14429,-1.32368 0.0741,-2.28759 -0.3789,-2.17968 z m -3.45704,6 c -0.26485,0.60032 -0.52977,1.2072 -0.82812,1.91796 0.83614,0.33131 1.68463,0.63186 2.55664,0.87305 0.24948,0.069 0.57128,-0.51301 0.89063,-1.37109 -0.83881,-0.41965 -1.71253,-0.89353 -2.61915,-1.41992 z m -159.56445,11.1289 c -0.41361,0.0849 -0.82951,0.15991 -1.24219,0.25 -0.63772,0.13921 0.11112,2.50018 0.40235,1.91602 0.33479,-0.67153 0.60829,-1.40063 0.83984,-2.16602 z m 70.19922,0.44531 c -0.12798,4.16667 -0.25679,8.33334 -0.38477,12.5 0.0245,0.33279 0.0637,0.66536 0.0918,0.99805 0.89431,0.39016 1.7735,0.86072 2.63086,1.39648 0.54761,-1.21596 1.13495,-2.41681 1.73828,-3.61132 -0.65139,-1.83899 -1.34944,-3.77642 -2.11718,-5.87696 -0.5846,-1.59941 -1.24606,-3.44398 -1.95899,-5.40625 z m -68.01953,3.0586 c -0.73873,0.0195 -1.40234,0.23966 -1.92774,0.58008 1.4143,0.55031 3.40821,1.21941 6.21485,1.71679 -1.31444,-1.68899 -2.91341,-2.33316 -4.28711,-2.29687 z m 99.375,2.81054 c -0.26093,0.54649 -0.52187,1.10495 -0.76953,1.63477 0.12288,0.277 0.25607,0.54936 0.38867,0.82227 0.15051,-0.7596 0.27462,-1.57719 0.38086,-2.45704 z m -93.34375,2.54493 c -2.00325,0.093 -4.00395,0.20322 -5.99805,0.34765 1.56148,0.69413 3.81318,1.26789 6.89453,1.60157 -0.28713,-0.65533 -0.58351,-1.3061 -0.89648,-1.94922 z m 166.39062,5.10742 c -0.76943,1.2605 -1.53144,2.52525 -2.29101,3.79101 -0.0737,0.26066 -0.14924,0.52058 -0.22266,0.78125 0.76093,-1.3345 1.53476,-2.66346 2.32813,-3.98242 0.0628,-0.19083 0.12249,-0.40052 0.18554,-0.58984 z m -104.31445,4 c 0.0894,0.8457 0.17951,1.69127 0.26367,2.53711 0.0174,-0.0103 0.0334,-0.0229 0.0508,-0.0332 0.063,-0.21052 0.11765,-0.42307 0.1836,-0.63281 0.16864,-0.53633 0.35822,-1.06542 0.55273,-1.59179 -0.35924,-0.10068 -0.69576,-0.18475 -1.05078,-0.2793 z m 122.5,42.88867 c -3.49949,10.76838 -7.20911,21.49916 -9.44922,32.58594 -0.43584,2.15708 -0.83119,5.67299 -1.1914,9.89843 2.40258,-6.87946 4.71694,-13.78504 6.54101,-20.83398 1.8409,-7.11402 3.0139,-14.37297 4.09961,-21.65039 z m -2.14062,0.26953 c -0.29463,0.32836 -0.68143,0.76308 -1.08008,1.21875 -0.0433,0.31185 -0.0656,0.5296 -0.0977,0.79883 0.50637,-0.55801 0.88622,-1.24521 1.17774,-2.01758 z m 12.38086,14.41992 c -0.75454,2.44464 -1.45172,4.90387 -2.0293,7.39258 0.26084,1.87382 0.54534,4.08785 0.85937,6.70508 0.13392,-3.59402 0.31759,-7.1832 0.70118,-10.75781 0.12002,-1.11849 0.28592,-2.23007 0.46875,-3.33985 z m -4.99414,25.38672 c -1.23163,9.82303 -2.07693,19.71 -3.4336,29.51758 1.35941,-1.80211 2.52083,-3.5869 3.6582,-5.45508 0.28665,-1.96258 0.63003,-4.39408 0.9629,-6.70312 -0.38536,-6.10596 -0.784,-11.92549 -1.1875,-17.35938 z m -158.64454,16.30469 c -0.53565,0.26632 -1.00941,0.51716 -1.57617,0.79101 -0.67379,0.32559 1.25105,0.82028 1.87695,1.23047 z m 178.85938,21.56836 -2.58399,2.88476 c -2.67895,3.9104 -4.91818,8.16307 -8.03711,11.73243 -0.051,0.0583 -0.10496,0.11381 -0.15624,0.17187 0.66492,15.13267 0.73128,30.30525 1.86328,45.40625 h 8.91406 z m -24.24805,27.08594 c -1.56557,1.4154 -3.18302,2.76736 -5.14453,3.41601 -0.0557,0.0184 -0.16165,0.039 -0.23437,0.0586 -0.0428,2.8487 -0.10045,6.29441 -0.20899,11.02148 0.0283,1.56373 0.13841,2.9255 0.26367,4.16602 1.3108,1.99594 2.77911,4.36263 4.49805,7.13476 0.39617,-11.45778 0.65384,-20.06485 0.82617,-25.79687 z m -39.25781,7.79297 c -0.17244,0.5456 -0.34513,1.0911 -0.51758,1.63671 -0.11788,1.10806 -0.10002,0.98886 -0.19922,1.93555 1.12411,0.009 2.25082,-0.01 3.37305,0.041 -0.93428,-1.31092 -1.80771,-2.4918 -2.65625,-3.61328 z m -70.91797,23.5625 c -0.28365,0.1135 -0.75709,1.30951 -1.09766,1.74804 0.40515,-0.56861 0.76147,-1.15432 1.09766,-1.74804 z m 109.15234,0.15039 c -0.21869,0.52645 -0.41974,1.06859 -0.6289,1.60351 h 0.57422 c 0.0161,-0.48925 0.0325,-0.99392 0.0547,-1.60351 z" />
    </clipPath>
  </defs>
  <g
     id="Symbols"
     stroke="none"
     stroke-width="1"
     fill="none"
     fill-rule="evenodd">
    <g
       id="nav"
       transform="translate(-128.000000, -57.000000)">
      <g
         id="logo_v1" />
    </g>
  </g>
  <path
     style="fill:#3d8ddd;stroke-width:0.196291"
     d="m 154.35785,48.418628 c -1.2108,-0.245753 -2.83831,-0.914063 -4.11099,-1.688109 -1.34151,-0.815912 -3.27235,-2.257086 -3.16689,-2.363746 0.0395,-0.04007 0.59536,0.07816 1.23494,0.262736 1.76593,0.509597 6.4996,0.442858 8.54742,-0.120517 3.21216,-0.8837 6.74411,-2.674679 8.57724,-4.349371 0.40606,-0.370955 0.78289,-0.62937 0.83738,-0.574252 0.19561,0.197802 -2.34148,3.440719 -3.90277,4.988548 -2.55446,2.532408 -5.16194,4.091857 -6.72974,4.024815 -0.27818,-0.01186 -0.85715,-0.09294 -1.28659,-0.180104 z m -8.22227,-5.758929 c -0.99694,-0.155261 -1.30431,-0.30324 -1.85441,-0.892758 -0.36267,-0.388653 -0.51457,-0.655123 -0.33756,-0.59215 2.01363,0.716341 5.14425,0.663254 7.38422,-0.125213 1.60547,-0.565132 3.76448,-1.954589 4.68572,-3.01557 0.69287,-0.797986 1.65214,-2.655699 1.85109,-3.584846 0.0966,-0.45103 0.35806,-0.790116 0.85382,-1.107247 1.7222,-1.10162 3.27686,-3.488003 3.83677,-5.889371 0.6635,-2.845701 -0.0308,-5.975216 -1.23959,-5.587265 -0.57751,0.185353 -1.64877,1.853241 -2.27438,3.541083 -0.68148,1.838604 -0.52762,2.311773 0.25219,0.775512 0.72744,-1.433088 0.97682,-1.64086 1.35653,-1.130166 0.36803,0.494956 0.18499,2.200119 -0.34999,3.260506 -0.39976,0.792382 -1.79756,2.345855 -2.11076,2.345855 -0.0936,0 -0.22433,-0.341935 -0.29041,-0.759863 -0.19555,-1.236491 -1.37887,-2.398345 -2.44269,-2.398345 -0.63661,0 -1.47282,0.880375 -2.12919,2.241634 -1.4501,3.007385 -0.84401,4.666942 1.70442,4.666942 0.54214,0 0.98571,0.05033 0.98571,0.111865 0,0.324138 -1.17063,1.582618 -2.22074,2.387402 -3.41137,2.614397 -7.40364,3.307081 -11.05297,1.917784 -0.93094,-0.354415 -1.32186,-0.582709 -1.07361,-0.626997 1.86153,-0.332095 2.85282,-0.995394 3.43953,-2.301476 0.55619,-1.238192 0.48239,-1.327136 -0.6579,-0.79288 -0.56364,0.264078 -1.52973,0.537921 -2.14685,0.608535 -1.00716,0.115249 -1.16417,0.197323 -1.5335,0.801577 l -0.41144,0.67319 -1.11521,-1.636238 c -0.61336,-0.899927 -1.10207,-1.65818 -1.08603,-1.685003 0.016,-0.02683 0.44634,0.09497 0.9562,0.270635 1.14099,0.393132 2.29021,0.285827 3.56233,-0.332609 2.25101,-1.094314 4.32538,-4.275791 4.51253,-6.920925 0.0939,-1.327352 0.0863,-1.353616 -0.59431,-2.041838 -0.60658,-0.613364 -0.80764,-0.697186 -1.6723,-0.697186 -1.21237,0 -1.98424,-0.278725 -1.98424,-0.716537 0,-0.457375 1.46192,-1.82257 2.42571,-2.265207 1.85474,-0.851837 2.82395,-0.247589 3.33601,2.079828 0.57008,2.591083 1.55096,3.577129 3.36162,3.379357 3.28387,-0.358685 7.76563,-4.144515 9.50446,-8.028602 0.68052,-1.520091 0.79532,-2.369371 0.4196,-3.104073 -0.9497,-1.857085 -3.37779,-1.273884 -6.06739,1.45732 l -1.36731,1.388457 0.11492,-1.289764 c 0.56553,-6.346669 -3.38431,-9.2710002 -8.94484,-6.622467 -1.85592,0.883991 -2.93408,1.649885 -4.67059,3.317876 -3.50508,3.366771 -5.76673,7.971188 -6.07981,12.377689 l -0.13324,1.875181 -0.60983,-1.381707 c -4.32423,-9.797347 -5.01919,-19.823185 -1.60361,-23.1340696 1.18516,-1.1488326 4.31603,-2.3422509 7.65586,-2.91823502 2.52832,-0.43603555 6.96208,-0.3919112 9.79287,0.0974587 8.12106,1.40391482 14.92869,5.95915042 18.3281,12.26400192 l 0.70667,1.310632 -0.37859,0.663246 c -0.53772,0.942049 -1.50063,4.11516 -2.26509,7.464201 -0.91312,4.000382 -2.67601,13.064852 -2.56308,13.17904 0.1622,0.164015 0.50226,-0.147523 0.80303,-0.735667 0.15979,-0.312461 0.65005,-2.327586 1.08945,-4.478054 1.43739,-7.034684 2.53442,-10.679822 3.15278,-10.475849 0.70334,0.232008 0.96708,4.791196 0.43976,7.602118 -0.95352,5.082873 -3.58194,9.461408 -7.15083,11.912137 -3.97957,2.732738 -10.78046,4.125529 -16.09961,3.297117 z m 15.9733,-6.810909 c 0.40713,-0.402007 0.74023,-0.819698 0.74023,-0.9282 0,-0.271543 -1.19773,-1.49909 -1.46269,-1.49909 -0.11819,0 -0.55798,0.3553 -0.97732,0.789551 l -0.76244,0.789552 0.76244,0.789551 c 0.41934,0.434252 0.80679,0.789554 0.86098,0.789554 0.0542,0 0.43167,-0.328918 0.8388,-0.730918 z m -11.26153,-5.588727 0.76554,-0.792782 -0.82353,-0.832766 -0.82354,-0.832766 -0.82355,0.832766 -0.82353,0.832766 0.76555,0.792782 c 0.42107,0.436032 0.81774,0.792782 0.88153,0.792782 0.0637,0 0.46047,-0.35675 0.88153,-0.792782 z m 8.58886,-17.764903 0.76555,-0.792782 -0.82034,-0.829534 -0.82035,-0.829536 -0.78399,0.774132 c -0.43121,0.425771 -0.78401,0.862905 -0.78401,0.971408 0,0.271547 1.19774,1.499093 1.46269,1.499093 0.11818,0 0.5594,-0.35675 0.98045,-0.792781 z m -5.09405,18.860822 c -0.0737,-0.296916 0.0199,-0.777527 0.24028,-1.233671 0.65015,-1.345729 1.61372,-0.96824 1.92462,0.753969 0.1267,0.701873 0.11816,0.713407 -0.61997,0.836726 -1.22451,0.204587 -1.41655,0.160209 -1.54493,-0.357024 z M 139.979,30.823842 c -0.95948,-0.2641 -2.28179,-1.441339 -2.7235,-2.424715 -0.508,-1.130927 -0.48828,-3.424641 0.0444,-5.171654 1.06001,-3.476143 3.29265,-6.836573 6.00575,-9.03944 1.6948,-1.37608 2.77618,-1.90841 4.12871,-2.032427 1.39575,-0.127977 2.35916,0.186453 3.3529,1.094284 2.18395,1.995172 2.63004,5.532416 1.1925,9.455971 l -0.30467,0.83155 -0.57723,-0.301841 c -0.63762,-0.33342 -1.01943,-1.098259 -1.2215,-2.446891 -0.33718,-2.2505 -0.92034,-2.9619 -2.42574,-2.959207 -1.74242,0.0031 -4.2931,2.076964 -5.56514,4.524755 -1.56606,3.013601 -0.96232,4.457315 2.02905,4.852034 1.34442,0.177405 1.7568,0.393064 1.7568,0.91875 0,0.909992 -2.51951,2.590054 -4.19682,2.798528 -0.42945,0.05336 -1.10245,0.0085 -1.49556,-0.0997 z m 13.40185,-7.685057 c 0.54231,-1.810693 2.48695,-4.175509 4.18712,-5.091841 1.49178,-0.804012 2.41865,-0.796471 2.51179,0.02044 0.0471,0.412546 -0.13233,0.731047 -0.7808,1.386318 -1.04568,1.056672 -2.9594,2.442315 -4.71992,3.417514 -1.30131,0.720826 -1.33629,0.728636 -1.19819,0.267577 z"
     id="path2027" />
  <path
     style="fill:#5691c6;fill-opacity:1"
     d="m 798.8125,354.31689 c 0.72187,-0.28887 1.58438,-0.25335 1.91667,0.0789 0.33229,0.33229 -0.25834,0.56864 -1.3125,0.52522 -1.16495,-0.048 -1.4019,-0.28494 -0.60417,-0.60416 z m -35.35362,-2.38342 c -0.36253,-0.58659 -0.44468,-1.281 -0.18255,-1.54313 0.26212,-0.26213 0.74306,0.21781 1.06875,1.06653 0.67618,1.76211 0.0998,2.07206 -0.8862,0.4766 z m -28.69722,-32.64073 c 1.24391,-0.23919 3.04391,-0.23011 4,0.0202 0.95609,0.25029 -0.0617,0.446 -2.26166,0.4349 -2.2,-0.0111 -2.98225,-0.21589 -1.73834,-0.45508 z M 840.94617,299.25 837.5,295.5 l 3.75,3.44617 c 3.49042,3.20761 4.20979,4.05383 3.44617,4.05383 -0.16711,0 -1.85461,-1.6875 -3.75,-3.75 z M 300.25,296.29427 c -1.99806,-0.38485 -2.25,-1.03083 -2.25,-5.76899 v -5.33562 l 5.85421,0.53084 c 7.05031,0.6393 12.36867,-0.91709 15.13015,-4.42775 3.54764,-4.51009 2.77909,-5.29044 -5.23436,-5.31471 -15.41751,-0.0467 -23.78248,-8.65505 -22.47046,-23.12423 1.0875,-11.99318 8.85073,-19.94894 20.16944,-20.66966 C 325.30022,231.30217 332,239.27796 332,256.64922 V 265 h 17 17 V 250.5 236 h 5.5 5.5 v 20 20 h -22.5 c -21.01689,0 -22.5,0.11889 -22.5,1.80366 0,3.57763 -5.07692,11.9776 -8.78311,14.53202 -5.60789,3.86513 -15.02499,5.48826 -22.96689,3.95859 z m 20.60262,-39.7143 c -0.3041,-7.26145 -0.6862,-8.77504 -2.77693,-11 -5.22965,-5.56542 -14.11804,-2.20161 -15.64158,5.91955 -1.50279,8.01056 4.05081,13.38174 13.91851,13.46134 l 4.85261,0.0391 -0.35261,-8.42003 z M 49.571429,294.42857 C 47.71177,292.56891 47.500976,287.89902 49.2,286.2 c 0.66,-0.66 2.595,-1.2 4.3,-1.2 3.796556,0 5.5,1.56253 5.5,5.04501 0,4.99291 -6.020267,7.79187 -9.428571,4.38356 z m 19.083559,-0.25731 C 65.256855,290.41637 67.925549,285 73.173753,285 75.874093,285 79,287.7396 79,290.10623 c 0,5.05062 -6.97329,7.79074 -10.345012,4.06503 z M 152,294 c -2.49115,-2.49115 -2.55405,-5.18862 -0.17126,-7.34501 3.82097,-3.45793 10.17126,-1.10951 10.17126,3.76145 0,5.00423 -6.31596,7.2676 -10,3.58356 z m 214,0 c -4.48006,-4.48006 -0.87988,-9.90994 6,-9.04933 4.09438,0.51217 5.31235,7.01671 1.77749,9.49263 C 370.78621,296.53847 368.40261,296.40261 366,294 Z m 64.66667,1.33333 C 430.3,294.96667 430,292.45929 430,289.76138 v -4.90529 l 5.33434,0.66648 c 4.76916,0.59587 5.64327,0.40094 8.25,-1.83975 L 446.5,281.17658 446.80226,258.08829 447.10452,235 H 452.55226 458 v 22.35078 c 0,14.24505 -0.41813,23.58353 -1.15295,25.75 C 453.84243,291.95921 447.8465,296 437.7065,296 c -3.50524,0 -6.67317,-0.3 -7.03983,-0.66667 z M 748,293.62244 c 0,-0.20765 0.7875,-0.99515 1.75,-1.75 1.58606,-1.24387 1.62143,-1.2085 0.37756,0.37756 C 748.82119,293.91575 748,294.44548 748,293.62244 Z M 717.87244,277.25 c -1.24387,-1.58606 -1.2085,-1.62143 0.37756,-0.37756 1.66575,1.30637 2.19548,2.12756 1.37244,2.12756 -0.20765,0 -0.99515,-0.7875 -1.75,-1.75 z M 29.5,274.11927 C 21.043667,270.23611 19.104467,265.34563 19.043893,247.75 L 19,235 h 6 6 v 11.88922 c 0,10.21267 0.269384,12.22212 1.910335,14.25 L 34.820671,263.5 H 58.660335 82.5 l 0.27822,-13.75 0.278219,-13.75 16.721781,0.022 c 14.13602,0.0186 17.35508,0.30958 20.81724,1.88192 6.33625,2.87761 8.71686,7.59589 9.22815,18.28984 l 0.42103,8.80628 h 7.94342 C 150.34372,265 150,265.46661 150,248.96482 V 235 h 5.5 5.5 v 10.53212 c 0,12.06329 1.45306,16.92924 5.51673,18.47424 C 167.99423,264.56811 179.96838,265 194.0651,265 H 219 V 233.5 202 h 5.5 5.5 v 21.12736 21.12736 l 4.38564,-4.04254 c 5.88861,-5.42794 9.8604,-7.33444 16.52651,-7.93291 10.55364,-0.94749 18.73702,3.30343 23.34368,12.12605 1.80128,3.44979 2.20372,6.26408 2.55524,17.86919 l 0.41724,13.77451 -56.04905,-0.27451 -56.04905,-0.27451 -3.05837,-2.93064 -3.05837,-2.93064 -2.25674,2.05568 C 152.44851,275.61879 150.48377,276 134.56574,276 H 119 v -10.35078 c 0,-11.13475 -1.13921,-16.11817 -4.03944,-17.67033 C 113.95457,247.4405 108.8269,247 103.56574,247 H 94 V 261.5 276 L 63.75,275.978 C 36.543049,275.95829 33.097613,275.7713 29.5,274.11927 Z M 266,260.94282 C 266,245.7891 257.10062,239.13674 244.49142,244.86498 237.93065,247.84548 231,257.14508 231,262.96788 231,264.93329 231.57447,265 248.5,265 H 266 Z M 392,239 v -37 h 5.5 5.5 v 37 37 h -5.5 -5.5 z m 81,0.0161 v -37.01612 h 5.5 5.5 v 31.5 31.5 h 22.5 22.5 v -31.5 -31.5 h 5.5 5.5 v 21.12736 21.12736 l 4.38564,-4.04254 c 6.02974,-5.55803 9.98156,-7.39169 17.1745,-7.96907 7.44065,-0.59726 12.35276,0.86352 17.19242,5.11275 4.90079,4.30289 7.34832,10.35675 7.99365,19.77192 l 0.53958,7.87222 h 16.46409 c 15.10291,0 16.41001,-0.14095 15.80991,-1.70479 -1.49534,-3.89679 -1.72633,-10.43254 -0.54303,-15.36506 4.26075,-17.76082 30.13489,-21.64268 37.86209,-5.68041 1.58793,3.28022 2.11563,6.25056 2.09919,11.81598 -0.0269,9.09244 -2.2224,14.4933 -7.54102,18.55037 L 647.65635,275.5 560.32817,275.76612 473,276.03224 V 239.01612 Z M 575.99442,260.25 c -0.0126,-10.72833 -3.64117,-16.11771 -11.44389,-16.99719 -6.02458,-0.67906 -12.11571,1.69348 -16.88368,6.57632 -3.61278,3.69982 -8.2003,13.30408 -6.95134,14.55305 0.3398,0.3398 8.41782,0.61782 17.95116,0.61782 H 576 l -0.006,-4.75 z m 68.46078,4.12882 c 4.13764,-1.58776 5.86532,-10.92453 3.03445,-16.39884 -4.10203,-7.93244 -14.86655,-6.12946 -17.58545,2.94544 -1.39339,4.65073 0.12756,10.28299 3.39483,12.57148 2.18419,1.52986 8.22351,2.00728 11.15617,0.88192 z m 104.2948,-0.0411 c 0.6875,-0.27741 1.8125,-0.27741 2.5,0 0.6875,0.27741 0.125,0.50439 -1.25,0.50439 -1.375,0 -1.9375,-0.22698 -1.25,-0.50439 z M 711.25218,258.5 c 0.0111,-2.2 0.21589,-2.98225 0.45508,-1.73834 0.23919,1.24391 0.23011,3.04391 -0.0202,4 -0.25029,0.95609 -0.446,-0.0617 -0.4349,-2.26166 z m 169.03383,-11 c 0.008,-2.75 0.20172,-3.75631 0.43157,-2.23625 0.22986,1.52006 0.22371,3.77006 -0.0136,5 -0.23736,1.22994 -0.42542,-0.0137 -0.41792,-2.76375 z M 833,240.62244 c 0,-0.20765 0.7875,-0.99515 1.75,-1.75 1.58606,-1.24387 1.62143,-1.2085 0.37756,0.37756 C 833.82119,240.91575 833,241.44548 833,240.62244 Z M 249.65499,221.17126 C 246.11247,217.25682 248.35991,211.75 253.5,211.75 c 3.42219,0 5.5,1.97107 5.5,5.21746 0,5.20708 -5.99605,7.90437 -9.34501,4.2038 z M 809.5,212 c 2.14824,-2.2 4.1309,-4 4.4059,-4 0.275,0 -1.25766,1.8 -3.4059,4 -2.14824,2.2 -4.1309,4 -4.4059,4 -0.275,0 1.25766,-1.8 3.4059,-4 z m 31.69495,-2.5 c 0.0204,-1.65 0.2445,-2.20394 0.49804,-1.23097 0.25354,0.97297 0.23687,2.32297 -0.0371,3 -0.27393,0.67703 -0.48137,-0.11903 -0.46099,-1.76903 z m -38.116,-3.08333 c 0.048,-1.16495 0.28494,-1.4019 0.60416,-0.60417 0.28887,0.72187 0.25335,1.58437 -0.0789,1.91667 -0.33229,0.33229 -0.56864,-0.25834 -0.52522,-1.3125 z M 388,192.5 c 0,-2.00925 0.49765,-2.5 2.53518,-2.5 2.19659,0 2.39693,-0.25834 1.5,-1.93426 C 388.91053,182.22728 392.43679,177 399.5,177 c 4.04762,0 4.5,0.23457 4.5,2.33333 0,1.9407 -0.51962,2.33334 -3.08798,2.33334 -2.7704,0 -4.85469,1.52525 -4.89671,3.58333 -0.0344,1.68427 4.15094,4.75 6.48469,4.75 2,0 2.5,0.5 2.5,2.5 0,2.47059 -0.1,2.5 -8.5,2.5 -8.4,0 -8.5,-0.0294 -8.5,-2.5 z m 429.94617,-2.25 -3.44617,-3.75 3.75,3.44617 c 3.49042,3.20761 4.20979,4.05383 3.44617,4.05383 -0.16711,0 -1.85461,-1.6875 -3.75,-3.75 z M 775.75,174.33772 c 0.6875,-0.27741 1.8125,-0.27741 2.5,0 0.6875,0.27741 0.125,0.50439 -1.25,0.50439 -1.375,0 -1.9375,-0.22698 -1.25,-0.50439 z m -27,-47.06993 c 2.3375,-0.21053 6.1625,-0.21053 8.5,0 2.3375,0.21054 0.425,0.3828 -4.25,0.3828 -4.675,0 -6.5875,-0.17226 -4.25,-0.3828 z"
     id="path2029"
     clip-path="url(#clipPath2114)"
     transform="matrix(0.1953061,0,0,0.21110616,-2.2725219,-29.672873)" />
  <path
     style="fill:#555759;stroke-width:0.216647;fill-opacity:1"
     d="M 7.7704152,44.538592 7.4612214,43.584521 H 5.8152326 4.16925 L 3.8408126,44.419333 C 3.5268145,45.217437 3.4667744,45.254146 2.4753312,45.254146 H 1.438294 L 1.9020682,43.76341 c 0.25508,-0.819905 0.9944287,-3.10073 1.643004,-5.068501 l 1.179227,-3.577766 h 1.043557 1.0435521 l 1.6246749,4.889613 c 0.8935711,2.689288 1.6288018,5.023779 1.6338458,5.187759 0.0062,0.200853 -0.3170793,0.298146 -0.9905736,0.298146 -0.9836453,0 -1.0047236,-0.01536 -1.3089402,-0.954069 z M 6.7337906,41.422935 c 0,-0.404292 -0.8728673,-3.32432 -0.9937214,-3.32432 -0.1020088,0 -0.9741044,3.05809 -0.9741044,3.415799 0,0.08908 0.4427588,0.161966 0.9839128,0.161966 0.5633857,0 0.983913,-0.108322 0.983913,-0.253445 z m 14.1723784,3.533063 c -1.65414,-1.024485 -1.960147,-2.08193 -1.967151,-6.797754 l -0.0048,-3.16036 h 1.082305 1.082309 v 3.577766 c 0,3.244379 0.0362,3.621653 0.388555,4.048733 0.577197,0.699613 1.321665,0.845127 2.080328,0.40662 0.875701,-0.506158 1.070724,-1.435945 1.072104,-5.111276 l 0.0013,-2.921843 h 1.004943 1.004941 l -0.07279,3.637396 c -0.0668,3.338047 -0.113068,3.725727 -0.56218,4.710724 -0.619333,1.358329 -1.810772,2.146657 -3.244346,2.146657 -0.647977,0 -1.303325,-0.188539 -1.865413,-0.536663 z m 20.067822,-4.698259 v -5.259855 h 1.082305 1.082304 v 2.027401 2.0274 h 1.574262 1.574264 v -2.0274 -2.027401 h 1.086138 1.086145 l -0.05303,5.18776 -0.05303,5.187759 H 47.369434 46.38552 l -0.05687,-2.087029 -0.05687,-2.087029 h -1.558934 -1.558937 l -0.05687,2.087029 -0.05687,2.087029 -1.033108,0.0721 -1.033111,0.0721 z m 45.79386,5.086905 c -0.07714,-0.09351 -0.14026,-2.459774 -0.14026,-5.258382 v -5.088378 l 2.115414,0.0052 c 2.475079,0.0062 3.528958,0.436422 4.188525,1.710147 0.624502,1.206032 0.458094,3.054632 -0.367976,4.087675 -0.342553,0.428388 -0.622825,0.852387 -0.622825,0.942217 0,0.08984 0.364741,0.889722 0.810529,1.777529 0.445799,0.887806 0.849507,1.694695 0.897139,1.793082 0.04768,0.09839 -0.427796,0.177748 -1.056508,0.176355 l -1.143118,-0.0025 -0.839971,-1.786348 c -0.684541,-1.45583 -0.928722,-1.786363 -1.31966,-1.786363 -0.458982,0 -0.482194,0.07467 -0.537514,1.729253 l -0.05781,1.729251 -0.892849,0.07062 c -0.491068,0.03885 -0.955967,-0.0058 -1.033109,-0.09938 z m 4.005114,-5.823314 c 0.262729,-0.170431 0.380636,-0.500291 0.380636,-1.064939 0,-0.976625 -0.39898,-1.311847 -1.561332,-1.311847 h -0.800067 v 1.311847 1.311848 h 0.800067 c 0.440038,0 0.971353,-0.111109 1.180696,-0.246909 z m 14.450605,5.525083 c -1.48536,-0.82232 -2.65657,-2.964143 -2.65657,-4.858069 0,-1.096031 0.49086,-2.618683 1.14096,-3.539275 2.09221,-2.962657 5.88429,-2.405905 7.36331,1.081078 0.83533,1.969413 0.40897,4.804324 -0.95931,6.378386 -1.20537,1.386639 -3.33856,1.79591 -4.88839,0.93788 z m 3.03336,-2.286196 c 0.30474,-0.190999 0.69882,-0.717052 0.87576,-1.169007 1.07776,-2.752902 -1.05151,-5.448336 -3.22683,-4.084851 -1.53478,0.961997 -1.55995,4.228307 -0.0403,5.227754 0.69295,0.455728 1.68858,0.466596 2.39136,0.02611 z m 4.73954,-2.514943 v -5.24739 l 1.91864,0.0015 c 1.05524,7.18e-4 2.23359,0.107386 2.61856,0.237009 2.05669,0.692527 2.704,3.987165 1.13286,5.766081 l -0.58757,0.6653 0.90246,1.80173 c 0.49635,0.990852 0.90246,1.85149 0.90246,1.912428 0,0.06094 -0.48541,0.110798 -1.07867,0.110798 h -1.07866 l -0.83997,-1.786401 c -0.72435,-1.540453 -0.91445,-1.786699 -1.38112,-1.788883 l -0.54115,-0.0025 v 1.788883 1.78888 h -0.98391 -0.98393 z m 4.21968,-1.007143 c 0.40486,-0.700601 0.3864,-1.042459 -0.0873,-1.616552 -0.27696,-0.335692 -0.65596,-0.477035 -1.27909,-0.477035 h -0.88552 v 1.311847 1.311848 h 0.97276 c 0.78214,0 1.03278,-0.103881 1.27908,-0.530108 z m 5.81625,2.092937 v -4.186524 h -1.27909 -1.27909 v -1.07333 -1.07333 h 3.64048 3.64049 v 1.07333 1.07333 h -1.27445 -1.27444 l -0.0538,4.11443 -0.0538,4.114429 -1.03311,0.0721 -1.03311,0.0721 z M 11.06301,40.126015 v -5.128131 h 2.364286 2.364281 l 0.730574,0.811517 c 0.611946,0.679744 0.730573,0.968035 0.730573,1.775437 0,0.677592 -0.13446,1.1374 -0.452657,1.54794 -0.437847,0.564912 -0.440595,0.594612 -0.08403,0.907886 1.426091,1.252952 1.325537,3.617278 -0.201856,4.746102 -0.534096,0.394726 -0.996913,0.46573 -3.04058,0.466487 l -2.410589,8.8e-4 z m 4.216776,2.845175 c 0.367008,-0.444847 0.404226,-1.322776 0.07309,-1.724142 -0.129878,-0.157421 -0.705466,-0.286222 -1.279087,-0.286222 H 13.03084 v 1.19259 1.192588 h 0.969857 c 0.619312,0 1.081624,-0.135474 1.279088,-0.374814 z m -0.320478,-4.204726 c 0.129881,-0.157421 0.236144,-0.535744 0.236144,-0.840714 0,-0.619015 -0.623662,-1.019724 -1.587077,-1.019724 -0.5533,0 -0.577534,0.04505 -0.577534,1.07333 v 1.073329 h 0.846164 c 0.46539,0 0.952426,-0.128799 1.082303,-0.286221 z m 16.569109,1.359551 v -5.128131 l 2.410589,0.0052 c 2.697395,0.0058 3.486573,0.288187 4.613242,1.650365 0.821324,0.993002 1.105586,2.104644 1.008886,3.94535 -0.105826,2.014518 -0.787843,3.282858 -2.191096,4.074769 -0.903007,0.509602 -1.297863,0.576147 -3.431032,0.578208 l -2.410589,0.0023 z m 5.33206,2.079493 c 0.740778,-1.004909 0.893027,-1.830329 0.552747,-2.996689 -0.397482,-1.362423 -1.103102,-1.902673 -2.640012,-2.021292 l -1.276968,-0.09856 v 3.036174 3.036173 l 1.400533,-0.09592 c 1.281411,-0.08777 1.448435,-0.160902 1.9637,-0.859889 z m 12.378389,2.983453 c 0,-0.03585 0.74406,-2.316677 1.653468,-5.068501 l 1.653468,-5.003317 h 1.040462 1.040462 l 1.53778,4.645464 c 0.845776,2.555004 1.587623,4.835829 1.648548,5.068501 0.09688,0.369971 -0.02476,0.423038 -0.969527,0.423038 -1.060152,0 -1.084549,-0.01557 -1.307614,-0.834813 l -0.227304,-0.834812 h -1.740523 -1.740522 l -0.227306,0.834812 c -0.222605,0.81756 -0.249353,0.834813 -1.29435,0.834813 -0.586874,0 -1.067042,-0.02933 -1.067042,-0.06518 z M 54.552,41.467851 c 0,-0.209977 -0.350432,-1.447873 -0.784981,-2.772942 l -0.234663,-0.715553 -0.470826,1.550365 c -0.647102,2.13081 -0.643358,2.146659 0.506556,2.146659 0.541155,0 0.983914,-0.09383 0.983914,-0.208529 z m 4.329223,-1.341836 v -5.128131 l 2.213804,0.0035 c 2.391848,0.0038 2.909591,0.184281 3.555918,1.239569 0.5112,0.834662 0.504213,1.932781 -0.01775,2.788492 l -0.413877,0.678526 0.575413,0.668197 c 1.091616,1.267643 0.875458,3.421996 -0.440954,4.394813 -0.559526,0.413482 -0.991335,0.48149 -3.061976,0.482256 l -2.410577,9.13e-4 z m 4.166138,2.825244 c 0.411091,-0.450934 0.471477,-1.282704 0.123725,-1.704211 -0.129876,-0.157421 -0.705466,-0.286222 -1.279089,-0.286222 h -1.042948 v 1.19259 1.192588 h 0.919224 c 0.579196,0 1.052339,-0.146018 1.279088,-0.394745 z m -0.41433,-4.145483 c 0.219841,-0.142609 0.38063,-0.49775 0.38063,-0.840715 0,-0.660754 -0.596869,-1.059035 -1.587075,-1.059035 -0.5533,0 -0.577537,0.04505 -0.577537,1.07333 0,1.07142 0.0012,1.073329 0.701677,1.073329 0.385922,0 0.87296,-0.111108 1.082305,-0.246909 z m 4.316283,1.320239 v -5.128131 h 0.983915 0.983914 v 5.128131 5.128131 h -0.983914 -0.983915 z m 6.297048,4.951809 c 0,-0.09697 0.730557,-2.403493 1.623458,-5.125591 l 1.623457,-4.949268 1.012852,-0.0025 1.012849,-0.0025 1.320196,3.995171 c 0.726106,2.197345 1.486625,4.505002 1.69004,5.12813 l 0.369848,1.13296 h -1.089475 c -1.06137,0 -1.09698,-0.02178 -1.380415,-0.843995 l -0.290939,-0.843997 -1.709179,0.06882 -1.709181,0.06881 -0.182917,0.775182 c -0.177083,0.750465 -0.216518,0.775183 -1.236754,0.775183 -0.579613,-2.4e-5 -1.05384,-0.07937 -1.05384,-0.176346 z m 5.313135,-3.492304 c 0,-0.128906 -1.006033,-3.353975 -1.070891,-3.432988 -0.0295,-0.03594 -0.255433,0.60806 -0.502078,1.431106 -0.246643,0.823045 -0.490136,1.630614 -0.541095,1.794594 -0.06726,0.216423 0.209793,0.298148 1.010706,0.298148 0.606847,0 1.103358,-0.04089 1.103358,-0.09086 z m 4.132438,-1.459505 v -5.128131 h 0.983914 0.983913 v 5.128131 5.128131 h -0.983913 -0.983914 z m 12.397319,0 v -5.128131 l 2.213801,4.89e-4 c 1.718726,2.39e-4 2.364703,0.09363 2.888565,0.417406 0.93765,0.579522 1.43109,1.493851 1.53486,2.844076 0.16434,2.138024 -1.08875,3.557381 -3.368487,3.815414 l -1.300917,0.14714 v 1.515873 1.515875 h -0.983917 -0.983905 z m 4.08865,-0.729078 c 1.026226,-0.871237 0.17479,-2.352323 -1.269456,-2.208248 l -0.752979,0.07511 -0.05945,1.252218 -0.05945,1.252218 h 0.852014 c 0.468617,0 1.048827,-0.167088 1.289373,-0.371302 z"
     id="path2025" />
</svg>
